<?xml version="1.0" encoding="UTF-8"?>
<svg enable-background="new 0 0 150 131.6" version="1.1" viewBox="0 0 150 131.6" xml:space="preserve" xmlns="http://www.w3.org/2000/svg">
<style type="text/css">
	.st0{fill:#B87850;}
	.st1{fill:#A4694B;}
	.st2{fill:#744C47;}
	.st3{fill:#644241;}
	.st4{fill:#C8874F;}
	.st5{fill:#91604B;}
</style>
	<path class="st0" d="m71.7 2.6c-32.1 1.5-58.7 27.9-60.5 59.9-2.1 36.8 27.2 67.3 63.6 67.3 34.7 0 63.7-28.8 63.7-63.7 0-36.3-31.6-65.2-66.8-63.5z"/>
	<path class="st1" d="m37.5 66.2c0-30.7 21.6-56.3 50.5-62.3-4.3-0.9-8.7-1.4-13.2-1.4-35.2 0-63.7 28.5-63.7 63.7s28.5 63.7 63.7 63.7c4.5 0 8.9-0.5 13.2-1.4-28.9-6.1-50.5-31.7-50.5-62.3z"/>
	<path class="st2" d="m64 64-2.2 6.6c-0.7 2.1 0.2 4.3 2.2 5.3l6.9 3.5c1.7 0.8 3.7 0.5 5.1-0.8l4.1-4.1c1.4-1.4 1.7-3.6 0.7-5.4l-3.5-5.9c-0.9-1.4-2.3-2.2-3.8-2.2h-5.3c-2 0-3.6 1.2-4.2 3z"/>
	<path class="st2" d="m39.7 35.5 2.1 6.6c0.7 2.1 2.7 3.4 4.9 3l7.7-1.3c1.9-0.3 3.3-1.8 3.6-3.6l0.9-5.8c0.3-2-0.8-3.9-2.6-4.7l-6.4-2.7c-1.4-0.6-3.1-0.4-4.3 0.5l-4.3 3.1c-1.5 1.1-2.2 3.1-1.6 4.9z"/>
	<path class="st2" d="m28.5 72.2 1.4 5.3c0.5 1.7 2.1 2.8 3.8 2.6l6.2-0.8c1.5-0.2 2.7-1.3 3-2.8l0.9-4.6c0.3-1.6-0.5-3.2-1.9-3.9l-5-2.4c-1.1-0.5-2.4-0.4-3.4 0.2l-3.5 2.4c-1.4 1-1.9 2.6-1.5 4z"/>
	<path class="st2" d="m105.6 85.4-6.7-1.6c-2.1-0.5-4.3 0.7-5.1 2.7l-2.8 7.2c-0.7 1.8-0.2 3.8 1.3 5l4.5 3.7c1.6 1.3 3.8 1.3 5.4 0.1l5.5-4.1c1.2-0.9 1.9-2.4 1.8-3.9l-0.5-5.3c-0.2-1.9-1.5-3.4-3.4-3.8z"/>
	<path class="st2" d="m65.2 103.7-3.6-4.1c-1.2-1.3-3.1-1.6-4.6-0.6l-5.2 3.4c-1.3 0.8-1.9 2.4-1.5 3.8l1.2 4.5c0.4 1.6 1.8 2.6 3.4 2.6l5.5-0.1c1.2 0 2.4-0.7 3-1.7l2.1-3.7c0.8-1.4 0.6-3-0.3-4.1z"/>
	<path class="st2" d="m103 29-5.6 4.1c-1.8 1.3-2.3 3.7-1.3 5.6l3.7 6.8c0.9 1.7 2.8 2.6 4.6 2.2l5.7-1c2-0.3 3.5-2 3.6-4l0.5-6.9c0.1-1.5-0.6-3-1.9-3.9l-4.4-3.1c-1.3-1-3.4-1-4.9 0.2z"/>
	<path class="st3" d="m104.6 45.5-3.7-6.8c-1-1.9-0.5-4.3 1.3-5.6l5.6-4.1c0.1-0.1 0.2-0.1 0.2-0.1-1.5-1-3.5-1-5 0.1l-5.6 4.1c-1.8 1.3-2.3 3.7-1.3 5.6l3.7 6.8c0.9 1.7 2.8 2.6 4.6 2.2l2.1-0.4c-0.7-0.3-1.4-1-1.9-1.8z"/>
	<path class="st3" d="m46.5 42.1-2.1-6.6c-0.6-1.8 0.1-3.8 1.6-4.9l4.3-3.1c0.1-0.1 0.2-0.1 0.3-0.2l-0.7-0.3c-1.4-0.6-3.1-0.4-4.3 0.5l-4.3 3.1c-1.5 1.1-2.2 3.1-1.6 4.9l2.1 6.6c0.7 2.1 2.7 3.4 4.9 3l2.2-0.4c-1.1-0.5-2-1.4-2.4-2.6z"/>
	<path class="st3" d="m101.6 102.4-4.5-3.7c-1.5-1.2-2-3.2-1.3-5l2.8-7.2c0.4-1 1.1-1.8 2-2.3l-1.7-0.4c-2.1-0.5-4.3 0.7-5.1 2.7l-2.8 7.2c-0.7 1.8-0.2 3.8 1.3 5l4.5 3.7c1.5 1.2 3.6 1.3 5.2 0.3-0.1-0.1-0.3-0.2-0.4-0.3z"/>
	<path class="st3" d="m68.8 75.9c-2-1-2.9-3.2-2.2-5.3l2.2-6.6c0.6-1.8 2.3-3 4.2-3h-4.8c-1.9 0-3.6 1.2-4.2 3l-2.2 6.6c-0.7 2.1 0.2 4.3 2.2 5.3l6.9 3.5c1.4 0.7 3 0.6 4.3-0.2l-6.4-3.3z"/>
	<path class="st3" d="m34.7 77.5-1.4-5.3c-0.4-1.5 0.2-3 1.4-3.8l3.2-2.1-1-0.5c-1.1-0.5-2.4-0.4-3.4 0.2l-3.5 2.4c-1.3 0.8-1.8 2.4-1.4 3.8l1.4 5.3c0.5 1.7 2.1 2.8 3.8 2.6l2.9-0.4c-1-0.4-1.8-1.1-2-2.2z"/>
	<path class="st3" d="m56.3 110.6-1.2-4.5c-0.4-1.5 0.2-3 1.5-3.8l4.6-3c-1.2-1-2.9-1.2-4.2-0.4l-5.2 3.4c-1.3 0.8-1.9 2.4-1.5 3.8l1.2 4.5c0.4 1.6 1.8 2.6 3.4 2.6l4.4-0.1c-1.4-0.1-2.7-1-3-2.5z"/>
	<path class="st4" d="m78.6 48c-1.2 0-2.2-1-2.2-2.2v-4.4c0-1.2 1-2.2 2.2-2.2s2.2 1 2.2 2.2v4.4c0 1.3-0.9 2.2-2.2 2.2z"/>
	<path class="st5" d="m51.6 60.5c-0.9 0.9-2.2 0.9-3.1 0l-3.1-3.1c-0.9-0.9-0.9-2.2 0-3.1s2.2-0.9 3.1 0l3.1 3.1c0.8 0.8 0.8 2.2 0 3.1z"/>
	<path class="st4" d="m51.2 90c-1.1-0.4-1.7-1.7-1.2-2.8l1.6-4.1c0.4-1.1 1.7-1.7 2.8-1.2 1.1 0.4 1.7 1.7 1.2 2.8l-1.6 4.1c-0.4 1.1-1.6 1.6-2.8 1.2z"/>
	<path class="st5" d="m77.1 96.3c-1.2 0.3-2.4-0.4-2.6-1.6l-1-4.3c-0.3-1.2 0.4-2.4 1.6-2.6 1.2-0.3 2.4 0.4 2.6 1.6l1 4.3c0.4 1.2-0.4 2.3-1.6 2.6z"/>
	<path class="st5" d="m83.8 115.3c-0.5-1.1 0.1-2.4 1.2-2.9l4.1-1.7c1.1-0.5 2.4 0.1 2.9 1.2s-0.1 2.4-1.2 2.9l-4.1 1.7c-1.2 0.4-2.5-0.1-2.9-1.2z"/>
	<path class="st5" d="m70.9 20.1c0.3-1.2 1.5-1.9 2.6-1.6l4.3 1c1.2 0.3 1.9 1.5 1.6 2.6-0.3 1.2-1.5 1.9-2.6 1.6l-4.3-1c-1.1-0.2-1.9-1.4-1.6-2.6z"/>
	<path class="st5" d="m30.9 98.7c-1.1-0.4-1.7-1.7-1.3-2.8l1.5-4.1c0.4-1.1 1.7-1.7 2.8-1.3s1.7 1.7 1.3 2.8l-1.5 4.1c-0.4 1.1-1.7 1.7-2.8 1.3z"/>
	<path class="st4" d="m27.7 47c1.2-0.3 2.4 0.4 2.7 1.6l1 4.3c0.3 1.2-0.4 2.4-1.6 2.7s-2.4-0.4-2.7-1.6l-1-4.3c-0.3-1.2 0.5-2.4 1.6-2.7z"/>
	<path class="st5" d="m100.2 66.8c-0.9-0.9-0.9-2.2 0-3.1l3.1-3.1c0.9-0.9 2.2-0.9 3.1 0s0.9 2.2 0 3.1l-3.1 3.1c-0.8 0.8-2.2 0.8-3.1 0z"/>
	<path class="st5" d="m121.2 67.3c0.9-0.9 2.2-0.9 3.1 0l3.1 3.1c0.9 0.9 0.9 2.2 0 3.1s-2.2 0.9-3.1 0l-3.1-3.1c-0.9-0.8-0.9-2.2 0-3.1z"/>
	<path class="st4" d="m119 93c1.1 0.5 1.7 1.7 1.2 2.9l-1.7 4.1c-0.5 1.1-1.7 1.7-2.9 1.2-1.1-0.5-1.7-1.7-1.2-2.9l1.7-4.1c0.5-1.1 1.8-1.7 2.9-1.2z"/>
</svg>
