<?xml version="1.0" encoding="UTF-8"?>
<svg enable-background="new 0 0 150 131.6" version="1.1" viewBox="0 0 150 131.6" xml:space="preserve" xmlns="http://www.w3.org/2000/svg">
<style type="text/css">
	.st0{fill:#F16347;}
	.st1{fill:#EF532C;}
</style>
	<path class="st0" d="M106.4,2C93,2,80.6,9.2,74,20.9C67.4,9.2,55,2,41.6,2C21.1,2,4.5,21,4.5,41.5C4.5,93.1,74,129,74,129  s69.5-36,69.5-87.5C143.5,21,126.9,2,106.4,2z"/>
	<path class="st1" d="M14,41.5c0-19,14.3-36.7,32.6-39.2C45,2.1,43.3,2,41.6,2C21.1,2,4.5,21,4.5,41.5C4.5,93.1,74,129,74,129  s1.8-0.9,4.8-2.7C63.1,117.1,14,84.8,14,41.5z"/>
</svg>
