<?xml version="1.0" encoding="UTF-8"?>
<svg enable-background="new 0 0 270 131.6" version="1.1" viewBox="0 0 270 131.6" xml:space="preserve" xmlns="http://www.w3.org/2000/svg">
<style type="text/css">
	.st0{fill:#CFD1D2;}
	.st1{fill:#231F20;}
</style>
	<path class="st0" d="m212.8 128.1h-131.2c-25.9 0.1-51.9 0.2-77.8 0.4 29.1-9.2 35.7-17.1 35.7-22.8 0.1-5.6-6.7-8.6-10.1-21.1-1.6-5.8-2.5-12-2.5-18.4 0.1-34 24.5-61.7 54.7-61.7h131.2c30.2 0 54.7 27.7 54.7 61.9-0.1 34.1-24.6 61.7-54.7 61.7z"/>
	<path class="st1" d="m73 94.1c-0.7-0.1-1.7-0.4-2.9-0.9s-2.7-1.2-4.5-2.2c-3.5-1.9-5.4-3.2-5.7-3.9-0.1-0.3-0.1-0.5-0.1-0.6 0-0.3 0.1-0.6 0.2-1.1 0.2-0.4 0.2-0.8 0.2-1l0.1-42.2c0-0.6-0.1-1.3-0.3-2.1-0.4-1.1-0.6-1.9-0.6-2.3 0-0.2-0.1-0.6 0-1 0-0.4 0.2-0.8 0.6-1.3 0.2-0.2 0.5-0.4 1-0.6s0.9-0.3 1.4-0.4 0.9-0.2 1.3-0.2h0.8c0.6 0.1 1.8 0.5 3.3 1.1 1.7 0.7 3.1 1 4.1 1 0.3 0 0.8 0 1.4-0.1s1.3-0.2 2-0.3c0.7-0.2 1.4-0.4 2.2-0.6 0.7-0.2 1.4-0.5 1.9-0.8 2.1-1.2 3.4-1.7 3.9-1.5 1.1 0.3 2.8 1.6 5 3.7 2.2 2 3.4 3.5 3.6 4.4 0.1 0.4-0.3 1.1-1.3 2.2-0.9 1-1.7 1.5-2.3 1.5-0.5 0-0.9-0.1-1.1-0.2s-0.4-0.2-0.5-0.1c-0.4-0.2-0.9-0.3-1.6-0.3-0.6 0-1.3 0.1-2 0.3-0.7 0.1-1.3 0.3-2 0.5-0.6 0.2-1.1 0.4-1.5 0.5-1.7 0.6-3.2 1.1-4.4 1.4s-2.2 0.9-3 1.7l-0.3 8.8c2.5-0.5 4.9-1 7.4-1.6 2.5-0.5 4.7-0.8 6.6-0.8 1.5 0 2.8 0.4 3.9 1.3s2 1.9 2.7 3.1 1.2 2.4 1.6 3.7c0.3 1.3 0.6 2.3 0.7 3 0 0.4 0.1 0.7 0.1 1v1.1c0 3.8-1.7 8-5 12.5-2.6 3.5-5.9 6.8-9.8 9.7-3.5 2.5-5.9 3.7-7.1 3.6zm-0.9-11.5c3-0.8 6-3.4 9-7.7 2.9-4.3 4.3-7.9 4-10.8-1.3 0.1-3.4 0.7-6.2 1.8-3 1.2-5.3 2.5-6.8 3.7v13z"/>
	<path class="st1" d="m118.3 94.1c-0.7-0.2-1.5-0.4-2.5-0.6s-2.1-0.4-3.4-0.6c-1.9-0.2-3.6-0.6-5.2-1-2.7-0.7-4.8-3-6.4-6.8-1.4-3.5-2.2-7.7-2.2-12.5s0.7-9.1 2.2-13.1c1.7-4.2 4-7.3 7.1-9 0.5-0.3 1.2-0.4 2.1-0.4 0.5 0 1.2 0.1 2.1 0.2s2.1 0.4 3.4 0.7c1.6 0 3.9 0.3 6.9 0.8 2.6 1.2 4.5 3.6 5.9 7.4 1.3 3.4 1.9 7.3 1.9 11.9 0 6.3-1.1 11.8-3.2 16.4-2.2 4.8-5.2 7.1-8.7 6.6zm-4.4-7c1.4 0.4 2.8-1.3 4-5 1.1-3.5 1.7-7.5 1.7-11.8 0-2.5-0.3-4.8-0.9-7.1-0.8-3.5-2.1-5.2-3.9-5.2-1.3 0-2.5 1.5-3.5 4.6-1.1 3.1-1.6 6-1.6 8.8 0 1.7 0.1 3.3 0.3 5s0.5 3.3 0.9 4.9c0.8 3.6 1.8 5.5 3 5.8z"/>
	<path class="st1" d="m162.4 93.6c-1.7 0-3.5-0.3-5.2-1-2-0.7-2.9-1.6-2.9-2.7l-0.1-12.9c-2.2 2.6-4 4.6-5.1 6.1-1.2 1.4-2.1 2.6-2.7 3.3-0.6 0.8-1.1 1.3-1.3 1.7-0.2 0.3-0.5 0.7-0.7 1.1l-1.5 2.2c-0.8 1.2-1.6 1.7-2.5 1.5-0.8-0.1-2.3-1.1-4.6-2.9s-3.5-3.2-3.8-4.1c-0.1-0.2-0.1-0.5 0-0.9 0.2-0.6 0.9-1.1 2-1.6 0.8-0.4 1.4-0.7 1.7-0.9 0.3-0.3 0.5-0.4 0.6-0.5l9.9-11.9-7.7-9.3c-0.6-0.7-1.2-1.6-1.8-2.4-0.6-0.9-1.1-1.7-1.5-2.5s-0.8-1.4-1-2c-0.3-0.5-0.4-0.9-0.4-1 0-0.7 0.5-1.2 1.3-1.5 0.8-0.4 1.8-0.6 2.9-0.7 1.7-0.1 3.1-0.2 4.1-0.1s1.7 0.2 1.9 0.5l10.4 14.2v-12c0-0.7 0.2-1.6 0.7-2.4 0.5-0.9 1-1.4 1.6-1.7 0.1 0 0.3-0.1 0.6-0.1 1.2 0 2.8 0.4 5 1.3 2.2 0.8 3.5 1.5 3.6 2.1 0.1 0.4 0.2 0.7 0.2 0.8 0 0.4-0.2 0.9-0.6 1.4-0.4 0.6-0.6 1.1-0.6 1.6v8.9c3.9-4.6 7.3-9.3 10.4-14.2 0.6-0.8 1.4-1.2 2.3-1.3 0.9 0 2.1 0.5 3.7 1.7 1.8 1.4 2.7 2.6 2.7 3.8 0 0.2-0.2 0.8-0.8 1.7s-1.4 2.1-2.5 3.8c-2.1 3.2-4.7 6.3-7.7 9.3l10 11.2c0.2 0.2 0.5 0.5 0.8 0.7 0.3 0.3 0.7 0.5 1.2 0.7 0.8 0.4 1.3 0.9 1.3 1.3 0.1 1-0.8 2.6-2.7 4.8-1.9 2.3-3.4 3.4-4.3 3.3-0.5 0-1.1-0.4-1.9-1-0.7-0.6-1.6-1.6-2.8-2.8-1.1-1.2-2.5-2.8-4.1-4.7s-3.5-4.1-5.7-6.7v10.5c0 0.2 0.1 0.7 0.2 1.3s0.2 1 0.2 1.3c0.1 1.5-0.2 2.6-1 3.1-0.3 0.5-0.9 0.6-1.8 0.6z"/>
	<path class="st1" d="m205.9 93.6c-1.8 0-4.2-0.6-7.1-1.7-3.1-1.1-5.2-2.3-6.2-3.6-2.7-3.5-4.1-8.3-4.1-14.6 0-5.9 1.2-11.1 3.6-15.5 2.6-4.9 5.9-7.4 9.8-7.5 1.4 0 3.1 0.3 5.2 1.1 2.6 1 4.6 2.3 6.2 4 0.5 0.5 0.9 1.7 1.2 3.8 0.5 2.1 0.7 4.3 0.7 6.6 0 3.2-0.5 5.4-1.5 6.6-4.8 1.5-9.7 2.4-14.7 2.6 0 2.3 0.2 4.7 0.8 7.2s1.3 3.8 2 3.8c0.9 0.1 2-0.7 3.4-2.3 1.1-1.3 1.8-2.4 2.2-3.4l0.6-2.1c0.2-0.7 0.5-1.5 0.7-2.2 0.8-0.1 2.3 0.3 4.4 1.1 2.2 0.8 3.5 1.6 3.9 2.2 0.4 0.7-0.5 2.8-2.7 6.2-2.4 3.6-4.8 6.1-7.1 7.5-0.3 0.1-0.7 0.2-1.3 0.2zm-7.1-24.1c2.1 0 3.7-0.6 5-1.5 0.7-0.6 1.1-2.9 1.1-7 0-1.7-0.1-2.6-0.4-2.7-0.8 0-1.9 1.2-3.4 3.8-1.3 2.6-2.1 5-2.3 7.4z"/>
	<path class="st1" d="m232.4 71.2c-0.1 1.7-0.5 2.7-1.3 2.9-0.2 0-0.5 0.1-0.7 0.1-1.4 0-3.1-0.5-5.1-1.6-2.1-1.1-3.7-2.4-5-3.8-0.6-0.6-0.6-1.7 0-3.4 0.6-1.6 0.8-2.5 0.8-2.5v-26.5c0-1.2 0.7-2.1 2.1-2.5 0.3-0.1 0.7-0.1 1.2-0.1 1.3 0 2.8 0.3 4.5 0.8 1.7 0.6 2.7 1.2 3.1 1.8 0.1 0.1 0.1 1.4 0.1 3.8v28.6c0 0.3 0 0.7 0.1 1.2s0.2 0.9 0.2 1.2zm0 10.2c0.1 0.4 0.1 1.6 0 3.4-0.2 2.4-0.3 3.9-0.3 4.5 0 1.9-0.1 3.3-0.3 4.3s-0.8 1.6-1.8 1.8c-0.6 0.1-2.2-0.3-4.8-1.4-2.8-1.2-4.5-2.2-5-3-0.3-0.5-0.2-1.4 0.3-2.5 0.3-0.5 0.4-1.4 0.5-2.6-0.1-1-0.1-3 0-5.9 0.2-1.7 0.9-2.5 2.1-2.5 1.3 0.1 3.1 0.6 5.5 1.6 2.3 1 3.6 1.8 3.8 2.3z"/>
</svg>
