<?xml version="1.0" encoding="UTF-8"?>
<svg enable-background="new 0 0 698.4 131.6" version="1.1" viewBox="0 0 698.4 131.6" xml:space="preserve" xmlns="http://www.w3.org/2000/svg">
<style type="text/css">
	.st0{fill:#CFD1D2;}
	.st1{fill:#231F20;}
</style>
	<path class="st0" d="m641.9 128.1h-560.2c-25.9 0.1-51.9 0.2-77.8 0.4 29.1-9.2 35.7-17.1 35.7-22.8 0.1-5.6-6.7-8.6-10.1-21.1-1.6-5.8-2.5-12-2.5-18.4 0.1-34 24.5-61.7 54.7-61.7h560.2c30.2 0 54.7 27.7 54.7 61.9-0.1 34.1-24.6 61.7-54.7 61.7z"/>
	<path class="st1" d="m67.8 94.2c-1.8 0-3.9-0.3-6.2-0.9-2.5-0.6-4-1.2-4.6-1.9-0.2-0.4-0.3-0.8-0.3-1.2 0-0.3 0.1-0.7 0.2-1.4 0.2-0.7 0.2-1.2 0.2-1.5v-49.7c0-0.6 0.2-1.2 0.7-1.9s1-1.2 1.6-1.4c0.8-0.4 3.9 0.2 9.2 1.7 5.5 1.5 8.4 2.8 8.8 3.8 0.1 0.4 0.2 0.9 0.1 1.7-0.1 1-0.2 1.6-0.2 1.8 0 0.4 0.1 0.8 0.2 1.1l9.5 25.3c0.7-2.1 1.6-5.2 2.8-9.4s2.6-9.5 4.4-15.9c1.7-6.5 3.1-9.9 4.2-10.2 0.2 0 0.4-0.1 0.5-0.1h0.6c0.7 0 2.1 0.2 4 0.6 2 0.5 3.4 0.7 4.3 0.8l6.4 0.6c2.2 0.4 3.4 1.2 3.7 2.3 0.1 0.5 0.1 0.8 0.1 1 0 0.5-0.1 1.1-0.4 2-0.2 0.9-0.4 1.5-0.4 1.9v42.8c0 0.5 0.3 1.2 0.8 2.1 0.6 0.8 0.9 1.5 0.8 2.1-0.3 2-0.9 3.1-1.7 3.3-1.2 0.3-3.3 0-6.4-0.9-3.3-0.9-5.2-1.8-5.7-2.8-0.1-0.3-0.2-0.7-0.2-1s0.1-0.7 0.2-1.4c0.1-0.6 0.2-1.2 0.2-1.6v-31.5c-2.2 4.3-5.1 14-8.6 29 0 0.1-0.1 0.3-0.1 0.6 0 0.5 0.1 1.2 0.2 2.2 0.2 0.9 0.3 1.6 0.3 2 0 1.4-0.1 2.4-0.2 2.8-0.2 0.9-0.7 1.5-1.5 1.7-0.5 0.1-1.3 0.2-2.5 0.2-6.1 0-10.2-1-12.5-3.1-0.3-0.3-0.5-0.9-0.4-1.8v-2l-4.6-14c-3.3-9.7-5.4-15.4-6.4-17.2v27.9c0 0.6 0.2 1.4 0.6 2.5 0.2 0.7 0.4 1.2 0.5 1.6s0.2 0.7 0.2 0.9c0.1 0.5 0.2 1 0.2 1.5v1.8c0 1.6-0.4 2.6-1 2.9-0.2 0.2-0.8 0.3-1.6 0.3z"/>
	<path class="st1" d="m135.3 94.2h-1.4c-0.6 0-1.2-0.1-1.8-0.1s-1.3-0.1-1.9-0.2-1.2-0.2-1.6-0.3c-1.9-0.4-3-0.9-3.4-1.4-0.2-0.2-0.3-0.5-0.3-0.8 0-0.2 0.1-0.6 0.2-1.1s0.2-0.8 0.2-1.1v-36.7c0-0.4 0.2-0.9 0.5-1.4 0.4-0.5 0.8-0.9 1.2-1.1 0.1 0 0.6-0.1 1.3 0 0.7 0 1.6 0.1 2.6 0.2s2 0.3 3.2 0.4c1.1 0.2 2.2 0.4 3.2 0.7 2.1 0.6 3.7 1.1 5 1.5 1.3 0.5 2 0.9 2.1 1.3 0.1 0.2 0.2 0.7 0.1 1.3-0.1 0.4-0.1 0.7-0.1 0.8v0.4c0 0.4 0 0.7 0.1 0.8l5 18.8c1-3.1 2.7-9.3 5.2-18.7 1.3-4.8 2.3-7.3 3.1-7.5h0.4 0.5c0.7 0 1.6 0.2 2.9 0.5 1.6 0.4 2.6 0.6 3.1 0.6l6.8 0.5c1.6 0.3 2.5 0.8 2.7 1.7 0.1 0.4 0.1 0.6 0.1 0.8 0 0.4-0.1 0.9-0.3 1.5s-0.3 1.1-0.3 1.4v31.6c0 0.4 0.2 0.9 0.6 1.5 0.5 0.7 0.7 1.2 0.6 1.6-0.2 1.4-0.6 2.2-1.2 2.4-0.8 0.2-2.4 0-4.8-0.6-0.7-0.2-1.3-0.4-2-0.5-0.7-0.2-1.4-0.3-2-0.5s-1.1-0.4-1.6-0.5c-0.4-0.2-0.7-0.3-0.8-0.5-0.1-0.3-0.1-0.5-0.1-0.8 0-0.2 0-0.6 0.1-1s0.1-0.8 0.1-1.2v-23.7c-1.6 3.1-3.7 10.2-6.4 21.4 0 0.1-0.1 0.2-0.1 0.4s0 0.4 0 0.7 0.1 0.6 0.1 1c0.1 0.4 0.2 0.7 0.2 0.9v0.5c0 1 0 1.7-0.1 2-0.1 0.7-0.5 1.1-1.1 1.3-0.2 0-0.5 0.1-0.8 0.1h-1c-2.2 0-4.2-0.3-6-0.9s-3.1-1.3-3.9-2.1c-0.2-0.2-0.4-0.7-0.4-1.3v-1.5c-1.4-4.2-2.6-7.7-3.5-10.4s-1.6-4.9-2.1-6.6-0.9-2.9-1.2-3.6c-0.3-0.8-0.5-1.3-0.7-1.6v20.5c0 0.2 0 0.5 0.1 0.8s0.2 0.7 0.3 1.1c0.4 1 0.6 1.6 0.6 1.8 0.1 0.3 0.2 0.7 0.2 1.1v1.4c0 1.1-0.3 1.8-0.7 2.2 0.1 0.1-0.3 0.2-0.8 0.2z"/>
	<path class="st1" d="m191.7 94.2h-1.4c-0.6 0-1.2-0.1-1.8-0.1s-1.3-0.1-1.9-0.2-1.2-0.2-1.6-0.3c-1.9-0.4-3-0.9-3.4-1.4-0.2-0.2-0.3-0.5-0.3-0.8 0-0.2 0.1-0.6 0.2-1.1s0.2-0.8 0.2-1.1v-36.7c0-0.4 0.2-0.9 0.5-1.4 0.4-0.5 0.8-0.9 1.2-1.1 0.1 0 0.6-0.1 1.3 0 0.7 0 1.6 0.1 2.6 0.2s2 0.3 3.2 0.4c1.1 0.2 2.2 0.4 3.2 0.7 2.1 0.6 3.7 1.1 5 1.5 1.3 0.5 2 0.9 2.1 1.3 0.1 0.2 0.2 0.7 0.1 1.3-0.1 0.4-0.1 0.7-0.1 0.8v0.4c0 0.4 0 0.7 0.1 0.8l5 18.8c1-3.1 2.7-9.3 5.2-18.7 1.3-4.8 2.3-7.3 3.1-7.5h0.4 0.5c0.7 0 1.6 0.2 2.9 0.5 1.6 0.4 2.6 0.6 3.1 0.6l6.8 0.5c1.6 0.3 2.5 0.8 2.7 1.7 0.1 0.4 0.1 0.6 0.1 0.8 0 0.4-0.1 0.9-0.3 1.5s-0.3 1.1-0.3 1.4v31.6c0 0.4 0.2 0.9 0.6 1.5 0.5 0.7 0.7 1.2 0.6 1.6-0.2 1.4-0.6 2.2-1.2 2.4-0.8 0.2-2.4 0-4.8-0.6-0.7-0.2-1.3-0.4-2-0.5-0.7-0.2-1.4-0.3-2-0.5s-1.1-0.4-1.6-0.5c-0.4-0.2-0.7-0.3-0.8-0.5-0.1-0.3-0.1-0.5-0.1-0.8 0-0.2 0-0.6 0.1-1s0.1-0.8 0.1-1.2v-23.7c-1.6 3.1-3.7 10.2-6.4 21.4 0 0.1-0.1 0.2-0.1 0.4s0 0.4 0 0.7 0.1 0.6 0.1 1c0.1 0.4 0.2 0.7 0.2 0.9v0.5c0 1 0 1.7-0.1 2-0.1 0.7-0.5 1.1-1.1 1.3-0.2 0-0.5 0.1-0.8 0.1h-1c-2.2 0-4.2-0.3-6-0.9s-3.1-1.3-3.9-2.1c-0.2-0.2-0.4-0.7-0.4-1.3v-1.5c-1.4-4.2-2.6-7.7-3.5-10.4s-1.6-4.9-2.1-6.6-0.9-2.9-1.2-3.6c-0.3-0.8-0.5-1.3-0.7-1.6v20.5c0 0.2 0 0.5 0.1 0.8s0.2 0.7 0.3 1.1c0.4 1 0.6 1.6 0.6 1.8 0.1 0.3 0.2 0.7 0.2 1.1v1.4c0 1.1-0.3 1.8-0.7 2.2 0.2 0.1-0.2 0.2-0.8 0.2z"/>
	<path class="st1" d="m246.6 84.1c0.1 0.5-0.2 1.4-0.8 2.7-0.7 1.4-1.1 2.5-1.1 3.4v1.6c-0.2 1.4-0.6 2.1-1.1 2.4-0.7 0.3-2.2-0.1-4.6-1.3-2.4-1.1-3.8-2-4.1-2.6-0.2-0.4 0.1-1.7 1-3.9 0.7-1.9 1.4-3.3 2-4.2 0.3-0.5 0.8-0.7 1.5-0.7-0.3 0 1.1 0.3 4.2 0.8 1.8 0.3 2.9 0.9 3 1.8z"/>
	<path class="st1" d="m263.8 84.1c0.1 0.5-0.2 1.4-0.8 2.7-0.7 1.4-1.1 2.5-1.1 3.4v1.6c-0.2 1.4-0.6 2.1-1.1 2.4-0.7 0.3-2.2-0.1-4.6-1.3-2.4-1.1-3.8-2-4.1-2.6-0.2-0.4 0.1-1.7 1-3.9 0.7-1.9 1.4-3.3 2-4.2 0.3-0.5 0.8-0.7 1.5-0.7-0.3 0 1.1 0.3 4.2 0.8 1.8 0.3 2.8 0.9 3 1.8z"/>
	<path class="st1" d="m280.9 84.1c0.1 0.5-0.2 1.4-0.8 2.7-0.7 1.4-1.1 2.5-1.1 3.4v1.6c-0.2 1.4-0.6 2.1-1.1 2.4-0.7 0.3-2.2-0.1-4.6-1.3-2.4-1.1-3.8-2-4.1-2.6-0.2-0.4 0.1-1.7 1-3.9 0.7-1.9 1.4-3.3 2-4.2 0.3-0.5 0.8-0.7 1.5-0.7-0.3 0 1.1 0.3 4.2 0.8 1.8 0.3 2.9 0.9 3 1.8z"/>
	<path class="st1" d="m322.6 93.9c-0.4 0-0.6 0-0.8-0.1-1-0.3-2.1-0.7-3.3-1.1-1.1-0.4-2.4-0.9-3.7-1.4-4.6-1.9-8.1-5.4-10.5-10.7-2.1-4.7-3.2-10.2-3.2-16.6 0-7.7 1.5-14.5 4.4-20.4 3.2-6.3 7.1-9.5 11.8-9.7 1.9-0.1 4.5 0.8 8 2.8s5.9 3.9 7 5.9c1.1 1.9 1.9 6.1 2.3 12.7 0.1 1.5-0.1 2.9-0.6 4.3-0.6 1.7-1.3 2.5-2.2 2.4-0.8-0.1-1.7-0.3-2.8-0.6s-2.2-0.6-3.4-1c-3-1-4.6-1.8-4.8-2.4-0.1-0.3-0.1-0.5-0.1-0.6 0-0.4 0.2-0.9 0.6-1.6 0.4-0.6 0.6-1.2 0.6-1.6 0.1-0.9 0.2-1.9 0.2-2.8 0.1-0.9 0.1-1.8 0.1-2.6 0-2.4-0.3-4.1-0.8-5-2.8 2-4.9 5.4-6.4 10.3-1.2 4.2-1.8 8.8-1.8 13.8 0 4 0.3 7.5 1 10.6s1.5 5 2.5 5.6c0.5 0.3 1.8-0.7 3.9-2.8s3.5-3.8 4.1-5.2c0.1-0.1 0.3-0.8 0.6-2.2 0.3-0.8 0.7-1.4 1.1-1.5 0.7-0.3 2.8 0.4 6.1 2s4.9 2.8 4.8 3.4c-0.1 1.2-0.6 2.1-1.3 2.8-1.3 2.8-3.4 5.8-6.2 8.8-2.8 2.9-5.3 4.5-7.2 4.5z"/>
	<path class="st1" d="m349.7 93.3c-1.3 0-3.2-0.3-5.5-0.9-2.4-0.6-3.7-1-4.1-1.4-0.3-0.3-0.4-0.7-0.4-1.3 0-0.2 0.1-0.5 0.2-0.8l0.6-0.9c0.2-0.3 0.4-0.5 0.6-0.8 0.2-0.2 0.2-0.4 0.2-0.5v-32.5c0-0.4-0.2-0.9-0.6-1.5s-0.5-1.1-0.4-1.5c0.3-1 1-1.6 2.2-1.9 0.7-0.2 2.5 0.1 5.2 0.8 3 0.7 4.6 1.5 4.9 2.3 0.2 0.5 0.1 1.3-0.2 2.3-0.5 1.7-0.8 2.6-0.8 2.8 0 0.6 0.1 1.1 0.3 1.7 0.7-2.3 1.7-4.4 2.9-6.2 1.5-2.2 3.1-3.3 4.6-3.3s3.6 0.6 6.1 1.8c2.3 1.1 3.8 2.1 4.4 2.9 0.5 0.6 0.9 2.3 1.4 5l3.3-6.1c1.6-2.4 3.1-3.6 4.5-3.6 1.6 0 3.6 0.6 6.2 1.7s4 2.1 4.3 2.9c1.3 2.9 2 14 2 33.1 0.4 1 0.6 1.9 0.6 2.7 0 1.4-0.5 2.4-1.6 2.9-0.4 0.1-1 0.2-1.8 0.2-1.5 0-3.4-0.3-5.7-0.8-2.2-0.5-3.6-1-4-1.4-0.2-0.3-0.3-0.6-0.3-0.9 0-0.5 0.3-1.3 1-2.5s1-2 1-2.5c0-18.4-0.1-27.7-0.4-27.8-0.7-0.2-2.3 1.7-4.5 5.5-2.5 4.3-3.8 8-3.8 11.2v13.7c0.3 1 0.5 1.8 0.5 2.5 0 1.1-0.6 2-1.8 2.7-0.4 0.1-1 0.2-1.8 0.2-1.5 0-3.4-0.3-5.7-0.8-2.2-0.5-3.6-1-4-1.4-0.2-0.2-0.3-0.4-0.3-0.7 0-0.5 0.3-1.3 1-2.5s1.1-2.1 1.1-2.7c0-18.4-0.1-27.7-0.4-27.8-0.7-0.2-2.3 1.9-4.8 6.3-2.7 4.7-4.1 8.2-4.1 10.6v13.1c0.6 0.6 0.9 1.4 0.9 2.2 0 1.8-0.8 3-2.4 3.6-0.1 0.2-0.3 0.3-0.6 0.3z"/>
	<path class="st1" d="m415.8 93.6c-1.8 0-4.2-0.6-7.1-1.7-3.1-1.1-5.2-2.3-6.2-3.6-2.7-3.5-4.1-8.3-4.1-14.6 0-5.9 1.2-11.1 3.6-15.5 2.6-4.9 5.9-7.4 9.8-7.5 1.4 0 3.1 0.3 5.2 1.1 2.6 1 4.6 2.3 6.2 4 0.5 0.5 0.9 1.7 1.2 3.8 0.5 2.1 0.7 4.3 0.7 6.6 0 3.2-0.5 5.4-1.5 6.6-4.8 1.5-9.7 2.4-14.7 2.6 0 2.3 0.2 4.7 0.8 7.2s1.3 3.8 2 3.8c0.9 0.1 2-0.7 3.4-2.3 1.1-1.3 1.8-2.4 2.2-3.4l0.6-2.1c0.2-0.7 0.5-1.5 0.7-2.2 0.8-0.1 2.3 0.3 4.4 1.1 2.2 0.8 3.5 1.6 3.8 2.2 0.4 0.7-0.5 2.8-2.7 6.2-2.4 3.6-4.8 6.1-7.1 7.5-0.2 0.1-0.6 0.2-1.2 0.2zm-7.1-24.1c2.1 0 3.7-0.6 5-1.5 0.7-0.6 1.1-2.9 1.1-7 0-1.7-0.1-2.6-0.3-2.7-0.8 0-1.9 1.2-3.4 3.8-1.4 2.6-2.2 5-2.4 7.4z"/>
	<path class="st1" d="m440.3 93.6c-1.7 0-3.5-0.3-5.2-1-2-0.7-2.9-1.6-2.9-2.7v-36.4c0-0.7 0.2-1.6 0.7-2.4 0.5-0.9 1-1.4 1.6-1.7 0.1 0 0.3-0.1 0.6-0.1 1.2 0 2.8 0.4 5 1.3 2.2 0.8 3.5 1.5 3.6 2.1 0.1 0.4 0.2 0.7 0.2 0.8 0 0.4-0.2 0.9-0.6 1.4-0.4 0.6-0.6 1.1-0.6 1.6v8.9l10.4-14.2c0.6-0.8 1.4-1.2 2.3-1.3 0.9 0 2.1 0.5 3.7 1.7 1.8 1.4 2.7 2.6 2.7 3.8 0 0.2-0.2 0.8-0.7 1.8s-1.4 2.2-2.6 3.7l-7.7 9.3 10.7 12c0.2 0.2 0.5 0.5 0.8 0.7s0.7 0.5 1.2 0.7c0.8 0.4 1.3 0.9 1.3 1.3 0.1 1-0.8 2.6-2.7 4.8-1.9 2.3-3.4 3.4-4.3 3.3-1-0.1-2.7-1.6-5-4.2-2.3-2.7-5.7-6.6-10.1-11.8v10.5c0 0.2 0.1 0.7 0.2 1.3s0.2 1 0.2 1.3c0.1 1.5-0.2 2.6-1 3.1-0.2 0.3-0.9 0.4-1.8 0.4z"/>
	<path class="st1" d="m497.7 94.4c-0.2 0.1-0.7 0-1.5-0.1-0.8-0.2-1.9-0.5-3.5-0.8-1.6-0.4-2.6-0.7-3.1-0.8-0.5-0.2-0.8-0.4-0.9-0.8-0.1-0.3-0.2-0.6-0.2-1v-0.9c0-0.4-0.1-0.7-0.1-1.1s-0.1-0.7-0.1-1v-0.7c-0.2-1.8-0.5-3.8-0.7-5.8-0.3-2.1-0.5-3.8-0.7-5.2-0.3-1.7-0.6-3.3-0.8-4.8-0.3-1.5-0.6-2.8-0.8-4-0.3-1.2-0.5-2.1-0.8-2.9-0.2-0.8-0.4-1.4-0.6-1.7-0.4 2.1-0.9 4.4-1.5 7.1s-1.4 5.7-2.3 8.9c-0.4 1.6-0.8 3.4-1.3 5.4-0.4 2-0.9 3.8-1.3 5.4l-0.4 2.5c-0.4 1-1 1.6-1.8 1.8-0.3 0.1-0.7 0-1.4-0.2-0.6-0.2-1.6-0.6-2.8-1.1-0.7-0.3-1.3-0.6-2-0.9s-1.3-0.6-1.9-0.9-1.1-0.6-1.4-0.9c-0.4-0.3-0.6-0.6-0.6-0.9 0-0.7 0.1-1.3 0.4-1.9s0.7-1.1 1-1.6l1.2-1.5c0.4-0.5 0.6-0.9 0.8-1.3 0.4-1.1 0.7-2.1 0.9-2.9 0.3-0.9 0.5-1.8 0.8-2.8s0.6-2 0.9-3.3c0.3-1.2 0.7-2.7 1.1-4.5 2.1-8.7 3.1-13.6 3.1-14.6v-3.4c0.1-1.5 0.7-2.4 1.7-2.6s3.5 0.3 7.6 1.3c3.9 1 6.1 1.9 6.7 2.6 0.2 0.4 0.3 0.9 0.3 1.5 0 0.7 0 1.1 0.1 1.3 1.1 3.4 2 6.5 2.8 9.3s1.4 5.2 1.9 7.4c1.2 5.3 2 11.2 2.5 17.6v0.4c0 0.2 0.1 0.4 0.1 0.8 0 0.2 0.1 0.5 0.1 0.7v0.6c-0.1 1.2-0.5 1.9-1.5 2.3z"/>
	<path class="st1" d="m532.9 93.6c-0.7 0.2-2.5-0.1-5.2-0.8-3-0.7-4.6-1.5-4.9-2.2-0.2-0.6-0.1-1.4 0.2-2.5 0.5-1.1 0.7-2 0.7-2.5 0-0.4-0.1-1-0.2-1.8-0.7 2.3-1.7 4.4-2.9 6.2-1.5 2.1-3.1 3.2-4.6 3.2s-3.6-0.5-6.2-1.6-4-2.1-4.3-2.9c-1.3-2.9-2-14-2-33.1-0.4-1-0.6-1.9-0.6-2.7 0-1.4 0.5-2.4 1.6-2.9 0.3-0.1 0.9-0.2 1.8-0.2 1.5 0 3.4 0.3 5.7 0.8 2.1 0.5 3.5 1 4 1.5 0.2 0.3 0.3 0.6 0.3 0.9 0 0.5-0.3 1.4-1 2.5s-1 1.9-1 2.5c0 18.4 0.1 27.7 0.4 27.8 0.7 0.2 2.3-1.9 4.9-6.4 2.7-4.5 4-8 4-10.4v-11.8c-0.6-0.6-0.9-1.4-0.9-2.2 0-1.9 0.8-3.1 2.4-3.7 0.3-0.1 0.6-0.1 0.8-0.1 1.3 0 3.1 0.3 5.5 0.9 2.5 0.6 3.8 1 4 1.3 0.3 0.5 0.5 0.9 0.5 1.4 0 0.2-0.1 0.5-0.2 0.8-0.2 0.3-0.3 0.6-0.6 0.9-0.2 0.3-0.4 0.5-0.6 0.8-0.2 0.2-0.2 0.4-0.2 0.5v31.2c0 0.3 0.2 0.8 0.5 1.5s0.5 1.2 0.5 1.5c-0.2 0.7-0.9 1.3-2.4 1.6z"/>
	<path class="st1" d="m591.6 93.6c-0.7 0.2-2.5-0.1-5.2-0.8-3-0.7-4.6-1.5-4.9-2.3-0.2-0.5-0.2-1.2 0.2-2.3 0.5-1.7 0.8-2.6 0.8-2.8 0-0.6-0.1-1.1-0.3-1.7-0.7 2.3-1.7 4.4-2.9 6.2-1.5 2.2-3.1 3.3-4.6 3.3s-3.6-0.6-6.1-1.8c-2.3-1.1-3.8-2.1-4.4-2.9-0.5-0.6-0.9-2.3-1.4-5l-3.3 6.1c-1.6 2.4-3.2 3.6-4.5 3.6-1.6 0-3.6-0.6-6.2-1.7s-4-2.1-4.3-2.9c-1.3-2.9-2-14-2-33.1-0.4-1-0.6-1.9-0.6-2.7 0-1.4 0.5-2.4 1.6-2.9 0.3-0.1 0.9-0.2 1.8-0.2 1.5 0 3.4 0.3 5.7 0.8 2.2 0.5 3.6 1 4 1.4 0.2 0.3 0.3 0.6 0.3 0.9 0 0.5-0.3 1.3-1 2.5s-1 2.1-1 2.5c0 18.4 0.1 27.7 0.4 27.8 0.7 0.2 2.3-1.7 4.5-5.5 2.5-4.2 3.8-8 3.8-11.2v-13.7c-0.3-1-0.5-1.8-0.5-2.5 0-1.1 0.6-2 1.8-2.7 0.3-0.1 0.9-0.2 1.8-0.2 1.5 0 3.4 0.3 5.7 0.8 2.2 0.5 3.6 1 4 1.4 0.2 0.2 0.3 0.4 0.3 0.7 0 0.5-0.3 1.3-1 2.5s-1 2.1-1 2.7c0 18.4 0.1 27.7 0.4 27.8 0.6 0.2 2.2-1.9 4.8-6.3 2.7-4.7 4.1-8.2 4.1-10.6v-13.1c-0.6-0.6-0.9-1.4-0.9-2.2 0-1.8 0.8-3 2.4-3.6 0.3-0.1 0.6-0.1 0.8-0.1 1.3 0 3.2 0.3 5.5 0.9 2.4 0.6 3.7 1 4.1 1.4 0.3 0.4 0.4 0.8 0.4 1.3 0 0.2-0.1 0.5-0.2 0.8l-0.6 0.9c-0.2 0.3-0.4 0.5-0.6 0.8-0.2 0.2-0.2 0.4-0.2 0.5v32.5c0 0.4 0.2 0.9 0.6 1.5s0.5 1.1 0.4 1.5c-0.6 0.8-1.3 1.5-2.5 1.7z"/>
	<path class="st1" d="m609.2 93.6c-1.7 0-3.5-0.3-5.2-1-2-0.7-2.9-1.6-2.9-2.7v-36.4c0-0.7 0.2-1.6 0.7-2.4 0.5-0.9 1-1.4 1.6-1.7 0.1 0 0.3-0.1 0.6-0.1 1.2 0 2.8 0.4 5 1.3 2.2 0.8 3.5 1.5 3.6 2.1 0.1 0.4 0.2 0.7 0.2 0.8 0 0.4-0.2 0.9-0.6 1.4-0.4 0.6-0.6 1.1-0.6 1.6v8.9l10.4-14.2c0.6-0.8 1.4-1.2 2.3-1.3 0.9 0 2.1 0.5 3.7 1.7 1.8 1.4 2.7 2.6 2.7 3.8 0 0.2-0.2 0.8-0.7 1.8s-1.4 2.2-2.6 3.7l-7.7 9.3 10.7 12c0.2 0.2 0.5 0.5 0.8 0.7s0.7 0.5 1.2 0.7c0.8 0.4 1.3 0.9 1.3 1.3 0.1 1-0.8 2.6-2.7 4.8-1.9 2.3-3.4 3.4-4.3 3.3-1-0.1-2.7-1.6-5-4.2-2.3-2.7-5.7-6.6-10.1-11.8v10.5c0 0.2 0.1 0.7 0.2 1.3s0.2 1 0.2 1.3c0.1 1.5-0.2 2.6-1 3.1-0.3 0.3-0.9 0.4-1.8 0.4z"/>
	<path class="st1" d="m655.6 94.1c-0.7-0.2-1.5-0.4-2.5-0.6s-2.1-0.4-3.4-0.6c-1.9-0.2-3.6-0.6-5.2-1-2.7-0.7-4.8-3-6.4-6.8-1.4-3.5-2.2-7.7-2.2-12.5s0.7-9.1 2.2-13.1c1.7-4.2 4-7.3 7.1-9 0.5-0.3 1.2-0.4 2.1-0.4 0.5 0 1.2 0.1 2.1 0.2s2.1 0.4 3.4 0.7c1.6 0 3.9 0.3 6.9 0.8 2.6 1.2 4.5 3.6 6 7.4 1.3 3.4 1.9 7.3 1.9 11.9 0 6.3-1.1 11.8-3.2 16.4-2.2 4.8-5.2 7.1-8.8 6.6zm-4.4-7c1.4 0.4 2.8-1.3 4-5 1.1-3.5 1.7-7.5 1.7-11.8 0-2.5-0.3-4.8-0.9-7.1-0.8-3.5-2.1-5.2-3.9-5.2-1.3 0-2.5 1.5-3.5 4.6-1.1 3.1-1.6 6-1.6 8.8 0 1.7 0.1 3.3 0.3 5s0.5 3.3 0.9 4.9c0.8 3.6 1.9 5.5 3 5.8z"/>

</svg>
