<?xml version="1.0" encoding="UTF-8"?>
<svg enable-background="new 0 0 502.5 131.6" version="1.1" viewBox="0 0 502.5 131.6" xml:space="preserve" xmlns="http://www.w3.org/2000/svg">
<style type="text/css">
	.st0{fill:#CFD1D2;}
	.st1{fill:#231F20;}
</style>
	<path class="st0" d="m444.5 128.1h-363.2c-25.9 0.1-51.9 0.2-77.8 0.4 29.1-9.2 35.7-17.1 35.7-22.8 0.1-5.6-6.7-8.6-10.1-21.1-1.6-5.8-2.5-12-2.5-18.4 0.1-34 24.5-61.7 54.7-61.7h363.2c30.2 0 54.7 27.7 54.7 61.9-0.1 34.1-24.6 61.7-54.7 61.7z"/>
	<path class="st1" d="m99.7 93.6c-1.4 0-3.4-0.4-5.7-1.2-2.5-0.8-4.2-1.7-5-2.7-0.4-0.5-0.8-1.9-1.1-4.2-0.2-1.6-0.5-3-0.8-4.3s-0.6-2.4-0.9-3.5c-0.9 0.1-2 0.3-3.3 0.7-1.3 0.3-2.8 0.8-4.5 1.3-3.4 1-5.6 1.9-6.7 2.6-0.4 1-0.8 2.1-1.2 3.4-0.4 1.2-1 2.6-1.6 4.1-0.1 0.7-0.3 1.3-0.5 1.9s-0.6 1.1-1.2 1.4c-0.2 0.1-0.4 0.1-0.6 0.1-1.2 0-3.1-0.6-5.7-1.8-2.7-1.2-4-2-4.1-2.3-0.2-0.6 0.3-2.2 1.3-4.8 0.7-1.9 1.3-3.4 1.8-4.5 0.4-1.1 0.7-1.9 0.8-2.3-1-1-1.5-2-1.5-2.9 0-0.3 0-0.6 0.1-0.8 0-0.5 1.5-1.5 4.3-3l9-30.9c0.1-0.5 0.2-1.5 0.1-3.1 0-1.3 0.1-2.1 0.4-2.4 0.2-0.2 0.8-0.3 1.7-0.3 2.2 0 5.3 0.6 9.4 1.7s6.5 2.1 7.3 3c0.3 5.2 1.3 12.9 3.2 23.3 2.3 12.8 4.7 21.7 7.1 26.5l-0.3 3c-0.1 0.9-0.3 1.5-0.6 1.9-0.2 0.1-0.6 0.1-1.2 0.1zm-23.8-24.4c0.5-0.2 1.3-0.4 2.6-0.8 1.3-0.3 2.9-0.7 5-1.2-0.3-1.5-0.6-2.7-0.7-3.7-0.2-1-0.3-1.7-0.4-2.1-0.5-3.2-0.9-6.4-1.1-9.7-0.5 1.2-1 2.5-1.5 4.1s-1.1 3.4-1.8 5.4c-0.7 2.1-1.2 3.9-1.5 5.2-0.4 1.4-0.6 2.3-0.6 2.8z"/>
	<path class="st1" d="m120.7 94.1c-0.3 0-0.8-0.1-1.5-0.2s-1.5-0.3-2.4-0.5-1.8-0.4-2.7-0.7-1.7-0.5-2.4-0.9c-0.7-0.3-1.3-0.6-2-0.9s-1.2-0.6-1.8-0.8c-0.5-0.3-0.9-0.5-1.3-0.6-0.4-0.2-0.5-0.3-0.6-0.5v-0.2-0.2c0-0.2 0.1-0.5 0.2-0.8s0.2-0.5 0.2-0.7v-34.6c0-0.6 0.7-0.8 2.2-0.8h1.7c0.7 0 1.3 0.1 1.5 0.2 0.8-0.3 1.7-0.7 2.8-1s2.2-0.6 3.3-0.8 2.2-0.4 3.3-0.5 2.1-0.2 2.9-0.2c0.5 0 1.1 0 1.9 0.1 0.7 0.1 1.5 0.2 2.2 0.3s1.4 0.3 2 0.6 1.1 0.6 1.3 0.9c0.7 1 1.1 1.6 1.3 1.8l1.7 1.4c0.7 0.5 1.1 1 1.2 1.6 0.1 0.4 0.2 0.9 0.2 1.3 0 2.7-1.8 5.6-5.4 8.8 3.6 2.7 5.7 5.2 6.1 7.5v0.8 0.7c0 2.8-1.2 5.8-3.6 9.2-2 2.7-4.4 5-7.1 7.1-2.5 1.9-4.3 2.8-5.2 2.6zm-4.2-27.5c1.1-0.9 2.2-1.8 3.4-2.6 1.2-0.9 2.1-1.8 2.9-2.7 1.6-1.7 2.3-2.8 2-3.4-0.1-0.1-0.3-0.2-0.6-0.2-0.4 0-0.9 0.1-1.5 0.2s-1.4 0.4-2.2 0.8-1.7 0.8-2.5 1.3-1.3 0.9-1.6 1.3v5.3zm0 19.2c1.1-0.3 2.3-1 3.6-1.9s2.5-2.2 3.6-3.8c2.2-3.1 3.2-5.7 2.9-7.8-0.9 0.1-2.4 0.5-4.5 1.3-1.2 0.5-2.3 0.9-3.3 1.4s-1.8 0.9-2.3 1.3v9.5z"/>
	<path class="st1" d="m150.9 93.3c-1.3 0-3.1-0.3-5.5-0.9s-3.7-1-4.1-1.4c-0.3-0.3-0.4-0.7-0.4-1.3 0-0.2 0.1-0.5 0.2-0.8 0.2-0.3 0.3-0.6 0.6-0.9 0.2-0.3 0.4-0.5 0.6-0.8 0.2-0.2 0.2-0.4 0.2-0.5v-32.5c0-0.4-0.2-0.9-0.6-1.5s-0.5-1.1-0.4-1.5c0.3-1 1-1.6 2.2-1.9 0.7-0.2 2.5 0.1 5.2 0.8 3 0.7 4.6 1.5 4.9 2.3 0.2 0.5 0.1 1.3-0.2 2.3-0.5 1.7-0.8 2.6-0.8 2.8 0 0.6 0.1 1.1 0.3 1.7 0.7-2.3 1.7-4.4 2.9-6.2 1.5-2.2 3.1-3.3 4.6-3.3s3.6 0.6 6.1 1.8c2.3 1.1 3.8 2.1 4.4 2.9 0.5 0.6 0.9 2.3 1.4 5l3.3-6.1c1.6-2.4 3.1-3.6 4.6-3.6 1.6 0 3.6 0.6 6.2 1.7s4 2.1 4.3 2.9c1.3 2.9 2 14 2 33.1 0.4 1 0.6 1.9 0.6 2.7 0 1.4-0.5 2.4-1.6 2.9-0.4 0.1-1 0.2-1.8 0.2-1.5 0-3.4-0.3-5.7-0.8-2.2-0.5-3.6-1-4-1.4-0.2-0.3-0.4-0.6-0.4-0.9 0-0.5 0.4-1.3 1-2.5 0.7-1.2 1.1-2 1.1-2.5 0-18.4-0.1-27.7-0.4-27.8-0.7-0.2-2.3 1.7-4.5 5.5-2.5 4.3-3.8 8-3.8 11.2v13.7c0.3 1 0.5 1.8 0.5 2.5 0 1.1-0.6 2-1.8 2.7-0.4 0.1-1 0.2-1.8 0.2-1.5 0-3.4-0.3-5.7-0.8-2.2-0.5-3.6-1-4-1.4-0.2-0.2-0.3-0.4-0.3-0.7 0-0.5 0.3-1.3 1-2.5s1-2.1 1-2.7c0-18.4-0.1-27.7-0.4-27.8-0.7-0.2-2.3 1.9-4.8 6.3-2.7 4.7-4.1 8.2-4.1 10.6v13.1c0.6 0.6 0.9 1.4 0.9 2.2 0 1.8-0.8 3-2.4 3.6 0 0.2-0.3 0.3-0.6 0.3z"/>
	<path class="st1" d="m218.6 94.1c-0.7-0.2-1.5-0.4-2.5-0.6s-2.1-0.4-3.4-0.6c-1.9-0.2-3.6-0.6-5.2-1-2.7-0.7-4.8-3-6.4-6.8-1.4-3.5-2.2-7.7-2.2-12.5s0.7-9.1 2.2-13.1c1.7-4.2 4-7.3 7.1-9 0.5-0.3 1.2-0.4 2.1-0.4 0.5 0 1.2 0.1 2.1 0.2s2.1 0.4 3.4 0.7c1.6 0 3.9 0.3 6.9 0.8 2.6 1.2 4.5 3.6 5.9 7.4 1.3 3.4 1.9 7.3 1.9 11.9 0 6.3-1.1 11.8-3.2 16.4-2.2 4.8-5.2 7.1-8.7 6.6zm-4.4-7c1.4 0.4 2.8-1.3 4-5 1.1-3.5 1.7-7.5 1.7-11.8 0-2.5-0.3-4.8-0.9-7.1-0.8-3.5-2.1-5.2-3.9-5.2-1.3 0-2.5 1.5-3.5 4.6-1.1 3.1-1.6 6-1.6 8.8 0 1.7 0.1 3.3 0.3 5s0.5 3.3 0.9 4.9c0.8 3.6 1.8 5.5 3 5.8z"/>
	<path class="st1" d="m246.7 108c-1.1 0-2.8-0.3-5.1-1-0.6-0.2-1.3-0.5-2-0.7s-1.4-0.4-2-0.7c-1.2-0.3-1.8-1-2-2.2-0.1-0.6 0.1-1.5 0.5-2.7 0.5-1.3 0.7-2 0.7-2.3v-45.5c0-1.5-0.1-2.5-0.4-2.9-0.7-1.2-0.9-2-0.6-2.4 0.2-0.4 0.8-0.6 1.8-0.6s2.6 0.2 4.8 0.6c2.6 0.5 3.9 0.8 4 0.8 0.8 0.1 1.4 0.7 1.8 1.7 0 0.1 0.1 0.4 0.1 1 0 1.9-0.3 4.8-0.8 8.5l3.4-6.7c1.5-2.8 2.8-4.2 4.2-3.9 9.2 1.9 13.8 7.6 13.8 17.1 0 5.3-1.5 10.7-4.4 16.2-2.9 5.4-6.1 8.9-9.4 10.5-0.6 0.2-1 0.3-1.3 0.3-1.2 0-3.3-1.4-6.1-4.3v13.5c0.1 0.5 0.3 1.1 0.6 2 0.4 1 0.6 1.8 0.6 2.2-0.3 1-0.9 1.5-2.2 1.5zm1-22.5c2.7-1.2 5.1-3.8 7.1-7.7 2.2-4 3.2-7.7 3.2-11.1 0-4-1.6-6.1-4.7-6.5-1.6-0.1-3.5 8.3-5.6 25.3z"/>
	<path class="st1" d="m318.6 70c-0.7 0.2-1.4 0.3-2.3 0.3-0.3 0-1-0.1-2.1-0.4s-1.9-0.4-2.6-0.4h-10.7c-0.5 0-1.1 0.2-1.8 0.7s-1.3 0.7-1.8 0.7c-0.9-0.1-1.7-0.6-2.2-1.6-0.6-1-1.1-1.9-1.6-2.8-0.5-0.7-1-1.3-1.6-2.1-0.5-0.7-0.8-1.3-0.8-1.7 0-0.8 0.2-1.6 0.8-2.3s1.2-1.1 1.9-1.3c0.9 0 2.4 0.1 4.5 0.1 1.8-0.1 3.5-0.3 5.2-0.3 3.7-0.2 6.7-0.4 8.9-0.4 2.6 0 4.1 0.2 4.6 0.5 0.8 0.7 1.6 2 2.2 4.1 0.6 1.9 0.8 3.5 0.8 4.8-0.1 1-0.6 1.8-1.4 2.1z"/>
	<path class="st1" d="m356.2 94.1c-0.7-0.1-1.7-0.4-2.9-0.9s-2.7-1.2-4.5-2.2c-3.5-1.9-5.4-3.2-5.7-3.9-0.1-0.3-0.1-0.5-0.1-0.6 0-0.3 0.1-0.6 0.2-1.1 0.2-0.4 0.2-0.8 0.2-1l0.1-42.2c0-0.6-0.1-1.3-0.4-2.1-0.4-1.1-0.6-1.9-0.6-2.3 0-0.2-0.1-0.6 0-1s0.2-0.8 0.6-1.3c0.2-0.2 0.5-0.4 1-0.6s0.9-0.3 1.4-0.4 0.9-0.2 1.3-0.2h0.8c0.7 0.1 1.8 0.5 3.3 1.1 1.7 0.7 3.1 1 4.1 1 0.3 0 0.8 0 1.4-0.1s1.3-0.2 2-0.3c0.7-0.2 1.4-0.4 2.2-0.6 0.7-0.2 1.4-0.5 1.9-0.8 2.1-1.2 3.4-1.7 3.8-1.5 1.1 0.3 2.8 1.6 5 3.7 2.2 2 3.4 3.5 3.6 4.4 0.1 0.4-0.4 1.1-1.3 2.2-0.9 1-1.7 1.5-2.3 1.5-0.5 0-0.9-0.1-1.1-0.2s-0.4-0.2-0.5-0.1c-0.4-0.2-0.9-0.3-1.6-0.3-0.6 0-1.3 0.1-2 0.3-0.7 0.1-1.3 0.3-2 0.5s-1.1 0.4-1.5 0.5c-1.7 0.6-3.2 1.1-4.4 1.4s-2.2 0.9-3 1.7l-0.3 8.8c2.5-0.5 4.9-1 7.4-1.6 2.5-0.5 4.7-0.8 6.7-0.8 1.5 0 2.8 0.4 3.9 1.3s2 1.9 2.7 3.1 1.2 2.4 1.6 3.7 0.6 2.3 0.7 3c0 0.4 0.1 0.7 0.1 1v1.1c0 3.8-1.7 8-5 12.5-2.6 3.5-5.9 6.8-9.8 9.7-3.4 2.5-5.8 3.7-7 3.6zm-0.9-11.5c3-0.8 6-3.4 9-7.7 2.9-4.3 4.3-7.9 4-10.8-1.3 0.1-3.4 0.7-6.2 1.8-3 1.2-5.3 2.5-6.8 3.7v13z"/>
	<path class="st1" d="m405.9 93.5c-1 0.1-2.1 0-3.3-0.4-1.2-0.3-2.4-0.7-3.6-1.1-0.7-0.2-1.6-0.4-2.7-0.8-1.1-0.3-2.4-0.7-3.9-1.3-3.8-1.6-6.6-4.9-8.5-9.7-1.7-4.2-2.5-9.4-2.5-15.4 0-4.9 0.8-10.6 2.5-17.2 2.3-8.8 5.3-13.2 8.9-13.2 0.3 0 0.8 0.1 1.4 0.2 0.6 0.2 1 0.3 1.4 0.3 3.4-1 5.6-1.5 6.7-1.5h0.7c0.2 0 0.5 0 0.7 0.1 5.6 0.7 10 4.2 13.2 10.5 2.9 5.7 4.3 12.5 4.3 20.4 0 7.4-1.3 13.8-3.9 19.2-2.8 6.1-6.6 9.3-11.4 9.9zm-5.2-8.7c2.5 0.5 4.5-2.1 6.1-7.8 1.4-5 2-10.9 2-17.6 0-4.6-0.4-8.4-1-11.6-0.8-3.4-1.8-5.3-3.2-5.6-1-0.3-2 1.1-3.1 4.1-1 3-2 4.5-3 4.5-0.2 0-0.6-0.1-1-0.4s-0.8-0.4-1.1-0.5c-1.6 3.5-2.4 8.4-2.4 15 0 5 0.5 9.4 1.6 13.1 1.3 4.2 2.9 6.4 5.1 6.8z"/>
	<path class="st1" d="m437.2 95c-2.7-1.2-4.9-2.5-6.7-4-2-1.6-3-3-3-4.3v-43.5c0-2.5 0.4-4.3 1.1-5.4s1.6-1.8 2.7-2.1 2.2-0.2 3.4 0.2 2.3 0.9 3.3 1.5l8.4-3.1c0.6-0.1 1.3-0.4 2-0.7s1.5-0.6 2.2-0.9c0.3 0 0.6 0 1.1 0.3 0.4 0.2 0.9 0.5 1.3 0.9 0.4 0.3 0.8 0.7 1.2 1.1l0.8 0.8c0.8 0.9 1.5 1.7 2.1 2.3s1 1.1 1.2 1.6c0.3 0.5 0.3 0.9 0.2 1.4s-0.4 1.1-0.9 1.9c-0.7 1-1.5 1.6-2.4 1.6-0.3 0-0.7 0-1.3-0.2s-0.9-0.3-1.2-0.3c-0.8 0-2.8 0.7-6 2-3.5 1.5-6 2.8-7.5 4v36.9c0 0.4 0.2 0.9 0.7 1.5s0.7 1.2 0.7 1.9c0.2 2.6-1 4.1-3.4 4.6z"/>
	<path class="st1" d="m472.7 71.2c-0.1 1.7-0.5 2.7-1.3 2.9-0.2 0-0.5 0.1-0.7 0.1-1.4 0-3.1-0.5-5.1-1.6-2.1-1.1-3.7-2.4-5-3.8-0.6-0.6-0.6-1.7 0-3.4 0.6-1.6 0.8-2.5 0.8-2.5v-26.5c0-1.2 0.7-2.1 2.1-2.5 0.3-0.1 0.7-0.1 1.2-0.1 1.3 0 2.8 0.3 4.5 0.8 1.7 0.6 2.7 1.2 3.2 1.8 0.1 0.1 0.1 1.4 0.1 3.8v28.6c0 0.3 0 0.7 0.1 1.2s0.1 0.9 0.1 1.2zm0 10.2c0.1 0.4 0.1 1.6 0 3.4-0.2 2.4-0.3 3.9-0.3 4.5 0 1.9-0.1 3.3-0.3 4.3s-0.8 1.6-1.8 1.8c-0.6 0.1-2.2-0.3-4.8-1.4-2.8-1.2-4.5-2.2-5-3-0.3-0.5-0.2-1.4 0.4-2.5 0.3-0.5 0.4-1.4 0.5-2.6-0.1-1-0.1-3 0-5.9 0.2-1.7 0.9-2.5 2.1-2.5 1.3 0.1 3.1 0.6 5.5 1.6 2.3 1 3.5 1.8 3.7 2.3z"/>

</svg>
