<?xml version="1.0" encoding="UTF-8"?>
<svg enable-background="new 0 0 351 131.6" version="1.1" viewBox="0 0 351 131.6" xml:space="preserve" xmlns="http://www.w3.org/2000/svg">
<style type="text/css">
	.st0{fill:#D0D2D3;}
	.st1{fill:#231F20;}
</style>
	<path class="st0" d="m292.6 128.2h-211.2c-25.9 0.1-51.9 0.2-77.8 0.4 29.1-9.2 35.7-17.1 35.7-22.8 0.1-5.6-6.7-8.6-10.1-21.1-1.6-5.8-2.5-12-2.5-18.4 0.1-34.1 24.5-61.8 54.7-61.8h211.2c30.2 0 54.7 27.7 54.7 61.9-0.1 34.1-24.6 61.8-54.7 61.8z"/>
	<path class="st1" d="m76.4 99c-0.5 0.1-2.2-0.2-5.2-1-3.2-0.8-5.1-1.4-5.5-1.9-1.1-0.9-1.6-1.8-1.6-2.6 0-0.2 0.1-0.4 0.3-0.7 0.2-0.2 0.3-0.7 0.3-1.3v-41.6c0-0.1-0.2-0.2-0.5-0.2s-0.7-0.2-1.1-0.4-0.8-0.6-1.1-1c-0.4-0.5-0.6-1.1-0.6-2 0-0.6-0.1-1.4-0.4-2.1-0.3-0.8-0.5-1.5-0.8-2.2s-0.5-1.3-0.6-1.9c-0.2-0.5-0.1-0.9 0.1-1.2 0.1-0.1 0.9-0.4 2.4-0.7s3.4-0.6 5.6-1c2.2-0.3 4.6-0.7 7.2-1.1s5-0.7 7.3-1 4.2-0.6 5.8-0.8 2.6-0.4 2.9-0.4c0.6-0.1 1.1-0.2 1.6-0.2s1-0.1 1.6-0.1c1.2-0.2 2.8 0.2 4.8 1 2.2 0.9 3.4 1.7 3.6 2.5v1.6c-0.1 0.9-0.2 1.5-0.3 1.8-0.1 0.2-0.2 0.5-0.3 0.9s-0.5 0.6-0.5 1.1c0 0.4 0 0.8-0.1 1.1v0.7 46c0 0.1 0.1 0.3 0.2 0.7s0.3 1.1 0.6 2.1c0.5 3.2 0.1 5.1-1.1 5.6-0.3 0.1-0.7 0.1-1.1 0.1-1.8 0-4.1-0.6-6.8-1.9-2.9-1.2-4.7-2.5-5.4-3.9l-0.2-2c0-0.2 0-0.4 0.1-0.6 0.1-0.3 0.3-0.5 0.4-0.8 0.2-0.2 0.3-0.5 0.5-0.7 0.1-0.2 0.2-0.3 0.2-0.5v-42.3c-1.9 0.5-3.8 0.8-5.6 0.9s-3.7 0.6-5.6 1.3v42.7c0 0.6 0.2 1.1 0.5 1.6s0.5 0.9 0.5 1.2c-0.3 3.2-0.9 5-2.1 5.2z"/>
	<path class="st1" d="m121 99c-1 0.1-2.9-0.5-5.8-1.9-3.2-1.5-5.2-2.7-5.8-3.8-0.5-0.6-0.5-1.7 0-3.2 0.3-1 0.5-1.8 0.5-2.5v-46.2c0-0.2 0-0.4-0.1-0.7s-0.2-0.6-0.3-1c-0.1-0.3-0.2-0.7-0.3-1s-0.1-0.6-0.1-0.7c0.3-2.4 1.2-3.6 2.7-3.6 0.2 0 1.2 0.3 3 0.9s3.2 0.9 4.3 0.9c0.8 0.1 1.6 0 2.5-0.3 0.9-0.2 2-0.5 3.2-0.9 2.4-0.8 4.1-1.3 5.1-1.3 0.6 0 1.2 0.1 1.8 0.2 1.1 0.3 2.3 1.1 3.6 2.2 0.8 0.7 1.4 1.3 2 1.7 0.5 0.4 1 0.7 1.3 0.9 4.8 2.6 7.2 6.9 7.2 13.1 0 4.5-1.8 10.2-5.3 17.1-4 7.7-8 11.5-12.1 11.5-0.8 0-1.7-0.4-2.7-1.2s-1.9-1.5-2.9-2.3v12.8c0 0.6 0.1 1.4 0.4 2.2 0.3 1.2 0.6 2 0.7 2.5 0.1 0.6-0.1 1.3-0.6 2.4-0.7 1.5-1.4 2.1-2.3 2.2zm1.6-30.3c2.7-0.8 5.2-3.9 7.7-9.2 2.2-4.8 3.3-8.9 3.3-12.2 0-1.8-0.5-2.6-1.4-2.6-1.2 0-2.8 0.6-4.8 1.9-2.1 1.3-3.6 2.7-4.7 4.1v18h-0.1z"/>
	<path class="st1" d="m174.2 97.8c-1 0.1-2.2 0-3.5-0.4s-2.6-0.8-3.8-1.2c-0.8-0.2-1.7-0.5-2.9-0.8s-2.6-0.8-4.2-1.3c-4-1.8-7.1-5.2-9.1-10.3-1.8-4.5-2.7-10.1-2.7-16.5 0-5.2 0.9-11.4 2.7-18.4 2.5-9.4 5.7-14.1 9.5-14.1 0.3 0 0.8 0.1 1.5 0.3 0.6 0.2 1.1 0.3 1.5 0.3 3.6-1.1 6-1.6 7.1-1.6h0.8s0.5 0 0.8 0.1c6 0.8 10.7 4.5 14.2 11.2 3.1 6.1 4.6 13.4 4.6 21.8 0 7.9-1.4 14.8-4.2 20.6-3 6.3-7.1 9.7-12.3 10.3zm-5.5-9.3c2.7 0.6 4.9-2.2 6.5-8.3 1.5-5.4 2.2-11.7 2.2-18.9 0-4.9-0.4-9-1.1-12.4-0.9-3.6-2-5.7-3.4-6-1.1-0.3-2.2 1.2-3.3 4.4-1 3.3-2.1 4.9-3.2 4.9-0.3 0-0.6-0.1-1.1-0.4s-0.9-0.4-1.2-0.5c-1.7 3.7-2.5 9.1-2.5 16 0 5.4 0.6 10 1.7 14 1.2 4.4 3 6.8 5.4 7.2z"/>
	<path class="st1" d="m203.7 105h-1.5c-0.6-0.1-1.2-0.1-1.9-0.2s-1.3-0.2-1.9-0.3-1.2-0.3-1.6-0.4c-0.6-0.1-1.2-0.3-1.8-0.5-0.7-0.2-1.2-0.4-1.8-0.6-0.5-0.2-1-0.5-1.4-0.8s-0.6-0.6-0.6-0.9c0-0.4 0-0.7 0.1-0.9s0.3-0.6 0.5-1.1c0.2-0.6 0.4-1.3 0.6-2.2s0.4-1.7 0.5-2.6 0.3-1.7 0.3-2.4c0.1-0.7 0.1-1.3 0.1-1.7 0-0.5 0.1-1 0.1-1.5s0-1 0-1.5 0-0.9 0.1-1.3 0.2-0.7 0.4-0.9l0.1-0.1c0.1-0.1 0.3-0.2 0.6-0.3l0.8-0.1c0.9-0.3 1.8-0.8 2.7-1.6 0.8-0.8 1.6-1.8 2.2-3.1 0.4-1.4 0.8-2.5 1.1-3.6 0.3-1 0.6-2.1 0.9-3.2s0.6-2.4 1-3.9 0.9-3.3 1.4-5.6c3-12.3 4.5-19.2 4.4-20.8 0-0.1 0-1.2-0.2-3.5-0.1-1.1 0.1-2.2 0.5-3.2 0.5-1.2 1.2-1.9 2-2 1.5-0.3 4.4 0.3 8.8 1.6 2.2 0.7 4 1.4 5.4 2s2.2 1.2 2.6 1.7c0.3 0.5 0.5 1.2 0.5 1.9l0.2 2c1.8 7.9 3.6 15.1 5.2 21.7s3.1 13 4.4 19.2c1.2 0.1 2.2 0.3 2.8 0.7s1.1 1 1.3 1.7c0.2 0.8 0.4 1.7 0.4 2.8s0 2.4-0.1 3.9c-0.1 2.7-0.2 4.8-0.1 6.3 0.1 1.4 0.2 2.5 0.2 3.3s0 1.3-0.1 1.5c-0.1 0.3-0.5 0.6-1.1 0.9-0.7 0.4-1.6 0.5-2.7 0.2s-2.1-0.6-2.9-0.9c-0.6-0.2-1.2-0.5-1.9-0.7s-1.4-0.4-2-0.6c-0.7-0.2-1.2-0.4-1.6-0.7-0.5-0.3-0.7-0.6-0.8-0.9-0.1-0.4 0-1 0.3-1.8 0.2-0.8 0.4-1.4 0.5-2s-0.1-1-0.7-1.2c-0.6-0.3-1.3-0.5-2.1-0.6-0.9-0.1-1.8-0.2-2.8-0.2s-1.9 0-2.7 0l-11.7 0.1h-4c-0.9 0.7-1.4 1.5-1.6 2.3-0.1 0.8-0.3 1.7-0.3 2.7 0.1 0.2 0.2 0.6 0.2 1s0 0.8-0.1 1.2-0.2 0.8-0.5 1c0 0.6-0.3 0.7-0.7 0.7zm21.5-20.7c-0.4-2.1-0.9-4-1.3-5.5-0.5-1.5-0.9-3.1-1.1-4.8-1.6-9.5-2.8-15.2-3.8-17.1-0.8 4.6-2.3 10.6-4.5 17.8-0.4 1.2-0.6 2.1-0.8 3-0.2 0.8-0.4 1.6-0.6 2.3s-0.4 1.4-0.7 2c-0.3 0.7-0.7 1.4-1.2 2.2l14 0.1z"/>
	<path class="st1" d="m266 99.6c-1.5 0-3.4-0.4-5.7-1.3s-3.9-1.7-4.8-2.5-1.3-1.6-1.3-2.5c0-0.8 0.4-1.8 1.2-3.2 0.4-0.6 0.7-1.2 0.9-1.5s0.4-0.7 0.4-0.9l2.9-9.6-13.8-33.8c-0.1-0.2-0.6-0.7-1.6-1.7-0.4-0.4-0.7-0.9-0.9-1.4s-0.4-1.2-0.5-2c-0.1-0.7 1.4-1.9 4.4-3.6 3-1.8 5.5-2.6 7.3-2.6 0.5 0 0.8 0.1 1 0.3 0.9 0.5 1.7 1.4 2.1 2.8 0.1 0.7 0.2 1.3 0.4 1.9s0.3 1.2 0.5 1.8l7.5 20.6 8-21.2c0.3-1.1 0.7-2.3 1.1-3.4s1-1.8 1.8-2.1c0.5-0.2 1.1-0.2 1.9-0.2 0.9 0 1.9 0.1 3 0.3 1 0.2 2.1 0.6 3.3 1 2.1 0.8 3.4 1.7 3.8 2.5 0 0.3 0.1 0.5 0.1 0.6v0.6c0 0.9-0.4 1.9-1.3 3-1.1 1.2-1.7 2.2-1.9 2.7l-17 48.8-0.3 3.4c-0.3 1.8-0.9 2.8-1.7 3.1-0.1 0-0.2 0.1-0.4 0.1h-0.4z"/>
	<path class="st1" d="m304.3 74c-0.1 1.8-0.6 2.9-1.4 3.1-0.2 0.1-0.5 0.1-0.8 0.1-1.5 0-3.3-0.6-5.5-1.7s-4-2.5-5.4-4.1c-0.6-0.6-0.6-1.8 0-3.6 0.6-1.7 0.9-2.6 0.9-2.7v-28.5c0-1.3 0.8-2.2 2.2-2.7 0.3-0.1 0.7-0.1 1.3-0.1 1.4 0 3 0.3 4.8 0.9s2.9 1.3 3.4 2c0.1 0.2 0.1 1.5 0.1 4v30.6c0 0.3 0 0.7 0.2 1.3 0.1 0.6 0.2 1 0.2 1.4zm0 10.9c0.1 0.4 0.1 1.7 0 3.7-0.2 2.6-0.3 4.2-0.3 4.8 0 2-0.1 3.5-0.3 4.7-0.2 1.1-0.8 1.7-1.9 1.9-0.6 0.2-2.3-0.3-5.2-1.5-3-1.2-4.8-2.3-5.4-3.2-0.3-0.5-0.2-1.4 0.4-2.7 0.3-0.5 0.5-1.5 0.5-2.8-0.1-1.1-0.1-3.2 0-6.3 0.2-1.8 0.9-2.7 2.2-2.6 1.4 0.1 3.3 0.7 5.8 1.7 2.6 0.9 4 1.7 4.2 2.3z"/>
</svg>
