<?xml version="1.0" encoding="UTF-8"?>
<svg enable-background="new 0 0 194.6 131.6" version="1.1" viewBox="0 0 194.6 131.6" xml:space="preserve" xmlns="http://www.w3.org/2000/svg">
<style type="text/css">
	.st0{fill:#CFD1D2;}
	.st1{enable-background:new;}
	.st2{fill:#231F20;}
</style>
	<path class="st0" d="m136 128.1h-54.2c-25.9 0.1-51.9 0.2-77.8 0.4 29.1-9.2 35.7-17.1 35.7-22.8 0.1-5.6-6.7-8.6-10.1-21.1-1.6-5.8-2.5-12-2.5-18.4 0.1-34 24.5-61.7 54.7-61.7h54.2c30.2 0 54.7 27.7 54.7 61.9-0.1 34.1-24.6 61.7-54.7 61.7z"/>
	<g class="st1">
	<path class="st2" d="m90.6 93.4c-0.8 0-1.8-0.1-2.9-0.4-1.1-0.2-2.2-0.5-3.3-0.9-1-0.4-1.9-0.9-2.7-1.5-0.7-0.6-1.1-1.2-1.1-1.9 0-0.6 0.1-1.4 0.3-2.4s0.5-2 0.9-2.9l-0.1-12.7c-1.2 0.6-2.5 1.2-3.9 1.8s-2.6 1.1-3.9 1.5c-1.2 0.4-2.3 0.8-3.3 1-1 0.3-1.6 0.4-2.1 0.4-1 0-2.1-0.3-3.3-1s-2.3-1.5-3.3-2.6c-1-1-1.8-2.2-2.5-3.6-0.7-1.3-1-2.7-1-4 0-2.5 0.3-5.4 0.8-8.5 0.6-3.2 1.4-6.3 2.6-9.5 0.1-0.5 0.4-1.3 0.8-2.6s0.8-2.8 1.1-4.6c0.1-1 0.3-1.9 0.5-2.6s0.4-1.3 0.8-1.7c0.3-0.4 0.7-0.8 1.3-0.9 0.5-0.2 1.2-0.3 2-0.3 0.5 0 1.2 0.2 2.3 0.6s2.1 0.8 3.2 1.4c1.1 0.5 2 1.1 2.8 1.8s1.2 1.3 1.2 1.8c0 0.6-0.2 1.2-0.5 1.9s-0.7 1.3-1.2 1.9c-0.4 0.6-0.8 1.1-1.2 1.6s-0.6 0.9-0.7 1.1c-1 2.6-1.7 4.7-2.2 6.4-0.5 1.6-0.9 3-1.1 4s-0.4 1.8-0.4 2.4v1.8c0 1.6 0.2 2.6 0.5 3s0.9 0.6 1.6 0.6 1.9-0.4 3.5-1.3 3.4-2.1 5.5-3.7v-8.4c0-3-0.1-5.8-0.2-8.4 0-0.5 0-1.1-0.1-2s-0.3-1.6-0.3-1.9c0-0.9 0.4-1.8 1-2.6 0.7-0.8 1.8-1.2 3.1-1.2 0.7 0 1.6 0.2 2.8 0.6s2.4 0.9 3.6 1.5 2.2 1.2 3 1.9c0.9 0.7 1.3 1.4 1.3 2 0 0.5-0.2 1-0.4 1.4s-0.5 0.7-0.8 1-0.5 0.6-0.7 0.8c-0.2 0.3-0.3 0.5-0.3 0.8-0.1 0.1-0.2 1-0.3 2.7s-0.2 4.2-0.3 7.6c0.3 0.5 0.7 1.2 1 2s0.6 1.6 0.9 2.4 0.5 1.5 0.6 2.2c0.2 0.7 0.2 1.2 0.2 1.5 0 0.5-0.3 0.9-0.9 1.3s-1.2 0.7-2 1.1v4.7s0 3.9 0 5.9c0 2.1 0 4.1 0.1 6.1 0 2 0.1 3.8 0.2 5.3 0 0.2 0 0.5 0.1 0.9 0 0.4 0.1 0.8 0.1 1.2s0.1 0.8 0.1 1.2 0.1 0.7 0.1 0.8c0 0.3-0.2 0.8-0.5 1.3-0.2 0.6-1.1 0.9-2.4 0.9z"/>
		<path class="st2" d="m117.5 93.6c-1.8 0-4.2-0.6-7.1-1.7-3.1-1.1-5.2-2.3-6.2-3.6-2.7-3.5-4.1-8.3-4.1-14.6 0-5.9 1.2-11.1 3.6-15.5 2.6-4.9 5.9-7.4 9.8-7.5 1.4 0 3.1 0.3 5.2 1.1 2.6 1 4.6 2.3 6.2 4 0.5 0.5 0.9 1.7 1.2 3.8 0.5 2.1 0.7 4.3 0.7 6.6 0 3.2-0.5 5.4-1.5 6.6-4.8 1.5-9.7 2.4-14.7 2.6 0 2.3 0.2 4.7 0.8 7.2s1.3 3.8 2 3.8c0.9 0.1 2-0.7 3.4-2.3 1.1-1.3 1.8-2.4 2.2-3.4l0.6-2.1c0.2-0.7 0.5-1.5 0.7-2.2 0.8-0.1 2.3 0.3 4.4 1.1 2.2 0.8 3.5 1.6 3.8 2.2 0.4 0.7-0.5 2.8-2.7 6.2-2.4 3.6-4.8 6.1-7.1 7.5-0.2 0.1-0.6 0.2-1.2 0.2zm-4.2-54.5c0.1 0.4-0.1 1.1-0.7 2.1-0.6 1.2-0.8 2.1-0.8 2.7v1.3c-0.2 1.1-0.5 1.7-0.9 1.9-0.6 0.2-1.8-0.1-3.7-1s-3-1.6-3.2-2.1c-0.2-0.3 0.1-1.4 0.8-3.2 0.6-1.5 1.1-2.6 1.6-3.4 0.2-0.4 0.6-0.6 1.2-0.6-0.3 0 0.8 0.2 3.4 0.7 1.3 0.4 2.2 0.9 2.3 1.6zm-2.9 30.4c2.1 0 3.7-0.6 5-1.5 0.7-0.6 1.1-2.9 1.1-7 0-1.7-0.1-2.6-0.4-2.7-0.8 0-1.9 1.2-3.4 3.8-1.3 2.6-2.2 5-2.3 7.4zm14.7-30.4c0.1 0.4-0.1 1.1-0.7 2.1-0.6 1.2-0.8 2.1-0.8 2.7v1.3c-0.2 1.1-0.5 1.7-0.9 1.9-0.6 0.2-1.8-0.1-3.7-1s-3-1.6-3.2-2.1c-0.2-0.3 0.1-1.4 0.8-3.2 0.6-1.5 1.1-2.6 1.6-3.4 0.2-0.4 0.6-0.6 1.2-0.6-0.3 0 0.8 0.2 3.4 0.7 1.3 0.4 2.1 0.9 2.3 1.6z"/>
		<path class="st2" d="m162 49.4c0.3 3.8-0.7 7.3-3.2 10.4-1.4 1.8-4 4.3-8 7.5-3.7 3-6.2 5.5-7.5 7.5-0.9 1.5-1.7 2.2-2.4 2-1.6-0.3-3.9-2.3-6.9-6-0.1-0.2-0.2-0.4-0.2-0.7 0-0.8 0.4-1.8 1.1-2.7 0.9-1.2 3.7-3.7 8.2-7.6 4.5-3.8 7.6-6.8 9.2-8.8 2.6-3.3 3.2-5.8 1.8-7.7-0.8-1.1-2.1-1.6-3.9-1.6-3.2 0-7.4 1.5-12.5 4.4-0.1 0-0.2 0.1-0.4 0.1-0.7 0-1.8-0.8-3.2-2.3-1.1-1.3-2.1-2.5-2.8-3.8-0.4-0.6-0.2-1.3 0.4-2.1s2.5-1.8 5.5-2.9c3.5-1.3 6.8-2 9.9-2 2.6 0 4.8 0.5 6.5 1.5 5 3.1 7.8 8 8.4 14.8zm-15.6 37.9c0.1 0.2 0.1 0.4 0.1 0.6 0 0.4-0.3 0.9-0.9 1.5s-1 1.2-1.1 1.6c-0.3 0.9-0.7 1.9-1 2.9-0.5 1.4-1.2 2.1-2 1.9-2-0.4-4.5-2.3-7.7-5.5-0.2-0.2-0.3-0.5-0.2-0.7l0.3-0.6c0.3-0.8 0.7-1.7 1.1-2.5 0.4-1.1 0.6-2.1 0.6-3 0-0.6 0.2-1.1 0.9-1.5 0.6-0.4 1.3-0.6 2.1-0.6 1.1 0 2.6 0.8 4.5 2.3 1.8 1.5 2.9 2.7 3.3 3.6z"/>
</g>
</svg>
