<?xml version="1.0" encoding="UTF-8"?>
<svg enable-background="new 0 0 150 131.6" version="1.1" viewBox="0 0 150 131.6" xml:space="preserve" xmlns="http://www.w3.org/2000/svg">
<style type="text/css">

		.st0{fill-rule:evenodd;clip-rule:evenodd;fill:#A1AABB;stroke:#5E687B;stroke-width:1.8481;stroke-linecap:round;stroke-linejoin:round;stroke-miterlimit:79.8403;}
	.st1{fill-rule:evenodd;clip-rule:evenodd;fill:#D1D4DB;}
	.st2{fill-rule:evenodd;clip-rule:evenodd;fill:#A1AABB;}
	.st3{fill:#474F5F;stroke:#464E5F;stroke-width:3.3806;stroke-linecap:round;stroke-linejoin:round;stroke-miterlimit:79.8403;}
	.st4{fill:#A1AABB;}
	.st5{fill:none;stroke:#464E5F;stroke-width:3.3621;stroke-linecap:round;stroke-linejoin:round;stroke-miterlimit:79.8403;}
	.st6{fill:none;stroke:#464E5F;stroke-width:4;stroke-linecap:round;stroke-linejoin:round;stroke-miterlimit:79.8403;}
	.st7{fill-rule:evenodd;clip-rule:evenodd;fill:#464E5F;stroke:#464E5F;stroke-width:1.2015;stroke-miterlimit:10;}
	.st8{fill:none;stroke:#464E5F;stroke-width:2.4334;stroke-linecap:round;stroke-linejoin:round;stroke-miterlimit:79.8403;}
	.st9{fill:none;stroke:#464E5F;stroke-width:2.7602;stroke-linecap:round;stroke-linejoin:round;stroke-miterlimit:79.8403;}
	.st10{fill:none;stroke:#464E5F;stroke-width:1.8251;stroke-linecap:round;stroke-linejoin:round;stroke-miterlimit:79.8403;}
</style>

	<path class="st0" d="m29.1 109.6c-0.5-0.9-0.9-1.7-1.1-2.2-1.9-3.8-9.4-7-13.2-4.3 0.5-2.3 2.9-4.6 4.7-5.9-3.4-2.8-7.1-5.3-10.3-8.3 0.5-0.4 4-1.1 4.7-1.1-4.4-2.4-9.4-4.8-13.4-7.5 0.4-0.5 6.4-1.2 7.4-1.4-1.7-0.6-5.8-3-7.1-4.4 1.3-1.6 7.9-2.6 10.1-3-1.9-0.5-6-1.3-6.4-3.2 1-1.1 2.9-1 4.3-1.9 9.9-6.1 13.3-12.1 19.6-22.8 7.2-12.4 28.1-17 44.5-17s38.7 4.6 46.1 17c6.4 10.8 9.7 16.8 19.9 22.9 1.4 0.8 3.4 0.8 4.3 1.9-0.4 2-4.6 2.8-6.4 3.2 2.2 0.4 8.8 1.6 10.1 3-1.3 1.4-5.3 4-7.1 4.4 1 0.2 7.1 1 7.4 1.4-4 2.6-8.9 5-13.3 7.4 0.7 0 4.2 0.7 4.7 1.1-3.1 2.8-6.7 5.4-10.1 8.3 1.1 1.4 3.4 1.7 4.1 2.4-3.1 2.5-9.3 1.3-12.7 7-0.3 0.5-0.5 0.9-0.6 1.1-2.4 4.8-18.5 17.9-44.7 18.5-25 0.6-42.5-11.2-45.5-16.6z"/>
	<path class="st1" d="m20.5 101.2-0.4-0.1c-1-0.1-2-0.1-3.1 0l-0.5 0.1 0.7-1c0.8-1 1.8-1.8 2.6-2.5 0.5-0.4 0.5-1.1 0-1.4-2.6-2.2-5.3-4.1-7.8-6.1l-1.2-1.1 0.7-0.1c0.8-0.2 1.8-0.4 2-0.4 1 0 1.3-1.3 0.5-1.7-3.4-1.8-6.8-3.6-10.1-5.4l-1.3-0.7h0.4c0.4-0.1 0.8-0.1 1.2-0.2 1.6-0.3 3.3-0.5 3.8-0.6 1-0.2 1-1.6 0.1-1.8-1.2-0.4-3.7-1.8-5.4-3l-0.6-0.6 0.7-0.4c0.7-0.2 1.7-0.6 2.8-0.8 2-0.5 4.2-0.8 5.3-1.1 1-0.1 1.1-1.6 0.1-1.8s-2.4-0.6-3.6-1.1c-0.7-0.2-1.2-0.5-1.6-0.8l-0.2-0.2 0.2-0.1c0.9-0.5 2.2-0.6 3.5-1.3 2.6-1.6 4.8-3.1 6.7-4.8l0.6-0.6-1.1 1.7c1.3 0 3.1-0.5 4.3-0.1-0.4 1.7-2.9 3.5-4 5 1.3 0.8 2.4 1.2 4 2.4l0.1 1.1c-1.6 1-4.7 2.8-6.1 3.5 2.3 1 5.2 3.1 6.8 4.8-0.2 0.5-4.7 3.2-5.4 3.7 1.9 1.3 5.2 2.8 7 4.2-1 0.6-3.2 0.8-4.1 2.2 2.9 0.7 5.2 2 7.6 2.8-0.5 1.3-3.2 5.2-5.2 8.3z"/>
	<path class="st1" d="m121.8 97.6c2.2-1.8 5.2-2 7.2-3.4-0.5-1.1-2.6-1.8-3.6-3.2 1.2-1.4 3-1.1 4.1-2.4-1.4-0.7-4.3-2-5.3-3.4 1.8-2.2 4.8-2.8 6.8-4.1 0-1.4-2.2-1-2.6-2.3 0.6-0.8 1.3-0.7 2.2-1.2-0.8-0.4-2.2-1.1-2.8-1.7 1.9-1 5.2-1.8 6.6-3-2.2-1.6-4.7-2.9-6.6-3.8 1.3-0.8 4.6-2.6 5-3.6-1.3-1.6-3.5-1.4-4.9-3 0.8-0.6 2.2-0.6 3.5-1h0.1l0.6 0.6c1.9 1.7 4.1 3.2 6.7 4.8 1.3 0.7 2.5 0.8 3.5 1.2l0.2 0.1-0.5 0.4c-1.2 0.8-3.6 1.3-4.9 1.7-1 0.2-0.8 1.7 0.1 1.8 1.1 0.1 3.2 0.6 5.3 1.1 1.1 0.2 2 0.6 2.8 0.8l0.7 0.4-0.5 0.5c-1.7 1.2-4.2 2.6-5.4 3-1 0.2-0.8 1.6 0.1 1.8 0.5 0.1 2.2 0.4 3.7 0.6 0.4 0.1 0.8 0.1 1.2 0.2l0.4 0.1-1.3 0.7c-3.2 1.9-6.8 3.7-10.1 5.4-0.8 0.5-0.5 1.7 0.5 1.7 0.2 0 1.2 0.1 2 0.4l0.7 0.1-1.2 1c-2.5 2-5 4-7.7 6.2-0.4 0.4-0.5 0.8-0.1 1.3 0.6 0.7 1.6 1.3 2.4 1.7l0.6 0.2-1.4 0.5-1.7 0.5-0.7-0.2c-2.1-0.4-3.9-1.4-5.7-2.5z"/>
	<path class="st0" d="m25.8 49.6c2.6-8.9 5.8-15.9 8.3-20.8 2-3.8 4.1-7.7 7.9-12.2 3.8-4.6 7.7-7.8 10.6-9.9 5.4 7.2 7.9 16.6 12.6 22.8-6.6 1.6-20.6 10.6-28.2 14-1.6 0.6-10.2 5.4-11.2 6.1z"/>
	<path class="st0" d="m121.3 49.6c-2.6-8.9-5.8-15.9-8.3-20.8-2-3.8-4.1-7.7-7.9-12.2-3.8-4.6-7.7-7.8-10.6-9.9-5.4 7.2-7.7 16.6-12.2 22.8 6.6 1.6 20.4 10.6 28 14 1.5 0.6 9.9 5.4 11 6.1z"/>
	<path class="st2" d="m44.3 34.9c16.4-9.4 21.2-8.5 23.9-5.1 3.8 4.6 5.4 10-14.8 23-13.2 6.7-26 8.2-28.5 3.2-2.5-4.7 6.1-14.3 19.4-21.1z"/>
	<path class="st2" d="m101.3 34.3c-22.3-10.2-21.9-5.9-24.7-1.1-3 5-5.4 5.7 15.6 15 13.2 6.7 27.5 10.6 30.1 5.7 2.3-4.8-7.9-12.9-21-19.6z"/>
	<path class="st1" d="m37.6 35.7c-0.3-2.9 7.9-18.7 11.8-18.6 2.8 0.1 9.1 11.7 8.5 13-7.1 0.7-15.2 4.8-20.3 5.6z"/>
	<path class="st1" d="m110.4 35.7c0.3-3-8.3-18.7-11.9-18.6-2.5 0.1-8.3 12.3-7.7 13.7 6.5 0.7 15 4.1 19.6 4.9z"/>


	<path class="st3" d="m46 85.5c2.9 12.9 14.5 22 27.6 21.7 12.6-0.2 23.7-9.2 26.5-21.7-7.9 1-16.9 1.7-26.7 1.7-10.1 0-19.3-0.7-27.4-1.7z"/>
	<path class="st4" d="m41.3 79.2c-1.2 4.1 10.1 15 23 13.2 8-1.1 16.4-7.2 15.5-11-1.7-7.1-36.6-8.6-38.5-2.2z"/>
	<path class="st4" d="m64.9 77.8c-1.2 4.1 10.1 15 23 13.2 8-1.1 16.4-7.2 15.5-11-1.7-7.1-36.6-8.6-38.5-2.2z"/>
	<path class="st5" d="m73.1 87.8c-6.9 8-20.6 4.7-27.1-2.3"/>
	<path class="st5" d="m100.1 85.5c-6.4 7-20.1 10.3-27.1 2.3"/>
	<path class="st6" d="m73.1 82v7.1"/>
	<path class="st7" d="m72.7 73.7c4.8 0 8.7 1.8 8.7 4.1s-3.8 4.1-8.7 4.1c-4.8 0-8.7-1.8-8.7-4.1s3.9-4.1 8.7-4.1z"/>
	<path class="st8" d="m106.8 88.8c5.3 1 10.1 2.9 13.5 7.2"/>
	<path class="st8" d="m107.3 84.6c5.3 0.5 10.1 1.7 14.9 3.7"/>
	<path class="st8" d="m40.1 88.8c-5.3 1-10.1 2.9-13.5 7.2"/>
	<path class="st8" d="m39.7 84.6c-5.3 0.5-10.1 1.7-14.9 3.7"/>


	<path class="st9" d="m40.5 64c1.7-10.7 10.8-16.4 17.1-14.7 4.3 1.2 7.5 5.9 8.5 11.4"/>
	<path class="st9" d="m108.7 64.2c-1.7-10.7-10.8-16.4-17.1-14.6-4.3 1.2-7.5 5.9-8.5 11.4"/>
	<path class="st10" d="m103.4 43.7c2.3-2.5 6.8-5.3 10.2-4.9"/>
	<path class="st10" d="m106.4 47c2-2.5 6-3.7 9.3-3.8"/>
	<path class="st10" d="m45.7 44.7c-2.3-2.5-6.8-5.3-10.2-4.9"/>
	<path class="st10" d="m42.8 47.9c-2-2.5-6-3.7-9.3-3.8"/>

</svg>
