<?xml version="1.0" encoding="UTF-8"?>
<svg enable-background="new 0 0 150 131.6" version="1.1" viewBox="0 0 150 131.6" xml:space="preserve" xmlns="http://www.w3.org/2000/svg">
<style type="text/css">

		.st0{fill-rule:evenodd;clip-rule:evenodd;fill:#A1AABB;stroke:#5E687B;stroke-width:1.8481;stroke-linecap:round;stroke-linejoin:round;stroke-miterlimit:79.8403;}
	.st1{fill-rule:evenodd;clip-rule:evenodd;fill:#D1D4DB;}
	.st2{fill-rule:evenodd;clip-rule:evenodd;fill:#A1AABB;}
	.st3{fill-rule:evenodd;clip-rule:evenodd;fill:#464E5F;stroke:#464E5F;stroke-width:1.2015;stroke-miterlimit:10;}
	.st4{fill:none;stroke:#464E5F;stroke-width:2.4334;stroke-linecap:round;stroke-linejoin:round;stroke-miterlimit:79.8403;}
	.st5{fill:#464E5F;stroke:#464E5F;stroke-width:1.2015;stroke-miterlimit:10;}

		.st6{fill-rule:evenodd;clip-rule:evenodd;fill:#EDECEC;stroke:#464E5F;stroke-width:2.4334;stroke-linecap:round;stroke-linejoin:round;stroke-miterlimit:79.8403;}
	.st7{fill-rule:evenodd;clip-rule:evenodd;fill:#464E5F;}
	.st8{fill:none;stroke:#464E5F;stroke-width:1.8251;stroke-linecap:round;stroke-linejoin:round;stroke-miterlimit:79.8403;}
</style>

	<path class="st0" d="m30.1 111.6c-0.5-0.9-0.9-1.7-1.1-2.2-1.9-3.8-9.4-7-13.2-4.3 0.5-2.3 2.9-4.6 4.7-5.9-3.4-2.8-7.1-5.3-10.3-8.3 0.5-0.4 4-1.1 4.7-1.1-4.3-2.4-9.4-4.8-13.3-7.4 0.4-0.5 6.4-1.2 7.4-1.4-1.7-0.6-5.8-3-7.1-4.4 1.3-1.6 7.9-2.6 10.1-3-1.9-0.5-6-1.3-6.4-3.2 1-1.1 2.9-1 4.3-1.9 9.9-6.1 13.3-12.1 19.6-22.8 7.2-12.4 27.8-11.8 44.2-11.8s39-0.6 46.4 11.8c6.4 10.8 9.7 16.8 19.9 22.9 1.4 0.8 3.4 0.8 4.3 1.9-0.4 2-4.6 2.8-6.4 3.2 2.2 0.4 8.8 1.6 10.1 3-1.3 1.4-5.3 4-7.1 4.4 1 0.2 7.1 1 7.4 1.4-4 2.6-8.9 5-13.3 7.4 0.7 0 4.2 0.7 4.7 1.1-3.1 2.8-6.7 5.4-10.1 8.3 1.1 1.4 3.4 1.7 4.1 2.4-3.1 2.5-9.3 1.3-12.7 7-0.3 0.5-0.5 0.9-0.6 1.1-2.4 4.8-18.5 17.9-44.7 18.5-25.1 0.5-42.6-11.3-45.6-16.7z"/>
	<path class="st1" d="m21.5 103.2-0.4-0.1c-1-0.1-2-0.1-3.1 0l-0.5 0.1 0.7-1c0.8-1 1.8-1.8 2.6-2.5 0.5-0.4 0.5-1.1 0-1.4-2.6-2.2-5.3-4.1-7.8-6.1l-1.2-1.1 0.7-0.1c0.8-0.2 1.8-0.4 2-0.4 1 0 1.3-1.3 0.5-1.7-3.4-1.8-6.8-3.6-10.1-5.4l-1.3-0.7h0.4c0.4-0.1 0.8-0.1 1.2-0.2 1.6-0.3 3.3-0.5 3.8-0.6 1-0.2 1-1.6 0.1-1.8-1.2-0.4-3.7-1.8-5.4-3l-0.6-0.6 0.7-0.4c0.7-0.2 1.7-0.6 2.8-0.8 2-0.5 4.2-0.8 5.3-1.1 1-0.1 1.1-1.6 0.1-1.8s-2.4-0.6-3.6-1.1c-0.7-0.2-1.2-0.5-1.6-0.8l-0.2-0.2 0.2-0.1c0.8-0.4 2.2-0.5 3.5-1.2 2.6-1.6 4.8-3.1 6.7-4.8l0.6-0.6-1.1 1.7c1.3 0 3.1-0.5 4.3-0.1-0.4 1.7-2.9 3.5-4 5 1.3 0.8 2.4 1.2 4 2.4l0.1 1.1c-1.6 1-4.7 2.8-6.1 3.5 2.3 1 5.2 3.1 6.8 4.8-0.2 0.5-4.7 3.2-5.4 3.7 1.9 1.3 5.2 2.8 7 4.2-1 0.6-3.2 0.8-4.1 2.2 2.9 0.7 5.2 2 7.6 2.8-0.5 1.2-3.2 5.1-5.2 8.2z"/>
	<path class="st1" d="m122.8 99.6c2.2-1.8 5.2-2 7.2-3.4-0.5-1.1-2.6-1.8-3.6-3.2 1.2-1.4 3-1.1 4.1-2.4-1.4-0.7-4.3-2-5.3-3.4 1.8-2.2 4.8-2.8 6.8-4.1 0-1.4-2.2-1-2.6-2.3 0.6-0.8 1.3-0.7 2.2-1.2-0.8-0.4-2.2-1.1-2.8-1.7 1.9-1 5.2-1.8 6.6-3-2.2-1.6-4.7-2.9-6.6-3.8 1.3-0.8 4.6-2.6 5-3.6-1.3-1.6-3.5-1.4-4.9-3 0.8-0.6 2.2-0.6 3.5-1h0.1l0.6 0.6c1.9 1.7 4.1 3.2 6.7 4.8 1.3 0.7 2.5 0.8 3.5 1.2l0.2 0.1-0.5 0.4c-1.2 0.8-3.6 1.3-4.9 1.7-1 0.2-0.8 1.7 0.1 1.8 1.1 0.1 3.2 0.6 5.3 1.1 1.1 0.2 2 0.6 2.8 0.8l0.7 0.4-0.5 0.5c-1.7 1.2-4.2 2.6-5.4 3-1 0.2-0.8 1.6 0.1 1.8 0.5 0.1 2.2 0.4 3.7 0.6 0.4 0.1 0.8 0.1 1.2 0.2l0.4 0.1-1.3 0.7c-3.2 1.9-6.8 3.7-10.1 5.4-0.8 0.5-0.5 1.7 0.5 1.7 0.2 0 1.2 0.1 2 0.4l0.7 0.1-1.2 1c-2.5 2-5 4-7.7 6.2-0.4 0.4-0.5 0.8-0.1 1.3 0.6 0.7 1.6 1.3 2.4 1.7l0.6 0.2-1.4 0.5-1.7 0.5-0.7-0.2c-2.1-0.4-3.9-1.4-5.7-2.5z"/>
	<path class="st0" d="m26.8 51.6c5-13.9 7-24.6 16.2-37 2.2-2.9 6.2-9.9 10.6-9.9 5.4 7.2 11.2 22.8 15.9 29-6.6 1.6-23.9 8.4-31.5 11.8-1.6 0.6-10.2 5.4-11.2 6.1z"/>
	<path class="st0" d="m122.3 51.6c-5-13.9-7-24.6-16.2-37-2.2-2.9-6.2-9.9-10.6-9.9-5.4 7.2-11.4 22.8-15.9 29 6.6 1.6 24.1 8.4 31.7 11.8 1.5 0.6 9.9 5.4 11 6.1z"/>
	<path class="st2" d="m45.3 36.9c16.4-9.4 20.4-8.2 22.9-3.2 3.8 4.6 6.4 8.1-13.7 21.2-13.2 6.7-26 8.2-28.5 3.2-2.6-4.8 6-14.4 19.3-21.2z"/>
	<path class="st2" d="m104.3 36.9c-22.4-10.2-21.9-5.9-24.8-1.1-3 5-5.4 9.7 15.6 19 13.2 6.7 26 8.2 28.5 3.2 2.4-4.7-6.2-14.3-19.3-21.1z"/>
	<path class="st1" d="m40.3 39.9c-0.4-4.4 6.4-25 10.5-24.9 2.9 0.1 9.5 18 8.8 20.1-7.4 1.1-14 3.6-19.3 4.8z"/>
	<path class="st1" d="m108.7 39.9c0.4-4.4-6.4-25-10.5-24.9-2.9 0.1-9.5 18-8.8 20.1 7.4 1.1 14 3.6 19.3 4.8z"/>


	<path class="st3" d="m74.6 85.4c4.8 0 8.7 1.8 8.7 4.1s-3.8 4.1-8.7 4.1c-4.8 0-8.7-1.8-8.7-4.1s3.9-4.1 8.7-4.1z"/>
	<path class="st4" d="m74.9 93.7v7.1"/>
	<path class="st4" d="m108.7 100.5c5.3 1 10.1 2.9 13.5 7.2"/>
	<path class="st4" d="m109.2 96.3c5.3 0.5 10.1 1.7 14.9 3.7"/>
	<path class="st4" d="m42 100.5c-5.3 1-10.1 2.9-13.5 7.2"/>
	<path class="st4" d="m41.5 96.3c-5.3 0.5-10.1 1.7-14.9 3.7"/>
	<ellipse class="st5" cx="75.2" cy="109.5" rx="7.2" ry="9.1"/>

	<path class="st6" d="m96.1 44c7.3 0 13.2 8.9 13.2 19.8s-5.9 19.8-13.2 19.8-13.2-8.9-13.2-19.8 5.9-19.8 13.2-19.8z"/>
	<path class="st7" d="m96 50.7c4.9 0 8.8 5.8 8.8 12.7 0 7-4 12.7-8.8 12.7-4.9 0-8.8-5.8-8.8-12.7s3.9-12.7 8.8-12.7z"/>
	<path class="st2" d="m93.2 55.9c1.4-0.1 2.8 1.2 3 3s-0.8 3.4-2.3 3.6c-1.4 0.1-2.8-1.2-3-3-0.1-1.8 0.9-3.4 2.3-3.6z"/>
	<path class="st8" d="m92.8 35.4c-0.1-3.4 1.1-8.5 3.7-10.7"/>
	<path class="st8" d="m97.2 35.6c-0.4-3.2 1.7-6.8 3.8-9.3"/>


	<path class="st6" d="m54.8 44c7.3 0 13.2 8.9 13.2 19.8s-5.9 19.8-13.2 19.8-13.2-8.9-13.2-19.8 5.9-19.8 13.2-19.8z"/>
	<path class="st7" d="m54.8 51.2c4.9 0 8.8 5.6 8.8 12.5 0 6.8-4 12.5-8.8 12.5s-8.8-5.6-8.8-12.5 4-12.5 8.8-12.5z"/>
	<path class="st2" d="m52.8 56.4c1.4-0.1 2.8 1.2 3 3s-0.8 3.4-2.3 3.6c-1.4 0.1-2.8-1.2-3-3-0.3-1.8 0.8-3.4 2.3-3.6z"/>
	<path class="st8" d="m56.1 35.4c0.1-3.4-1.1-8.5-3.7-10.7"/>
	<path class="st8" d="m51.8 35.6c0.4-3.2-1.7-6.8-3.8-9.3"/>


</svg>
