<?xml version="1.0" encoding="UTF-8"?>
<svg enable-background="new 0 0 150 131.6" version="1.1" viewBox="0 0 150 131.6" xml:space="preserve" xmlns="http://www.w3.org/2000/svg">
<style type="text/css">

		.st0{fill-rule:evenodd;clip-rule:evenodd;fill:#A1AABB;stroke:#5E687B;stroke-width:1.8481;stroke-linecap:round;stroke-linejoin:round;stroke-miterlimit:79.8403;}
	.st1{fill-rule:evenodd;clip-rule:evenodd;fill:#D1D4DB;}
	.st2{fill-rule:evenodd;clip-rule:evenodd;fill:#A1AABB;}
	.st3{fill:#474F5F;stroke:#464E5F;stroke-width:2.4334;stroke-linecap:round;stroke-linejoin:round;stroke-miterlimit:79.8403;}
	.st4{fill:#A1AABB;}
	.st5{fill-rule:evenodd;clip-rule:evenodd;fill:#464E5F;stroke:#464E5F;stroke-width:1.2015;stroke-miterlimit:10;}
	.st6{fill:none;stroke:#464E5F;stroke-width:2.4334;stroke-linecap:round;stroke-linejoin:round;stroke-miterlimit:79.8403;}
	.st7{fill:#D66556;}
</style>

	<path class="st0" d="m30.1 111.6c-0.5-0.9-0.9-1.7-1.1-2.2-1.9-3.8-9.4-7-13.2-4.3 0.5-2.3 2.9-4.6 4.7-5.9-3.4-2.8-7.1-5.3-10.3-8.3 0.5-0.4 4-1.1 4.7-1.1-4.3-2.4-9.4-4.8-13.3-7.4 0.4-0.5 6.4-1.2 7.4-1.4-1.7-0.6-5.8-3-7.1-4.4 1.3-1.6 7.9-2.6 10.1-3-1.9-0.5-6-1.3-6.4-3.2 1-1.1 2.9-1 4.3-1.9 9.9-6.1 13.3-12.1 19.6-22.8 7.2-12.4 28.8-15.7 45.3-15.7s38 3.4 45.3 15.7c6.4 10.8 9.7 16.8 19.9 22.9 1.4 0.8 3.4 0.8 4.3 1.9-0.4 2-4.6 2.8-6.4 3.2 2.2 0.4 8.8 1.6 10.1 3-1.3 1.4-5.3 4-7.1 4.4 1 0.2 7.1 1 7.4 1.4-4 2.6-8.9 5-13.3 7.4 0.7 0 4.2 0.7 4.7 1.1-3.1 2.8-6.7 5.4-10.1 8.3 1.1 1.4 3.4 1.7 4.1 2.4-3.1 2.5-9.3 1.3-12.7 7-0.3 0.5-0.5 0.9-0.6 1.1-2.4 4.8-18.5 17.9-44.7 18.5-25.1 0.5-42.6-11.3-45.6-16.7z"/>
	<path class="st1" d="m21.5 103.2-0.4-0.1c-1-0.1-2-0.1-3.1 0l-0.5 0.1 0.7-1c0.8-1 1.8-1.8 2.6-2.5 0.5-0.4 0.5-1.1 0-1.4-2.6-2.2-5.3-4.1-7.8-6.1l-1.2-1.1 0.7-0.1c0.8-0.2 1.8-0.4 2-0.4 1 0 1.3-1.3 0.5-1.7-3.4-1.8-6.8-3.6-10.1-5.4l-1.3-0.7h0.4c0.4-0.1 0.8-0.1 1.2-0.2 1.6-0.3 3.3-0.5 3.8-0.6 1-0.2 1-1.6 0.1-1.8-1.2-0.4-3.7-1.8-5.4-3l-0.6-0.6 0.7-0.4c0.7-0.2 1.7-0.6 2.8-0.8 2-0.5 4.2-0.8 5.3-1.1 1-0.1 1.1-1.6 0.1-1.8s-2.4-0.6-3.6-1.1c-0.7-0.2-1.2-0.5-1.6-0.8l-0.2-0.2 0.2-0.1c0.8-0.4 2.2-0.5 3.5-1.2 2.6-1.6 4.8-3.1 6.7-4.8l0.6-0.6-1.1 1.7c1.3 0 3.1-0.5 4.3-0.1-0.4 1.7-2.9 3.5-4 5 1.3 0.8 2.4 1.2 4 2.4l0.1 1.1c-1.6 1-4.7 2.8-6.1 3.5 2.3 1 5.2 3.1 6.8 4.8-0.2 0.5-4.7 3.2-5.4 3.7 1.9 1.3 5.2 2.8 7 4.2-1 0.6-3.2 0.8-4.1 2.2 2.9 0.7 5.2 2 7.6 2.8-0.5 1.2-3.2 5.1-5.2 8.2z"/>
	<path class="st1" d="m122.8 99.6c2.2-1.8 5.2-2 7.2-3.4-0.5-1.1-2.6-1.8-3.6-3.2 1.2-1.4 3-1.1 4.1-2.4-1.4-0.7-4.3-2-5.3-3.4 1.8-2.2 4.8-2.8 6.8-4.1 0-1.4-2.2-1-2.6-2.3 0.6-0.8 1.3-0.7 2.2-1.2-0.8-0.4-2.2-1.1-2.8-1.7 1.9-1 5.2-1.8 6.6-3-2.2-1.6-4.7-2.9-6.6-3.8 1.3-0.8 4.6-2.6 5-3.6-1.3-1.6-3.5-1.4-4.9-3 0.8-0.6 2.2-0.6 3.5-1h0.1l0.6 0.6c1.9 1.7 4.1 3.2 6.7 4.8 1.3 0.7 2.5 0.8 3.5 1.2l0.2 0.1-0.5 0.4c-1.2 0.8-3.6 1.3-4.9 1.7-1 0.2-0.8 1.7 0.1 1.8 1.1 0.1 3.2 0.6 5.3 1.1 1.1 0.2 2 0.6 2.8 0.8l0.7 0.4-0.5 0.5c-1.7 1.2-4.2 2.6-5.4 3-1 0.2-0.8 1.6 0.1 1.8 0.5 0.1 2.2 0.4 3.7 0.6 0.4 0.1 0.8 0.1 1.2 0.2l0.4 0.1-1.3 0.7c-3.2 1.9-6.8 3.7-10.1 5.4-0.8 0.5-0.5 1.7 0.5 1.7 0.2 0 1.2 0.1 2 0.4l0.7 0.1-1.2 1c-2.5 2-5 4-7.7 6.2-0.4 0.4-0.5 0.8-0.1 1.3 0.6 0.7 1.6 1.3 2.4 1.7l0.6 0.2-1.4 0.5-1.7 0.5-0.7-0.2c-2.1-0.4-3.9-1.4-5.7-2.5z"/>
	<path class="st0" d="m26.8 51.6c5-13.9 7-24.6 16.2-37 2.2-2.9 6.2-9.9 10.6-9.9 5.4 7.2 10.6 21.3 15.3 27.4-6.6 1.6-23.4 10-31 13.3-1.5 0.7-10.1 5.5-11.1 6.2z"/>
	<path class="st0" d="m122.3 51.6c-5-13.9-7-24.6-16.2-37-2.2-2.9-6.2-9.9-10.6-9.9-5.4 7.2-10.7 21.3-15.3 27.4 6.6 1.6 23.4 10 31 13.3 1.6 0.7 10 5.5 11.1 6.2z"/>
	<path class="st2" d="m45.3 36.9c13.2-6.7 26-8.2 28.5-3.2s-6.1 14.4-19.3 21.1-26 8.2-28.5 3.2c-2.6-4.7 6-14.3 19.3-21.1z"/>
	<path class="st2" d="m104.3 36.9c-13.2-6.7-26-8.2-28.5-3.2-2.5 4.9 6.1 14.4 19.3 21.1s26 8.2 28.5 3.2c2.4-4.7-6.2-14.3-19.3-21.1z"/>
	<path class="st1" d="m40.3 39.9c-0.4-4.4 6.4-25 10.5-24.9 2.9 0.1 9.5 18 8.8 20.1-7.4 1.1-14 3.6-19.3 4.8z"/>
	<path class="st1" d="m108.7 39.9c0.4-4.4-6.4-25-10.5-24.9-2.9 0.1-9.5 18-8.8 20.1 7.4 1.1 14 3.6 19.3 4.8z"/>


	<path class="st3" d="m54.4 99.9c2.1 9.2 10.4 15.8 19.8 15.6 9.5-0.1 17.6-6.9 19.4-16.2-5.6 0.9-12.2 1.7-19.6 1.8s-14-0.4-19.6-1.2z"/>
	<path class="st4" d="m51 95.3c-0.9 3 7.3 10.8 16.5 9.5 5.8-0.8 11.8-5.2 11.2-7.9-1.2-5.1-26.4-6.2-27.7-1.6z"/>
	<path class="st4" d="m68 94.3c-0.9 3 7.3 10.8 16.5 9.5 5.8-0.8 11.8-5.2 11.2-7.9-1.2-5.1-26.4-6.2-27.7-1.6z"/>
	<path class="st5" d="m73.7 85.7c4.8 0 8.7 1.8 8.7 4.1s-3.8 4.1-8.7 4.1c-4.8 0-8.7-1.8-8.7-4.1s3.9-4.1 8.7-4.1z"/>
	<path class="st6" d="m74.1 94v7.1"/>
	<path class="st6" d="m73.9 101c5 5.8 15 3.4 19.7-1.7"/>
	<path class="st6" d="m74.1 101.6c-5 5.8-15 3.4-19.7-1.7"/>
	<path class="st6" d="m107.8 100.8c5.3 1 10.1 2.9 13.5 7.2"/>
	<path class="st6" d="m108.3 96.6c5.3 0.5 10.1 1.7 14.9 3.7"/>
	<path class="st6" d="m41.1 100.8c-5.3 1-10.1 2.9-13.5 7.2"/>
	<path class="st6" d="m40.7 96.6c-5.3 0.5-10.1 1.7-14.9 3.7"/>

	<path class="st7" d="m106.7 56.5c-2.9-0.8-6-0.1-8.1 2-0.7-2.9-2.8-5.2-5.7-6.1-4.4-1.3-9.1 1.7-10.4 6.1-3.2 11 9.3 23 9.3 23s17.1-3.3 20.3-14.3c1.3-4.3-1-9.5-5.4-10.7z"/>
	<path class="st7" d="m58.7 52.6c-2.9 0.7-5.1 3-5.9 5.9-2.1-2.2-5.1-3-8-2.3-4.4 1.1-6.9 6.2-5.8 10.6 2.9 11.1 19.9 15 19.9 15s13-11.6 10.1-22.7c-1.2-4.5-5.8-7.7-10.3-6.5z"/>
</svg>
