<?xml version="1.0" encoding="UTF-8"?>
<svg enable-background="new 0 0 150 131.6" version="1.1" viewBox="0 0 150 131.6" xml:space="preserve" xmlns="http://www.w3.org/2000/svg">
<style type="text/css">
	.st0{fill-rule:evenodd;clip-rule:evenodd;fill:#A1AABB;stroke:#5E687B;stroke-width:1.7234;stroke-linecap:round;stroke-linejoin:round;stroke-miterlimit:79.8403;}
	.st1{fill-rule:evenodd;clip-rule:evenodd;fill:#D1D4DB;}
	.st2{fill-rule:evenodd;clip-rule:evenodd;fill:#A1AABB;}
	.st3{fill-rule:evenodd;clip-rule:evenodd;fill:#464E5F;stroke:#464E5F;stroke-width:1.1205;stroke-miterlimit:10;}
	.st4{fill:none;stroke:#464E5F;stroke-width:2.2693;stroke-linecap:round;stroke-linejoin:round;stroke-miterlimit:79.8403;}
	.st5{fill:#464E5F;stroke:#464E5F;stroke-width:1.1205;stroke-miterlimit:10;}
	.st6{fill:none;stroke:#464E5F;stroke-width:1.702;stroke-linecap:round;stroke-linejoin:round;stroke-miterlimit:79.8403;}
	.st7{fill:#25A9E0;}
</style>

	<path class="st0" d="m32.9 101c-0.5-0.8-0.8-1.6-1-2-1.8-3.6-8.7-6.5-12.3-4 0.4-2.1 2.7-4.3 4.4-5.5-3.1-2.6-6.6-4.9-9.6-7.7 0.4-0.3 3.7-1 4.4-1-4-2.2-8.7-4.5-12.4-6.9 0.3-0.4 5.9-1.1 6.9-1.3-1.6-0.6-5.4-2.8-6.6-4.1 1.2-1.5 7.4-2.5 9.4-2.8-1.8-0.4-5.6-1.2-5.9-3 0.9-1 2.7-0.9 4-1.8 9.2-5.7 12.4-11.3 18.3-21.3 6.7-11.5 25.9-11 41.2-11s36.4-0.6 43.2 11c5.9 10.1 9.1 15.7 18.6 21.4 1.3 0.8 3.1 0.8 4 1.8-0.3 1.9-4.3 2.6-5.9 3 2 0.3 8.2 1.5 9.4 2.8-1.2 1.3-4.9 3.7-6.6 4.1 0.9 0.2 6.6 0.9 6.9 1.3-3.7 2.5-8.3 4.7-12.4 6.9 0.7 0 3.9 0.7 4.4 1-2.9 2.6-6.3 5-9.4 7.7 1 1.3 3.1 1.6 3.8 2.2-2.9 2.4-8.6 1.2-11.9 6.5-0.3 0.5-0.5 0.9-0.6 1-2.2 4.4-17.2 16.7-41.7 17.3-23.6 0.5-39.8-10.6-42.6-15.6z"/>
	<path class="st1" d="m24.8 93.2-0.3-0.1c-0.9-0.1-1.9-0.1-2.9 0l-0.4 0.1 0.7-0.9c0.8-0.9 1.7-1.7 2.5-2.4 0.4-0.3 0.4-1 0-1.3-2.5-2-4.9-3.8-7.3-5.7l-1.1-1 0.7-0.1c0.8-0.2 1.7-0.3 1.9-0.3 0.9 0 1.2-1.2 0.4-1.6-3.1-1.7-6.4-3.4-9.4-5l-1.2-0.7h0.3c0.2-0.2 0.6-0.2 1-0.3 1.5-0.2 3-0.4 3.5-0.6 0.9-0.2 0.9-1.5 0.1-1.7-1.1-0.3-3.5-1.7-5-2.8l-0.6-0.6 0.6-0.2c0.7-0.2 1.6-0.6 2.6-0.8 1.9-0.4 3.9-0.8 4.9-1 0.9-0.1 1-1.5 0.1-1.7s-2.2-0.6-3.4-1c-0.7-0.2-1.1-0.4-1.5-0.8l-0.2-0.2 0.2-0.1c0.8-0.3 2-0.4 3.2-1.1 2.5-1.5 4.5-2.9 6.3-4.5l0.6-0.6-1 1.6c1.2 0 2.9-0.4 4-0.1-0.3 1.6-2.7 3.2-3.7 4.7 1.2 0.8 2.2 1.1 3.7 2.2l0.1 1c-1.5 0.9-4.4 2.6-5.7 3.2 2.1 0.9 4.8 2.9 6.4 4.5-0.2 0.4-4.4 3-5 3.5 1.8 1.2 4.8 2.6 6.5 3.9-0.9 0.6-3 0.8-3.8 2 2.7 0.7 4.8 1.9 7.1 2.6-0.5 1.3-3 5-4.9 7.9z"/>
	<path class="st1" d="m119.3 89.8c2-1.7 4.8-1.9 6.7-3.1-0.4-1-2.5-1.7-3.4-3 1.1-1.3 2.8-1 3.8-2.2-1.3-0.7-4-1.9-4.9-3.1 1.7-2 4.5-2.6 6.4-3.8 0-1.3-2-0.9-2.5-2.1 0.6-0.8 1.2-0.7 2-1.1-0.8-0.3-2-1-2.6-1.6 1.8-0.9 4.8-1.7 6.2-2.8-2-1.5-4.4-2.7-6.2-3.6 1.2-0.8 4.3-2.5 4.7-3.4-1.2-1.5-3.2-1.3-4.6-2.8 0.8-0.6 2-0.6 3.2-0.9h0.1l0.6 0.6c1.8 1.6 3.8 3 6.3 4.5 1.2 0.7 2.4 0.8 3.2 1.1l0.2 0.1-0.4 0.3c-1.1 0.8-3.4 1.2-4.6 1.6-0.9 0.2-0.8 1.6 0.1 1.7 1 0.1 3 0.6 4.9 1 1 0.2 1.9 0.6 2.6 0.8l0.7 0.3-0.4 0.4c-1.6 1.1-3.9 2.5-5 2.8-0.9 0.2-0.8 1.5 0.1 1.7 0.4 0.1 2 0.3 3.5 0.6 0.3 0.1 0.8 0.1 1.1 0.2l0.3 0.1-1.2 0.7c-3 1.8-6.4 3.5-9.4 5-0.8 0.4-0.4 1.6 0.4 1.6 0.2 0 1.1 0.1 1.9 0.3l0.7 0.1-1.1 0.9c-2.4 1.9-4.7 3.7-7.2 5.8-0.3 0.3-0.4 0.8-0.1 1.2 0.6 0.7 1.5 1.2 2.2 1.6l0.6 0.2-1.3 0.4-1.6 0.4-0.7-0.2c-2-0.4-3.7-1.3-5.3-2.3z"/>
	<path class="st0" d="m29.7 45c4.7-13 6.5-23 15.1-34.5 2-2.7 5.8-9.2 9.9-9.2 5 6.7 10.5 21.3 14.8 27-6.2 1.5-22.3 7.8-29.4 11-1.4 0.6-9.4 5-10.4 5.7z"/>
	<path class="st0" d="m118.8 45c-4.7-13-6.5-23-15.1-34.5-2-2.7-5.8-9.2-9.9-9.2-5 6.7-10.6 21.3-14.9 27 6.2 1.5 22.5 7.8 29.5 11 1.6 0.6 9.4 5 10.4 5.7z"/>
	<path class="st2" d="m47 31.3c15.3-8.8 19-7.6 21.3-3 3.6 4.3 6 7.6-12.8 19.7-12.3 6.3-24.2 7.6-26.6 3-2.3-4.4 5.8-13.4 18.1-19.7z"/>
	<path class="st2" d="m102 31.3c-20.8-9.5-20.4-5.5-23-1.1-2.8 4.7-5 9 14.5 17.8 12.3 6.3 24.2 7.6 26.6 3 2.2-4.4-5.9-13.4-18.1-19.7z"/>
	<path class="st1" d="m42.4 34.1c-0.3-4.1 5.9-23.3 9.7-23.1 2.7 0.1 8.9 16.8 8.2 18.7-6.8 1-13 3.3-17.9 4.4z"/>
	<path class="st1" d="m106.2 34.1c0.3-4.1-5.9-23.3-9.7-23.2-2.7 0.1-8.9 16.8-8.2 18.7 6.8 1.1 12.9 3.4 17.9 4.5z"/>


	<path class="st3" d="m74.3 74.7c4.5 0 8.1 1.7 8.1 3.8s-3.6 3.8-8.1 3.8-8.1-1.7-8.1-3.8c0.1-2.2 3.6-3.8 8.1-3.8z"/>
	<path class="st4" d="M74.7,82.4V89"/>
	<path class="st4" d="m48 86.9c-4.5 2.2-8.3 5.2-10.2 9.9"/>
	<path class="st4" d="m46.4 83.2c-4.6 1.8-8.6 4.1-12.4 7.2"/>
	<path class="st4" d="m110.8 96.9c-1.9-4.7-5.7-7.7-10.2-9.9"/>
	<path class="st4" d="m114.5 90.5c-3.8-3.1-7.8-5.4-12.4-7.2"/>
	<ellipse class="st5" cx="74.7" cy="96.9" rx="6.7" ry="8.5"/>


	<path class="st6" d="m49.6 52.9c-1.3-2.9-4.4-6.7-7.5-7.4"/>
	<path class="st6" d="m46 54.9c-1-2.9-4.2-5-7-6.1"/>
	<ellipse class="st7" cx="74.2" cy="126.4" rx="47.2" ry="3.4"/>
	<rect class="st7" x="53.5" y="63.6" width="10.2" height="64.8"/>
	<rect class="st7" x="85.7" y="63.3" width="10.2" height="65"/>
	<path class="st5" d="m45.5 69c0.5 0.5 3.9-3.6 10.8-5 6.7-1.4 11.4 0.9 11.7 0 0.3-1-4.7-5.1-10.5-4.7-7.6 0.6-12.6 9-12 9.7z"/>
	<path class="st5" d="m103.4 68.6c-0.5 0.5-3.9-3.6-10.8-5-6.7-1.4-11.4 0.9-11.7 0-0.3-1 4.7-5.1 10.5-4.7 7.6 0.6 12.6 8.9 12 9.7z"/>
	<path class="st6" d="m102.3 45.5c-3.1 0.7-6.3 4.5-7.5 7.4"/>
	<path class="st6" d="m105.3 48.7c-2.8 1.1-6 3.3-7 6.1"/>

</svg>
