<?xml version="1.0" encoding="UTF-8"?>
<svg enable-background="new 0 0 184.5 131.6" version="1.1" viewBox="0 0 184.5 131.6" xml:space="preserve" xmlns="http://www.w3.org/2000/svg">
<style type="text/css">

		.st0{fill-rule:evenodd;clip-rule:evenodd;fill:#A1AABB;stroke:#5E687B;stroke-width:1.9104;stroke-linecap:round;stroke-linejoin:round;stroke-miterlimit:79.8403;}
	.st1{fill-rule:evenodd;clip-rule:evenodd;fill:#D1D4DB;}
	.st2{fill-rule:evenodd;clip-rule:evenodd;fill:#A1AABB;}
	.st3{fill:#5F697C;stroke:#5F697C;stroke-width:2.5156;stroke-linecap:round;stroke-linejoin:round;stroke-miterlimit:79.8403;}
	.st4{fill:#A1AABB;}
	.st5{fill-rule:evenodd;clip-rule:evenodd;fill:#5F697C;stroke:#5F697C;stroke-width:1.2421;stroke-miterlimit:10;}
	.st6{fill:none;stroke:#5F697C;stroke-width:2.5156;stroke-linecap:round;stroke-linejoin:round;stroke-miterlimit:79.8403;}

		.st7{fill-rule:evenodd;clip-rule:evenodd;fill:#EDECEC;stroke:#5F697C;stroke-width:2.5156;stroke-linecap:round;stroke-linejoin:round;stroke-miterlimit:79.8403;}
	.st8{fill-rule:evenodd;clip-rule:evenodd;fill:#5F697C;}
	.st9{fill:none;stroke:#5F697C;stroke-width:1.8867;stroke-linecap:round;stroke-linejoin:round;stroke-miterlimit:79.8403;}
	.st10{fill:#A1AABB;stroke:#474F5F;stroke-width:2.5016;stroke-linecap:round;stroke-linejoin:round;stroke-miterlimit:79.8403;}
	.st11{fill:#D1D4DB;}
	.st12{fill:none;stroke:#464E5F;stroke-width:2.5156;stroke-linecap:round;stroke-linejoin:round;stroke-miterlimit:79.8403;}
</style>


	<path class="st0" d="m31.4 112.3c-0.5-0.9-0.9-1.7-1.1-2.3-2-4-9.7-7.2-13.7-4.5 0.5-2.4 3-4.7 4.8-6.1-3.5-2.9-7.3-5.5-10.7-8.6 0.5-0.4 4.1-1.1 4.8-1.1-4.5-2.5-9.7-5-13.8-7.7 0.4-0.5 6.6-1.2 7.7-1.5-1.7-0.6-6-3.1-7.3-4.6 1.4-1.6 8.2-2.7 10.4-3.1-2-0.5-6.2-1.4-6.6-3.4 1-1.1 3-1 4.5-2 10.3-6.2 13.9-12.4 20.4-23.4 7.5-12.8 29.8-16.3 46.8-16.3s39.2 3.5 46.8 16.3c6.6 11.2 10.1 17.4 20.6 23.7 1.5 0.9 3.5 0.9 4.5 2-0.4 2.1-4.7 2.9-6.6 3.4 2.2 0.4 9.1 1.6 10.4 3.1-1.4 1.5-5.5 4.1-7.3 4.6 1 0.2 7.3 1 7.7 1.5-4.1 2.7-9.2 5.2-13.8 7.7 0.7 0 4.3 0.7 4.8 1.1-3.2 2.9-7 5.6-10.4 8.6 1.1 1.5 3.5 1.7 4.2 2.5-3.2 2.6-9.6 1.4-13.2 7.2-0.3 0.6-0.5 1-0.6 1.1-2.5 4.9-19.1 18.5-46.2 19.1-26 0.6-44-11.7-47.1-17.3z"/>
	<path class="st1" d="m22.5 103.7-0.4-0.1c-1-0.1-2.1-0.1-3.2 0l-0.5 0.1 0.7-1c0.9-1 1.9-1.9 2.7-2.6 0.5-0.4 0.5-1.1 0-1.5-2.7-2.2-5.5-4.2-8.1-6.3l-1.2-1.1 0.7-0.1c0.9-0.2 1.9-0.4 2.1-0.4 1 0 1.4-1.4 0.5-1.7-3.5-1.9-7.1-3.7-10.4-5.6l-1.4-0.7h0.4c0.4-0.1 0.9-0.1 1.2-0.2 1.6-0.2 3.4-0.5 3.9-0.6 1-0.2 1-1.6 0.1-1.9-1.2-0.4-3.9-1.9-5.6-3.1l-0.6-0.6 0.7-0.4c0.7-0.2 1.7-0.6 2.9-0.9 2.1-0.5 4.3-0.9 5.5-1.1 1-0.1 1.1-1.6 0.1-1.9s-2.5-0.6-3.7-1.1c-0.7-0.2-1.2-0.5-1.6-0.9l-0.2-0.2 0.2-0.1c0.9-0.4 2.2-0.5 3.6-1.2 2.7-1.6 5-3.2 7-5l0.6-0.6-1.1 1.7c1.4 0 3.2-0.5 4.5-0.1-0.4 1.7-3 3.6-4.1 5.2 1.4 0.9 2.5 1.2 4.1 2.5l0.1 1.1c-1.6 1-4.8 2.9-6.3 3.6 2.4 1 5.3 3.2 7.1 5-0.2 0.5-4.8 3.4-5.6 3.9 2 1.4 5.3 2.9 7.2 4.3-1 0.6-3.4 0.9-4.2 2.2 3 0.7 5.3 2.1 7.8 2.9-0.7 1.2-3.4 5.3-5.5 8.5z"/>
	<path class="st1" d="m127.2 100c2.2-1.9 5.3-2.1 7.5-3.5-0.5-1.1-2.7-1.9-3.7-3.4 1.2-1.5 3.1-1.1 4.2-2.5-1.5-0.7-4.5-2.1-5.5-3.5 1.9-2.2 5-2.9 7.1-4.2 0-1.5-2.2-1-2.7-2.4 0.6-0.9 1.4-0.7 2.2-1.2-0.9-0.4-2.2-1.1-2.9-1.7 2-1 5.3-1.9 6.8-3.1-2.2-1.6-4.8-3-6.8-4 1.4-0.9 4.7-2.7 5.2-3.7-1.4-1.6-3.6-1.5-5.1-3.1 0.9-0.6 2.2-0.6 3.6-1h0.1l0.6 0.6c2 1.7 4.2 3.4 7 5 1.4 0.7 2.6 0.9 3.6 1.2l0.2 0.1-0.5 0.4c-1.2 0.9-3.7 1.4-5.1 1.7-1 0.2-0.9 1.7 0.1 1.9 1.1 0.1 3.4 0.6 5.5 1.1 1.1 0.2 2.1 0.6 2.9 0.9l0.7 0.4-0.5 0.5c-1.7 1.2-4.3 2.7-5.6 3.1-1 0.2-0.9 1.6 0.1 1.9 0.5 0.1 2.2 0.4 3.9 0.6 0.4 0.1 0.9 0.1 1.2 0.2l0.4 0.1-1.4 0.7c-3.4 2-7.1 3.9-10.4 5.6-0.9 0.5-0.5 1.7 0.5 1.7 0.2 0 1.2 0.1 2.1 0.4l0.7 0.1-1.2 1c-2.6 2.1-5.2 4.1-7.9 6.5-0.4 0.4-0.5 0.9-0.1 1.4 0.6 0.7 1.6 1.4 2.5 1.7l0.6 0.2-1.5 0.5-1.7 0.5-0.7-0.2c-2.3-0.4-4.2-1.4-6-2.5z"/>
	<path class="st0" d="m27.9 50.3c5.2-14.4 7.2-25.5 16.8-38.3 2.2-3 6.5-10.2 10.9-10.2 5.6 7.5 11.1 22 15.9 28.3-6.8 1.6-24.2 10.3-32 13.8-1.6 0.7-10.4 5.7-11.6 6.4z"/>
	<path class="st0" d="m126.7 50.3c-5.2-14.4-7.2-25.5-16.8-38.3-2.2-3-6.5-10.2-10.9-10.2-5.6 7.5-11.1 22-15.8 28.3 6.8 1.6 24.2 10.3 32 13.8 1.7 0.7 10.4 5.7 11.5 6.4z"/>
	<path class="st2" d="m47.1 35.1c13.7-7 26.8-8.4 29.4-3.4 2.6 5.1-6.3 14.9-20 21.9s-26.8 8.4-29.4 3.4 6.3-14.9 20-21.9z"/>
	<path class="st2" d="m108 35.1c-13.7-7-26.8-8.4-29.4-3.4-2.6 5.1 6.3 14.9 20 21.9s26.8 8.4 29.4 3.4c2.5-5-6.4-14.9-20-21.9z"/>
	<path class="st1" d="m42 38.3c-0.4-4.6 6.6-25.8 10.8-25.7 3 0.1 9.8 18.6 9.1 20.7-7.6 1.1-14.5 3.7-19.9 5z"/>
	<path class="st1" d="m112.6 38.3c0.4-4.6-6.6-25.8-10.8-25.7-3 0.1-9.8 18.6-9.1 20.7 7.6 1.1 14.5 3.7 19.9 5z"/>


	<path class="st3" d="m56.5 100.2c2.2 9.5 10.8 16.3 20.5 16.2 9.8-0.1 18.2-7.2 20.1-16.8-5.8 1-12.6 1.7-20.2 1.9-7.7 0.1-14.6-0.5-20.4-1.3z"/>
	<path class="st4" d="m52.9 95.5c-0.9 3.1 7.5 11.2 17.1 9.8 6-0.8 12.2-5.3 11.5-8.2-1.1-5.2-27.1-6.3-28.6-1.6z"/>
	<path class="st4" d="m70.5 94.5c-0.9 3.1 7.5 11.2 17.1 9.8 6-0.8 12.2-5.3 11.5-8.2-1.2-5.2-27.1-6.4-28.6-1.6z"/>
	<path class="st5" d="m76.5 85.6c5 0 8.9 1.9 8.9 4.2 0 2.4-4 4.2-8.9 4.2-5 0-8.9-1.9-8.9-4.2-0.1-2.4 3.9-4.2 8.9-4.2z"/>
	<path class="st6" d="m76.8 94.1v7.3"/>
	<path class="st6" d="m76.7 101.4c5.2 6 15.5 3.5 20.4-1.7"/>
	<path class="st6" d="m76.8 102c-5.2 6-15.5 3.5-20.4-1.7"/>
	<path class="st6" d="m111.7 101.2c5.5 1 10.4 3 13.9 7.5"/>
	<path class="st6" d="m112.2 96.9c5.5 0.5 10.4 1.7 15.4 3.9"/>
	<path class="st6" d="m42.8 101.2c-5.5 1-10.4 3-13.9 7.5"/>
	<path class="st6" d="m42.3 96.9c-5.5 0.5-10.4 1.7-15.4 3.9"/>


	<path class="st7" d="m55 48.4c7.6 0 13.7 9.2 13.7 20.5s-6.2 20.5-13.7 20.5-13.7-9.2-13.7-20.5 6.1-20.5 13.7-20.5z"/>
	<path class="st8" d="m55 55.9c5.1 0 9.1 5.8 9.1 12.9s-4.2 12.9-9.1 12.9-9.1-5.8-9.1-12.9 4.1-12.9 9.1-12.9z"/>
	<path class="st2" d="m52.9 61.2c1.5-0.1 2.9 1.2 3.1 3.1s-0.9 3.5-2.4 3.7c-1.5 0.1-2.9-1.2-3.1-3.1-0.2-1.8 0.9-3.4 2.4-3.7z"/>
	<path class="st9" d="m56.3 39.5c0.1-3.5-1.1-8.8-3.9-11.1"/>
	<path class="st9" d="m51.9 39.7c0.4-3.4-1.7-7.1-4-9.6"/>


	<path class="st7" d="m97.7 48.4c7.6 0 13.7 9.2 13.7 20.5s-6.1 20.5-13.7 20.5-13.7-9.2-13.7-20.5 6.1-20.5 13.7-20.5z"/>
	<path class="st8" d="m97.6 55.4c5.1 0 9.1 6 9.1 13.2s-4.1 13.2-9.1 13.2c-5.1 0-9.1-6-9.1-13.2s4-13.2 9.1-13.2z"/>
	<path class="st2" d="m94.7 60.7c1.5-0.1 2.9 1.2 3.1 3.1s-0.9 3.5-2.4 3.7c-1.5 0.1-2.9-1.2-3.1-3.1-0.1-1.8 0.9-3.4 2.4-3.7z"/>
	<path class="st9" d="m94.2 39.5c-0.1-3.5 1.1-8.8 3.9-11.1"/>
	<path class="st9" d="m98.8 39.7c-0.4-3.4 1.7-7.1 4-9.6"/>


	<path class="st10" d="m131.7 60.5c1.6-5.6 2-11 2.6-17.1 0.2-2 0.1-2 0.2-3 0.2-2.1 1-8.5 3.1-11.3 3.6-4.7 16.2-5.6 21.4 0.1 8.4 9.3-8.4 30.3 0.7 40.2 4.4 4.9 9.5 0.9 15.6 6.4 9 8.2 7.2 25.1 4 34.6-1.5 4.6-2.9 8.8-6.8 12.4-9.9 9.1-29.2 8-40-1.9-6.8-6.2-8.5-14.3-9.1-17.1-2.9-13.5 2.8-28.2 6.2-37.3 0.6-1.6 1.3-3.3 2.1-6z"/>
	<path class="st11" d="m149 49.1c1.6-0.1 4.2-0.3 6.3-2.2 2.9-2.6 2.9-6.6 2.9-8.2s0-4.3-1.6-6.4c-3.7-4.9-14.1-4.5-17.4 0.3-1.2 1.7-1.5 3.9-1.5 4.5-0.3 3.2 0.8 5.6 1.2 6.5 0.5 1.1 1.4 2.9 3.5 4.2 2.6 1.6 5.2 1.4 6.6 1.3z"/>
	<path class="st11" d="m159.2 105.3c-2.8-2-6.2-1.9-8.2-1.7-2.2 0.1-6.9 0.5-9.3 5.4-0.3 0.5-2 4.1-1.2 8.3 0.9 5.1 6.1 10.5 12.3 10 5.1-0.4 8.6-4.5 10-8.4 1.5-4.7 0.4-10.7-3.6-13.6z"/>
	<path class="st11" d="m166.1 91.2c0.6-6.7-4.8-12.1-9.7-13.8-3.3-1.1-6.2-0.6-9.1 0-1.4 0.3-7.6 1.5-10.5 5.9-0.2 0.3-0.3 0.5-0.4 0.6 0 0-1.9 3.3-1.3 7.8 0.7 5.3 9.6 13.5 19.1 11.4 4.9-1.1 11.3-5 11.9-11.9z"/>
	<path class="st12" d="m168.6 125.3c-2.1 1.1-9.6 4.5-17.8 1.7-2.3-0.8-9.3-3.2-10.7-9.3-0.9-3.8 0.9-7.8 3.1-10.1 3.2-3.4 7.7-3.8 14.1-4.4 4.7-0.4 9.4-0.1 9.4-0.1l-1.6-0.1c-9.5-0.2-22.4-0.4-27.4-7.5-2.4-3.5-2.1-7.4-2.1-7.8s0.4-4.2 3.2-7.1c2.7-2.8 6.6-3.5 26.6-3.8 5.9-0.1 9.7-0.1 9.8-1s-3-2.1-5.9-3.1"/>

</svg>
