<svg version="1.1" xmlns="http://www.w3.org/2000/svg">
    <symbol id="ic_alarm-check" viewBox="0 0 32 32">
        <path d="M16 4a14 14 0 1 0 0 28 14 14 0 0 0 0-28zm0 25a11 11 0 1 1 0-22 11 11 0 0 1 0 22zM29 9l1-3a6 6 0 0 0-11-4c4 1 8 4 10 7zM13 2A6 6 0 0 0 3 9c2-3 6-6 10-7z"/>
        <path d="M22 13l-8 8-3-3-2 2 5 5 10-10z"/>
    </symbol>
    <symbol id="ic_align-justify" viewBox="0 0 32 32">
        <path d="M0 10h32v2H0zm0 8h32v2H0zm0 8h32v2H0zM0 6h32v2H0zm0 8h32v2H0zm0 8h32v2H0z"/>
    </symbol>
    <symbol id="ic_arrow-backward" viewBox="0 0 32 32">
        <path d="M7.2 17.2l14.2 14.2c.3.3.8.5 1.2.5s.9-.2 1.2-.5l1-1c.7-.7.7-1.8 0-2.5L12.9 16 24.8 4.1c.3-.3.5-.8.5-1.2s-.2-.9-.5-1.2l-1-1c-.3-.3-.8-.5-1.2-.5s-.9.2-1.2.5L7.2 14.8c-.3.3-.5.8-.5 1.2 0 .5.2.9.5 1.2h0z"/>
    </symbol>
    <symbol id="ic_arrow-down" viewBox="0 0 32 32">
        <path d="M32 11l-6-6-10 10L6 5l-6 6 16 16z"/>
    </symbol>
    <symbol id="ic_arrow-left" viewBox="0 0 32 32">
        <path d="M16 32a16 16 0 1 0 0-32 16 16 0 0 0 0 32zm0-29a13 13 0 1 1 0 26 13 13 0 0 1 0-26z"/>
        <path d="M15 8l-8 8 8 8 3-3-3-3h9v-4h-9l3-3z"/>
    </symbol>
    <symbol id="ic_arrow-next" viewBox="0 0 32 32">
        <path d="m24.839407,14.758917l-14.156114,-14.14965c-0.329663,-0.329663 -0.76275,-0.510654 -1.228156,-0.510654s-0.904957,0.180991 -1.228156,0.510654l-1.047165,1.040701c-0.678718,0.678718 -0.678718,1.784058 0,2.462776l11.887257,11.887257l-11.900185,11.893721c-0.329663,0.329663 -0.510654,0.76275 -0.510654,1.228156c0,0.465406 0.180991,0.904957 0.510654,1.228156l1.040701,1.040701c0.329663,0.329663 0.76275,0.510654 1.228156,0.510654s0.904957,-0.180991 1.228156,-0.510654l14.175506,-14.162578c0.329663,-0.329663 0.510654,-0.769213 0.50419,-1.23462c0,-0.465406 -0.174527,-0.904957 -0.50419,-1.23462z"/>
    </symbol>
    <symbol id="ic_arrow-right" viewBox="0 0 32 32">
        <path d="M16 0a16 16 0 1 0 0 32 16 16 0 0 0 0-32zm0 29a13 13 0 1 1 0-26 13 13 0 0 1 0 26z"/>
        <path d="M17 24l8-8-8-8-3 3 3 3H8v4h9l-3 3z"/>
    </symbol>
    <symbol id="ic_arrow-up" viewBox="0 0 32 32">
        <path d="M0 21l6 6 10-10 10 10 6-6L16 5z"/>
    </symbol>
    <symbol id="ic_article" viewBox="0 0 32 32">
        <path d="M8 12V2h13l3 3v7h2V5 4l-4-4H7L6 1v11h2zM32 26l-5-8h3v-4H2v4h3l-5 8v5l1 1h30l1-1v-4-1zm-11-8h2a1 1 0 0 1 0 2h-2a1 1 0 0 1 0-2zm0 4h2a1 1 0 0 1 0 2h-2a1 1 0 0 1 0-2zm-6-4h2a1 1 0 0 1 0 2h-2a1 1 0 0 1 0-2zm0 4h2a1 1 0 0 1 0 2h-2a1 1 0 0 1 0-2zm-6-4h2a1 1 0 0 1 0 2H9a1 1 0 0 1 0-2zm0 4h2a1 1 0 0 1 0 2H9a1 1 0 0 1 0-2zm18 6H5a1 1 0 0 1 0-2h22a1 1 0 0 1 0 2z"/>
        <path d="M11 6h8a1 1 0 0 0 0-2h-8a1 1 0 0 0 0 2zM21 8H11a1 1 0 0 0 0 2h10a1 1 0 0 0 0-2z"/>
    </symbol>
    <symbol id="ic_bell" viewBox="0 0 32 32">
        <path d="m29.187 26.948s-2.2805-3.8013-2.2805-3.8013c-1.0532-1.7545-1.6098-3.7642-1.6098-5.8096v-3.3298c0-4.2038-2.8052-7.7593-6.641-8.9056v-2.3841c0-1.465-1.1914-2.6564-2.6564-2.6564-1.465 0-2.6564 1.1914-2.6564 2.6564v2.3841c-3.8358 1.1463-6.641 4.7018-6.641 8.9056v3.3298c0 2.0454-0.55654 4.0537-1.6085 5.8083l-2.2805 3.8013c-0.12352 0.2059-0.12621 0.46091-0.007969 0.66942 0.11822 0.20852 0.33738 0.33739 0.57645 0.33739h25.236c0.23908 0 0.45953-0.12882 0.57777-0.33602 0.11822-0.20725 0.11424-0.46495-0.007969-0.66947z"/>
        <path d="m11.817 29.282c0.74911 1.5647 2.335 2.6564 4.1825 2.6564s3.4334-1.0918 4.1825-2.6564h-8.365z"/>
    </symbol>
    <symbol id="ic_bin" viewBox="0 0 32 32">
        <path d="M4 10v20c0 1.1.9 2 2 2h18a2 2 0 0 0 2-2V10H4zm6 18H8V14h2v14zm4 0h-2V14h2v14zm4 0h-2V14h2v14zm4 0h-2V14h2v14zM26.5 4H20V1.5c0-.8-.7-1.5-1.5-1.5h-7c-.8 0-1.5.7-1.5 1.5V4H3.5C2.7 4 2 4.7 2 5.5V8h26V5.5c0-.8-.7-1.5-1.5-1.5zM18 4h-6V2h6v2z"/>
    </symbol>
    <symbol id="ic_blocked" viewBox="0 0 32 32">
        <path d="M27.3 4.7a15.9 15.9 0 0 0-22.6 0 15.9 15.9 0 0 0 0 22.6 15.9 15.9 0 0 0 22.6 0 15.9 15.9 0 0 0 0-22.6zM28 16c0 2.6-.8 5-2.2 7L9 6.1A12 12 0 0 1 28 16zM4 16c0-2.6.8-5 2.2-7L23 25.9A12 12 0 0 1 4 16z"/>
    </symbol>
    <symbol id="ic_book" viewBox="0 0 32 32">
        <path d="M28 4v26H7a3 3 0 1 1 0-6h19V0H6C4 0 2 2 2 4v24c0 2 2 4 4 4h24V4h-2z"/>
        <path d="M7 26a1 1 0 0 0 0 2h19v-2H7z"/>
    </symbol>
    <symbol id="ic_bookmark" viewBox="0 0 32 32">
        <path d="M28 4v26H7a3 3 0 1 1 0-6h19V0H6C4 0 2 2 2 4v24c0 2 2 4 4 4h24V4h-2zM10 1h10v14l-5-5-5 5V1z"/>
        <path d="M7 26a1 1 0 0 0 0 2h19v-2H7z"/>
    </symbol>
    <symbol id="ic_bubble" viewBox="0 0 32 32">
        <path d="M26.13 2H5.88A5.9 5.9 0 0 0 0 7.88V30l6-6h20.13A5.9 5.9 0 0 0 32 18.12V7.88A5.9 5.9 0 0 0 26.12 2zM28 18.13A1.9 1.9 0 0 1 26.12 20H4V7.87A1.9 1.9 0 0 1 5.88 6h20.25A1.9 1.9 0 0 1 28 7.88v10.25z"/>
    </symbol>
    <symbol id="ic_bubble-dark" viewBox="0 0 32 32">
        <path d="M26.1,2H5.9C2.6,2,0,4.6,0,7.9V30l6-6h20.1c3.2,0,5.9-2.6,5.9-5.9V7.9C32,4.6,29.4,2,26.1,2z M7.3,16.3 c-1.5,0-2.8-1.2-2.8-2.8s1.2-2.8,2.8-2.8c1.5,0,2.8,1.2,2.8,2.8S8.8,16.3,7.3,16.3z M16.4,16.3c-1.5,0-2.8-1.2-2.8-2.8 s1.2-2.8,2.8-2.8c1.5,0,2.8,1.2,2.8,2.8S17.9,16.3,16.4,16.3z M25.4,16.3c-1.5,0-2.8-1.2-2.8-2.8s1.2-2.8,2.8-2.8 c1.5,0,2.8,1.2,2.8,2.8S27,16.3,25.4,16.3z"/>
    </symbol>
    <symbol id="ic_bubble-dark-disabled" viewBox="0 0 32 32">
        <path d="M30.6 4.1a3.04 3.04 0 0 1-.5.7l-6 6.2c.4-.2.8-.3 1.3-.3 1.5 0 2.8 1.2 2.8 2.8a2.73 2.73 0 0 1-2.8 2.8c-1.5 0-2.8-1.2-2.8-2.8 0-.4.1-.8.2-1.1L11.8 24h14.3c3.2 0 5.9-2.6 5.9-5.9V7.9c0-1.5-.5-2.8-1.4-3.8zM22.8 2H5.9C2.6 2 0 4.6 0 7.9v18L22.8 2zM7.3 10.7c1.5 0 2.8 1.2 2.8 2.8s-1.3 2.8-2.8 2.8-2.8-1.2-2.8-2.8a2.73 2.73 0 0 1 2.8-2.8zM.7 30.4h0c-.7-.6-.7-1.7-.1-2.3L26.6.8c.6-.7 1.7-.7 2.3-.1h0c.7.6.8 1.7.1 2.3L3 30.3c-.6.7-1.6.7-2.3.1z"/>
    </symbol>
    <symbol id="ic_bubbles6" viewBox="0 0 37 32">
        <path d="M32 6c2 0 4 2 4 4v22l-6-6H12c-2 0-4-2-4-4v-2h4v2h20V10h-2V6h2zm-8-6H4C2 0 0 2 0 4v20l6-6h18c2 0 4-2 4-4V4c0-2-2-4-4-4zm0 14H4V4h20v10z"/>
    </symbol>
    <symbol id="ic_cancel-circle" viewBox="0 0 32 32">
        <path d="M16 0a16 16 0 1 0 0 32 16 16 0 0 0 0-32zm0 29a13 13 0 1 1 0-26 13 13 0 0 1 0 26z"/>
        <path d="M21 8l-5 5-5-5-3 3 5 5-5 5 3 3 5-5 5 5 3-3-5-5 5-5z"/>
    </symbol>
    <symbol id="ic_checkbox-checked2" viewBox="0 0 32 32">
        <path d="M28 0H4a4 4 0 0 0-4 4v24a4 4 0 0 0 4 4h24a4 4 0 0 0 4-4V4a4 4 0 0 0-4-4zM14 24.8l-7.4-7.4 2.8-2.8 4.6 4.6 9.6-9.6 2.8 2.8L14 24.8z"/>
    </symbol>
    <symbol id="ic_checkbox-unchecked2" viewBox="0 0 32 32">
        <path d="M28 0H4C2 0 0 2 0 4v24c0 2 2 4 4 4h24c2 0 4-2 4-4V4c0-2-2-4-4-4zm0 28H4V4h24v24z"/>
    </symbol>
    <symbol id="ic_coins" viewBox="0 0 32 32">
        <path d="M21 10l-2.2.1-.1-.1c.8-.6 1.3-1.3 1.3-2V6c0-2.2-4.5-4-10-4S0 3.8 0 6v2c0 .7.5 1.4 1.3 2-.8.6-1.3 1.3-1.3 2v2c0 .7.5 1.4 1.3 2-.8.6-1.3 1.3-1.3 2v2c0 .7.5 1.4 1.3 2-.8.6-1.3 1.3-1.3 2v2c0 2.2 4.5 4 10 4 1.5 0 2.9-.1 4.1-.4A11 11 0 1 0 21 10zM1 6c0-.6.9-1.3 2.3-1.9C5.1 3.4 7.5 3 10 3s5 .4 6.7 1.1C18.1 4.7 19 5.4 19 6s-.9 1.3-2.3 1.9l-2 .6a21.4 21.4 0 0 1-11.4-.6C1.9 7.3 1 6.6 1 6zm0 12c0-.4.5-1 1.3-1.4a18.6 18.6 0 0 0 8 1.4c-.2 1-.4 2-.4 3a21.4 21.4 0 0 1-6.6-1.1C1.9 19.3 1 18.6 1 18zm9 9c-2.5 0-5-.4-6.7-1.1C1.9 25.3 1 24.6 1 24c0-.4.5-1 1.3-1.4a18.6 18.6 0 0 0 8 1.4c.3 1 .8 2 1.4 3H10zm0-12a21.4 21.4 0 0 1-6.7-1.1C1.9 13.3 1 12.6 1 12c0-.4.5-1 1.3-1.4a21.8 21.8 0 0 0 13.2.8 11 11 0 0 0-3.8 3.5L10 15zm11 15a9 9 0 1 1 0-18 9 9 0 0 1 0 18zm1-16h-2v2h-4v6h4v2h-4v2h4v2h2v-2h4v-6h-4v-2h4v-2h-4v-2zm-2 6h-2v-2h2v2zm4 2v2h-2v-2h2z"/>
    </symbol>
    <symbol id="ic_ordered-list" viewBox="0 0 32 32">
        <path d="M3.16 11.84H1.08c-.57 0-1.04.47-1.04 1.04s.47 1.04 1.04 1.04h2.08c.2 0 .35.16.35.35v.35c0 .2-.16.35-.35.35h-.7c-1.34 0-2.43 1.1-2.43 2.43v1.73c0 .57.47 1.04 1.04 1.04h3.47c.57 0 1.04-.47 1.04-1.04s-.47-1.04-1.04-1.04H2.13v-.7c0-.2.16-.35.35-.35h.7c1.34 0 2.43-1.1 2.43-2.43v-.35c-.01-1.34-1.1-2.42-2.44-2.42z"/>
        <path d="M3.16 22.94H1.08c-.57 0-1.04.47-1.04 1.04s.47 1.04 1.04 1.04h2.08c.2 0 .35.16.35.35v.35c0 .2-.16.35-.35.35h-1.4c-.57 0-1.04.47-1.04 1.04s.47 1.04 1.04 1.04h1.4c.2 0 .35.16.35.35v.35c0 .2-.16.35-.35.35H1.08c-.57 0-1.04.47-1.04 1.04s.47 1.04 1.04 1.04h2.08c1.34 0 2.43-1.1 2.43-2.43v-.35c0-.5-.16-1-.44-1.4.27-.4.44-.87.44-1.4v-.35c-.01-1.34-1.1-2.43-2.44-2.43zM1.08 2.82h1.04v5.2c0 .57.47 1.04 1.04 1.04S4.2 8.6 4.2 8.02V1.78C4.2 1.2 3.74.73 3.17.73h-2.1C.5.73.04 1.2.04 1.78S.5 2.82 1.08 2.82zM9.75 6.3h20.82a1.4 1.4 0 0 0 1.4-1.4c0-.78-.62-1.4-1.4-1.4H9.75a1.4 1.4 0 0 0-1.4 1.4c0 .78.62 1.4 1.4 1.4zm20.82 8.32H9.75a1.4 1.4 0 0 0-1.4 1.4c0 .78.62 1.4 1.4 1.4h20.82a1.4 1.4 0 0 0 1.4-1.4c0-.78-.62-1.4-1.4-1.4zm0 11.1H9.75a1.4 1.4 0 0 0-1.4 1.4c0 .78.62 1.4 1.4 1.4h20.82a1.4 1.4 0 1 0 0-2.8z"/>
    </symbol>
    <symbol id="ic_cross" viewBox="0 0 32 32">
        <path d="M32 26L22 16 32 6a1 1 0 0 0 0-1l-5-5a1 1 0 0 0-1 0L16 10 6 0a1 1 0 0 0-1 0L0 5a1 1 0 0 0 0 1l10 10L0 26v1l5 5a1 1 0 0 0 1 0l10-10 10 10a1 1 0 0 0 1 0l5-5a1 1 0 0 0 0-1z"/>
    </symbol>
    <symbol id="ic_crown" viewBox="0 0 32 32">
        <path d="M8 24h16v4H8zM30 6a2 2 0 0 0-2 3l-7 5-1-6a2 2 0 1 0-1 0l-3 6-3-6a2 2 0 1 0-1 0l-1 6-7-5V8a2 2 0 1 0-1 2l5 12h16l5-12h1a2 2 0 1 0 0-4z"/>
    </symbol>
    <symbol id="ic_download" viewBox="0 0 32 32">
        <path d="M6 32h20a6 6 0 0 0 6-6H0a6 6 0 0 0 6 6zm20-4h2v2h-2v-2zM25 8l-9 9-9-9h7V0h4v8zm7 15c.1.6-.2 1-.8 1H.8c-.6 0-1-.4-.8-1l3.5-10c.2-.6.8-1 1.3-1H7l8 8h2l8-8h2.2c.5 0 1.1.4 1.3 1L32 23z"/>
    </symbol>
    <symbol id="ic_edit" viewBox="0 0 32 32">
        <path d="M0 32C4 20 14 0 32 0c-8 7-12 22-18 22H8L2 32H0z"/>
    </symbol>
    <symbol id="ic_eye-blocked" viewBox="0 0 32 32">
        <path d="M29.6.4C29 0 28 0 27.4.4l-6.3 6.4A18 18 0 0 0 0 16c1.3 2.6 3.1 4.8 5.4 6.5l-5 5a1.5 1.5 0 1 0 2.2 2l27-27c.5-.5.5-1.5 0-2zM13 10a3 3 0 0 1 2.8 2L12 15.8a3 3 0 0 1 1-5.8zm-9.6 6a15.2 15.2 0 0 1 5-5 8 8 0 0 0 1 7.4l-1.8 2c-1.7-1.2-3-2.7-4.2-4.4zM24 13.8a8 8 0 0 0-.4-2.4l-10 10A8 8 0 0 0 24 13.8z"/>
        <path d="M26 9l-2.2 2.2v.1c2 1.2 3.6 2.8 4.8 4.7a14.6 14.6 0 0 1-16.1 6.6L10 25a18 18 0 0 0 22-9 18.3 18.3 0 0 0-6-7z"/>
    </symbol>
    <symbol id="ic_globe" viewBox="0 0 32 32">
        <path d="M16 0a16 16 0 1 0 0 32 16 16 0 0 0 0-32zm-5 3v1L6 9H4c1-3 4-5 7-6zm5 17l-7 8-1-1v-6l-4-3v-5l1-1h3s3 4 8 5v3zm12-5l-3-2-2-1a5 5 0 0 1 0-8 14 14 0 0 1 5 19v-8z"/>
    </symbol>
    <symbol id="ic_laurel" viewBox="0 0 32 32">
        <path d="M26.7 8c-3.2-.8-5.1-3.4-5.5-6.6 3.2.2 5 3.6 5.5 6.6zm-.5-6.9c2.2 1 3.4 5.3 2.1 7.9C26 8 26 4.1 26.2 1.1zM3.9 3c.9 2.3.7 5.7-.6 7.3-2.1-1.8-.1-5.5.6-7.3zm25.6 3.7c1.9 1.8 2.3 6.5 0 8.6-1.8-2-.9-5.7 0-8.6zm-20.8.5c1 1.7-2.7 3.7-4.9 4.3C2.5 8.9 7 8.3 8.7 7.2zM28.1 13c-2.5-.9-5.1-3.5-5.3-6.6 2.4 1.1 5.4 2.9 5.3 6.6z"/>
        <path d="M26.7 12.6c1.6 1.9 1.2 6.7-.6 8.1-.9-2.5-1.5-6.4.6-8.1zm-26.4 8c2.9.3 6.8 1.6 7.8 4.7-3.2.2-6.7-1.6-7.8-4.7zM25 17.7c.4 3.6-.8 7.4-4 8.2a12.1 12.1 0 0 1 4-8.2zM6.7 16c1.7 3 4.9 6.1 3.1 9.4C7 22.6 5.3 19.2 6.7 16zm5.8-14.8c-.9 2.9-2.3 5.3-5.2 6.2-.6-3.3 2.9-5.9 5.2-6.2zM5.3 8.3c-1.2-.9 0-5.3 1-7.2 1.9 1.3 1.2 6.2-1 7.2zM5 11.1c1.4.3 1.8 5.4.2 6.9-1.7-2.3-1.6-4.9-.2-6.9zm-1.8 5.1c-2-1.4-3.3-4.3-2.5-7.7 2.3.5 4.1 4.8 2.5 7.7zm-3.5-1.4c2.8 1.2 6.2 2.5 6 6.6-3.3.8-5.4-4.2-6-6.6zm32-.9c.1 2.8-1.5 5.8-4.2 6.2-.4-3.6 2.3-4.8 4.2-6.2zm-.2 4.6a8 8 0 0 1-7.6 7.4c.5-3.9 4.3-5.8 7.6-7.4zm-15.4 9.2c3.2-1.1 7.3-2.7 10.5-.8-.6 4.3-9.1.9-9.7 1.2 1.2.9 5.2 2.3 2.7 3.8-.9-1.5-2-2-3.5-2.9-2 .6-3.1 1.2-4.1 2.8-.6-.1-1-.9-.9-1.3 1.2-1 2.5-1.6 4.1-2.3-.8-.6-8.6 2.7-9.7-1.6 3.2-2.3 7.5-.1 10.6 1.1z"/>
    </symbol>
    <symbol id="ic_neutral" viewBox="0 0 32 32">
        <path d="M16 32a16 16 0 1 0 0-32 16 16 0 0 0 0 32zm0-29a13 13 0 1 1 0 26 13 13 0 0 1 0-26zm-8 7a2 2 0 1 0 4 0 2 2 0 0 0-4 0zm12 0a2 2 0 1 0 4 0 2 2 0 0 0-4 0zm-8 12h8v2h-8v-2z"/>
    </symbol>
    <symbol id="ic_other" viewBox="0 0 32 32">
        <path d="M16 0a16 16 0 1 0 0 32 16 16 0 0 0 0-32zm0 28a12 12 0 1 1 0-24 12 12 0 0 1 0 24z"/>
    </symbol>
    <symbol id="ic_pref-dislike" viewBox="0 0 32 32">
        <path d="M32 11.2c0 2.7-1.16 5.12-3.02 6.8H29L19 28c-1 1-2 2-3 2s-2-1-3-2L3.02 18A9.2 9.2 0 0 1 13.93 3.31L11 8l7 4-4 10 11-12-7-4 2.46-3.7A9.2 9.2 0 0 1 32 11.2z"/>
    </symbol>
    <symbol id="ic_pref-like" viewBox="0 0 32 32">
        <path d="M32 11.2c0 2.7-1.2 5.1-3 6.8L19 28c-1 1-2 2-3 2s-2-1-3-2L3 18A9.2 9.2 0 1 1 16 5a9.2 9.2 0 0 1 16 6.2z"/>
    </symbol>
    <symbol id="ic_sad" viewBox="0 0 32 32">
        <path d="M16 32a16 16 0 1 0 0-32 16 16 0 0 0 0 32zm0-29a13 13 0 1 1 0 26 13 13 0 0 1 0-26zm-8 7a2 2 0 1 1 4 0 2 2 0 0 1-4 0zm12 0a2 2 0 1 1 4 0 2 2 0 0 1-4 0zM10 24.4l-2.6-1.5a10 10 0 0 1 17.2 0L22 24.4a7 7 0 0 0-12 0z"/>
    </symbol>
    <symbol id="ic_share" viewBox="0 0 32 32">
        <path d="M27 22c-1.411 0-2.685 0.586-3.594 1.526l-13.469-6.734c0.041-0.258 0.063-0.522 0.063-0.791s-0.022-0.534-0.063-0.791l13.469-6.734c0.909 0.94 2.183 1.526 3.594 1.526 2.761 0 5-2.239 5-5s-2.239-5-5-5-5 2.239-5 5c0 0.269 0.022 0.534 0.063 0.791l-13.469 6.734c-0.909-0.94-2.183-1.526-3.594-1.526-2.761 0-5 2.239-5 5s2.239 5 5 5c1.411 0 2.685-0.586 3.594-1.526l13.469 6.734c-0.041 0.258-0.063 0.522-0.063 0.791 0 2.761 2.239 5 5 5s5-2.239 5-5c0-2.761-2.239-5-5-5z"/>
    </symbol>
    <symbol id="ic_smile" viewBox="0 0 32 32">
        <path d="M16 32a16 16 0 1 0 0-32 16 16 0 0 0 0 32zm0-29a13 13 0 1 1 0 26 13 13 0 0 1 0-26zm-8 7a2 2 0 1 1 4 0 2 2 0 0 1-4 0zm12 0a2 2 0 1 1 4 0 2 2 0 0 1-4 0zm2 9.6l2.6 1.5a10 10 0 0 1-17.2 0l2.6-1.5a7 7 0 0 0 12 0z"/>
    </symbol>
    <symbol id="ic_stack2" viewBox="0 0 32 32">
        <path d="M32 10L16 2 0 10l16 8 16-8zM16 4.7L26.7 10 16 15.3 5.3 10 16 4.7zm12.8 9.7L32 16l-16 8-16-8 3.2-1.6L16 20.8zm0 6L32 22l-16 8-16-8 3.2-1.6L16 26.8z"/>
    </symbol>
    <symbol id="ic_star-full" viewBox="0 0 32 32">
        <path d="M32 12.7a1 1 0 0 0-1-.7H20.3L17 1.8a1 1 0 0 0-2 0L11.7 12H1a1 1 0 0 0-.6 1.8l8.7 6.3-3.3 10.1a1 1 0 0 0 1.5 1.2L16 25l8.7 6.3a1 1 0 0 0 1.5-1.2L23 20.1l8.7-6.3c.3-.2.5-.7.3-1.1z"/>
    </symbol>
    <symbol id="ic_thumbs-up" viewBox="0 0 32 32">
        <path d="M31,20c0-1-0.6-1.9-1.4-2.5c0.3-0.4,0.4-1,0.4-1.5c0-1.7-1.3-3-3-3h-5.9c0.7-2.5,1.1-5.1,1.1-7.8 C22.2,2.9,20.3,1,18,1s-4.2,1.9-4.2,4.2c0,3.2-1.2,5.7-3.6,7.4c-0.7,0.5-1.4,0.9-2.2,1.2V11H0v20h8v-2c1.9,0.1,2.8,0.6,3.7,1 c0.9,0.5,1.8,0.9,3.3,0.9h10c1.7,0,3-1.3,3-3c0-0.4-0.1-0.8-0.2-1.1c1.3-0.3,2.2-1.5,2.2-2.9c0-0.6-0.2-1.1-0.4-1.5 C30.4,21.9,31,21,31,20L31,20z M21,15h6c0.6,0,1,0.4,1,1c0,0.6-0.4,1-1,1h-6c-0.6,0-1-0.4-1-1C20,15.4,20.4,15,21,15z M17.4,21.5 C16.6,22,16,22.9,16,24c0,1.1,0.6,2,1.4,2.5C17.1,27,17,27.5,17,28c0,0.4,0.1,0.7,0.2,1H15c-1.1,0-1.6-0.3-2.4-0.7 c-1-0.5-2.2-1.1-4.6-1.3V16.3c1.3-0.5,2.5-1,3.6-1.8c3-2.1,4.6-5.4,4.6-9.4c0-1,0.8-1.8,1.8-1.8s1.8,0.8,1.8,1.8 c0,2.7-0.4,5.3-1.2,7.8c-0.2,0.8-0.4,1.5-0.5,2.1c-0.1,0.3-0.1,0.5-0.1,0.8c0,0,0,0,0,0.1c0,0.6,0.2,1.1,0.4,1.5 C17.6,18.1,17,19,17,20C17,20.5,17.1,21,17.4,21.5L17.4,21.5z M25,29h-5c-0.6,0-1-0.4-1-1s0.4-1,1-1h5c0.6,0,1,0.4,1,1 S25.6,29,25,29z M27,25h-8c-0.6,0-1-0.4-1-1s0.4-1,1-1h8c0.6,0,1,0.4,1,1S27.6,25,27,25z M27.8,21h-7.5c-0.7,0-1.2-0.5-1.2-1 s0.6-1,1.2-1h7.5c0.7,0,1.2,0.5,1.2,1S28.4,21,27.8,21z M4,28c0,0.6-0.4,1-1,1s-1-0.4-1-1s0.4-1,1-1S4,27.4,4,28z"/>
    </symbol>
    <symbol id="ic_thumbs-up-disabled" viewBox="0 0 32 32">
        <path d="M.4 27.1l7.6-8v-2.8c1.3-.5 2.5-1 3.6-1.8 3-2.1 4.6-5.4 4.6-9.4a1.8 1.8 0 1 1 3.6 0c0 .6 0 1.1-.1 1.7l2.4-2.5C21.7 2.4 20 1 18 1a4.23 4.23 0 0 0-4.2 4.2c0 3.2-1.2 5.7-3.6 7.4-.7.5-1.4.9-2.2 1.2V11H0v16.6c.1-.2.2-.3.4-.5zm29.2-9.6c.3-.4.4-1 .4-1.5 0-1.7-1.3-3-3-3h-3.1L22 15h5a.94.94 0 0 1 1 1 .94.94 0 0 1-1 1h-6c-.3 0-.5-.1-.7-.2L17 20.2c0 .4.1.9.4 1.3-.8.5-1.4 1.4-1.4 2.5s.6 2 1.4 2.5c-.3.5-.4 1-.4 1.5 0 .4.1.7.2 1H15c-1.1 0-1.6-.3-2.4-.7-.6-.3-1.3-.7-2.4-.9L8.6 29c1.5.2 2.3.6 3.1 1 .9.5 1.8.9 3.3.9h10c1.7 0 3-1.3 3-3 0-.4-.1-.8-.2-1.1 1.3-.3 2.2-1.5 2.2-2.9 0-.6-.2-1.1-.4-1.5.8-.5 1.4-1.4 1.4-2.4s-.6-1.9-1.4-2.5zM25 29h-5a.94.94 0 0 1-1-1 .94.94 0 0 1 1-1h5a.94.94 0 0 1 1 1 .94.94 0 0 1-1 1zm2-4h-8a.94.94 0 0 1-1-1 .94.94 0 0 1 1-1h8a.94.94 0 0 1 1 1 .94.94 0 0 1-1 1zm.8-4h-7.5c-.7 0-1.2-.5-1.2-1s.6-1 1.2-1h7.5c.7 0 1.2.5 1.2 1s-.6 1-1.2 1zM6.7 31H8v-1.3zM30.1 1.2c-.3-.3-.7-.5-1.1-.5-.5 0-.9.2-1.2.5l-26 27.3c-.6.6-.6 1.7.1 2.3.3.3.7.5 1.1.5s.9-.2 1.2-.5l26-27.3c.6-.6.6-1.7-.1-2.3z"/>
    </symbol>
    <symbol id="ic_twt" viewBox="0 0 32 32">
        <path d="M31.9 6.1a13 13 0 0 1-3.8 1c1.4-.8 2.4-2 3-3.6a13 13 0 0 1-4.2 1.6 6.5 6.5 0 0 0-11.2 6A18.5 18.5 0 0 1 2.3 4.3a6.5 6.5 0 0 0 2 8.7c-1 0-2-.3-3-.8 0 3.2 2.3 5.8 5.3 6.4a6.6 6.6 0 0 1-3 .2 6.5 6.5 0 0 0 6.1 4.5A13.1 13.1 0 0 1 .1 26 18.5 18.5 0 0 0 28.7 9.5c1.2-1 2.3-2 3.2-3.4z"/>
    </symbol>
    <symbol id="ic_user" viewBox="0 0 32 32">
        <path d="M18 22v-2c3-1 5-5 5-9 0-6 0-11-7-11S9 5 9 11c0 4 2 8 5 9v2C6 23 0 27 0 32h32c0-5-6-9-14-10z"/>
    </symbol>
    <symbol id="ic_vk" viewBox="0 0 32 32">
        <path d="M30.66 7.75H25.5a1.17 1.17 0 0 0-1.03.62s-2.06 3.8-2.72 5.08c-1.79 3.44-2.94 2.36-2.94.76v-5.5a1.74 1.74 0 0 0-1.74-1.74h-3.88a3.12 3.12 0 0 0-2.76 1.27s1.98-.32 1.98 2.34l.06 4.15a1.15 1.15 0 0 1-2 .8 33.86 33.86 0 0 1-3.93-7.14 1.09 1.09 0 0 0-.99-.64H.84A.8.8 0 0 0 .1 8.83c1.43 3.91 7.57 16.21 14.59 16.21h2.95a1.17 1.17 0 0 0 1.17-1.16v-1.79a1.15 1.15 0 0 1 1.93-.83l3.54 3.32a1.71 1.71 0 0 0 1.17.46h4.64c2.24 0 2.24-1.55 1.02-2.75a328.1 328.1 0 0 1-3.96-4.12 1.6 1.6 0 0 1-.12-2.08c1-1.31 2.64-3.47 3.33-4.4.95-1.26 2.67-3.94.31-3.94z"/>
    </symbol>
    <symbol id="ic_youtube" viewBox="0 0 32 32">
        <path d="M31.7 9.3c0-2.8-2-5-4.6-5-3.4-.2-7-.2-10.5-.2h-1.2C12 4 8.4 4 5 4.3 2.3 4.3.3 6.5.3 9.3a91.2 91.2 0 0 0 0 13.3c0 2.8 2 5.1 4.6 5.1a232 232 0 0 0 22.2 0c2.6 0 4.6-2.3 4.6-5a95.2 95.2 0 0 0 0-13.4zM13 22.1V9.9l9 6-9 6.2z"/>
    </symbol>
    <symbol id="logo_min" viewBox="0 0 200 200">
        <path fill="#c69e6b"
              d="M181.3.5L175 1a86.3 86.3 0 0 0-16.5 2 72.2 72.2 0 0 0-7.2 1.4 194.2 194.2 0 0 0-43 16.5A178 178 0 0 0 48 74.4c-3.4 4.7-3.4 4.8-4 9.8l-1 6.4-.2 1.3-.8-1.3-1.4-2.4c-.7-1.7-1.4-1.5-4.2 1.7-4.5 5-6.5 9-9.4 19.4-2.5 8.7-2 8-3.6 6.6-.8-.7-1.5-1-1.6-.8-.2.3-.3 2.5-.4 4.9-.1 4.2-.1 4.3-1.5 4.6-1 .3-1.4.8-1.6 2.2l-.5 3.5a101 101 0 0 0-.8 17.6l3.6-6.4a484.2 484.2 0 0 1 13.9-24c2.3-4 13.9-20.9 16.2-23.7l2.8-3.6c6-8.1 16.5-20.2 25.1-28.9a242 242 0 0 1 54.4-40.6c0 .2-2.2 2-5.2 4a436 436 0 0 0-32.2 25 718.6 718.6 0 0 0-16.5 16 581.3 581.3 0 0 0-19.2 22 642.7 642.7 0 0 0-13.7 18.5C18.3 148 9.3 166 .7 197.8c-.4 1.3-.5 2.2-.2 2 .7-.4 6.4-8.8 6.4-9.3 0-.4 1-3 7.4-18.3l2.2-5.4 10-4.5c5.6-2.5 10.5-4.7 10.9-5l6.4-3 5.6-2.4-2.4-.7a49 49 0 0 1-3.2-1c-.4-.3-1-.4-1.4-.5l-.9-.4 13-5.6c7.3-3 13.1-5.4 13-5.6-.1-.1-5-1-8.1-1.4a11 11 0 0 1-2.4-.5c-.2-.3 14.8-4.7 15.3-4.6a1117.6 1117.6 0 0 0 30-36.5l5.9-7.2L121 72c.9-1 1.6-2.1 1.6-2.3 0-.2-5-1.5-11.3-2.9-10.4-2.2-14.6-3.4-11.9-3.3a238.7 238.7 0 0 0 20-1.6c2.5-.1 5.6-.4 7-.6 2.7-.3 3-.5 8-7.3l3.8-5.1c1.7-2.2 1.7-2.5 0-3-.8-.1-2.2-.6-3.3-.9l-2-.6L139 42c8-3 10.1-4.3 13.3-7.6l8-8.1c3.5-3.4 5.4-5.6 5.3-6.1-.2-.5-.6-.8-1-.8-.3 0-.8-.4-1-.8-.5-.5 1.5-1.7 9.2-5.4l12-6 8.6-4.2 6.2-3-9.1.1-9.3.3z"/>
    </symbol>
    <symbol id="ic_gen" viewBox="0 0 32 32">
        <path d="M31.41 28.59l-6.29-6.3 4.59-4.58a1 1 0 0 0 0-1.42l-2-2a1 1 0 0 0-1.42 0L23 17.6 5.7.29A1 1 0 0 0 5 0H1a1 1 0 0 0-1 1v4c0 .26.1.52.3.7L17.58 23l-3.3 3.3a1 1 0 0 0 0 1.4l2 2a1 1 0 0 0 1.42 0l4.58-4.58 6.3 6.3a2 2 0 1 0 2.82-2.83zM19 22L1.5 4.5l1-1L20 21l-1 1z"/>
    </symbol>
    <symbol id="ic_het" viewBox="0 0 32 32">
        <path d="M26.44.77l-3.62.1a1.2 1.2 0 0 0-1.16 1.25c.02.67.57 1.2 1.23 1.18l2.42-.07a1.2 1.2 0 0 1 1.23 1.19l.07 2.43c.02.67.58 1.2 1.24 1.18a1.2 1.2 0 0 0 1.17-1.25l-.1-3.65-.04-1.22A1.2 1.2 0 0 0 27.64.73l-1.2.04z"/>
        <path d="M26.68.73L19.64 8.2l2.1 1.99L28.7 2.8l-.12-.9A1.35 1.35 0 0 0 27.4.78l-.72-.05z"/>
        <path d="M17.4 6.04a6.34 6.34 0 1 0 0 12.67 6.34 6.34 0 0 0 0-12.68zm0 10.36a4.03 4.03 0 1 1 0-8.05 4.03 4.03 0 0 1 0 8.05zM13.07 30.64l-.14-9.58-2.9.04.14 9.56c0 .32.17.61.43.8.68.49 1.42.43 2.1-.07a.91.91 0 0 0 .37-.75z"/>
        <path d="M8.62 29.01h5.8c.5 0 .97-.3 1.16-.78.18-.44.19-.87.03-1.3-.18-.5-.66-.81-1.18-.81H8.7c-.45 0-.87.23-1.1.62-.28.5-.34 1-.14 1.48.19.48.66.8 1.17.8zM16.4 12.38a6.34 6.34 0 1 0-9.74 8.12 6.34 6.34 0 0 0 9.74-8.12zm-2.3 7.15a4.03 4.03 0 1 1-5.15-6.19 4.03 4.03 0 0 1 5.16 6.2z"/>
    </symbol>
    <symbol id="ic_slash" viewBox="0 0 32 32">
        <path d="M28 0h-24c-2.2 0-4 1.8-4 4v24c0 2.2 1.8 4 4 4h24c2.2 0 4-1.8 4-4v-24c0-2.2-1.8-4-4-4zM28 28h-24v-24h24v24z"/>
    </symbol>
    <symbol id="ic_femslash" viewBox="0 0 32 32">
        <path d="M28 0h-24c-2.2 0-4 1.8-4 4v24c0 2.2 1.8 4 4 4h24c2.2 0 4-1.8 4-4v-24c0-2.2-1.8-4-4-4zM28 28h-24v-24h24v24z"/>
    </symbol>
    <symbol id="ic_file-plus" viewBox="0 0 32 32">
        <path d="M22 8h7.3l-.6-.8A28.4 28.4 0 0 0 22 .7V8z"/>
        <path d="M15.8 25A9.3 9.3 0 0 1 30 17.2V10h-9a1 1 0 0 1-1-1V0H4.5A2.5 2.5 0 0 0 2 2.5v27C2 30.9 3.1 32 4.5 32H19a9.2 9.2 0 0 1-3.2-7z"/>
        <path d="M25 18a7 7 0 1 0 0 14 7 7 0 0 0 0-14zm1 8v4h-2v-4h-4v-2h4v-4h2v4h4v2h-4z"/>
    </symbol>
    <symbol id="ic_mixed" viewBox="0 0 32 32">
        <path d="M24 22h-3.2l-5-5 5-5H24v5l7-7-7-7v5h-4a2 2 0 0 0-1.4.6L13 14.2 7.4 8.6A2 2 0 0 0 6 8H0v4h5.2l5 5-5 5H0v4h6c.5 0 1-.2 1.4-.6l5.6-5.6 5.6 5.6c.4.4.9.6 1.4.6h4v5l7-7-7-7v5z"/>
    </symbol>
    <symbol id="ic_warning2" viewBox="0 0 32 32">
        <path d="M31.6 28.6L17.9 1.4C17.4.4 16.7 0 16 0s-1.4.5-1.9 1.4L.4 28.6c-1 1.9-.1 3.4 2 3.4h27.2c2.1 0 3-1.5 2-3.4zM16 28a2 2 0 1 1 0-4 2 2 0 0 1 0 4zm2-8a2 2 0 1 1-4 0v-6a2 2 0 1 1 4 0v6z"/>
    </symbol>
    <symbol id="ic_plus-circle" viewBox="0 0 32 32">
        <path d="M16 0c-8.837 0-16 7.163-16 16s7.163 16 16 16 16-7.163 16-16-7.163-16-16-16zM16 28c-6.627 0-12-5.373-12-12s5.373-12 12-12c6.627 0 12 5.373 12 12s-5.373 12-12 12zM24 18h-6v6h-4v-6h-6v-4h6v-6h4v6h6z"/>
    </symbol>
    <symbol id="ic_search" viewBox="0 0 32 32">
        <path d="M31.008 27.231l-7.58-6.447c-0.784-0.705-1.622-1.029-2.299-0.998 1.789-2.096 2.87-4.815 2.87-7.787 0-6.627-5.373-12-12-12s-12 5.373-12 12 5.373 12 12 12c2.972 0 5.691-1.081 7.787-2.87-0.031 0.677 0.293 1.515 0.998 2.299l6.447 7.58c1.104 1.226 2.907 1.33 4.007 0.23s0.997-2.903-0.23-4.007zM12 20c-4.418 0-8-3.582-8-8s3.582-8 8-8 8 3.582 8 8-3.582 8-8 8z"/>
    </symbol>
    <symbol id="ic_home" viewBox="0 0 32 32">
        <path d="M32 18.451l-16-12.42-16 12.42v-5.064l16-12.42 16 12.42zM28 18v12h-8v-8h-8v8h-8v-12l12-9z"/>
    </symbol>
    <symbol id="ic_dice" viewBox="0 0 32 32">
        <path d="M27 6h-16c-2.75 0-5 2.25-5 5v16c0 2.75 2.25 5 5 5h16c2.75 0 5-2.25 5-5v-16c0-2.75-2.25-5-5-5zM13 28c-1.657 0-3-1.343-3-3s1.343-3 3-3 3 1.343 3 3-1.343 3-3 3zM13 16c-1.657 0-3-1.343-3-3s1.343-3 3-3 3 1.343 3 3-1.343 3-3 3zM19 22c-1.657 0-3-1.343-3-3s1.343-3 3-3 3 1.343 3 3-1.343 3-3 3zM25 28c-1.657 0-3-1.343-3-3s1.343-3 3-3 3 1.343 3 3-1.343 3-3 3zM25 16c-1.657 0-3-1.343-3-3s1.343-3 3-3 3 1.343 3 3-1.343 3-3 3zM25.899 4c-0.467-2.275-2.491-4-4.899-4h-16c-2.75 0-5 2.25-5 5v16c0 2.408 1.725 4.432 4 4.899v-19.899c0-1.1 0.9-2 2-2h19.899z"/>
    </symbol>
    <symbol id="ic_paw" viewBox="0 0 32 32">
        <path d="M16.698 17.25c-3.916 0-7.667 1.752-10.087 8.804s2.92 6.49 6.29 5.033c3.263-1.411 4.505-1.626 8.435 0.242 3.7 1.759 6.862-0.077 5.543-3.929s-5.764-10.15-10.181-10.15zM9.29 1.362c-2.233 0.534-3.413 3.567-2.636 6.776s3.216 5.378 5.449 4.844c0.010-0.002 0.021-0.005 0.031-0.008 2.233-0.534 3.413-3.567 2.636-6.776-0.334-1.381-0.977-2.57-1.778-3.433-1.060-1.142-2.399-1.715-3.671-1.411-0.010 0.002-0.021 0.005-0.031 0.008zM22.223 1.25c-2.247-0.47-4.611 1.77-5.28 5.003-0.384 1.858-0.125 3.64 0.591 4.909 0.53 0.939 1.311 1.596 2.266 1.796 0.008 0.002 0.016 0.003 0.024 0.005 2.247 0.47 4.611-1.77 5.28-5.003s-0.61-6.235-2.857-6.705c-0.008-0.002-0.016-0.003-0.024-0.005zM0.643 17.929c1.234 2.855 3.836 4.478 5.811 3.625 1.13-0.488 1.81-1.681 1.953-3.147 0.107-1.096-0.085-2.345-0.613-3.566-0.001-0.002-0.001-0.003-0.002-0.005-1.234-2.855-3.836-4.478-5.811-3.625s-2.575 3.859-1.34 6.714c0.001 0.002 0.001 0.003 0.002 0.005zM25.548 21.049c1.124 0.493 2.454 0.181 3.62-0.709 0.878-0.669 1.662-1.665 2.196-2.889 1.242-2.851 0.653-5.864-1.317-6.728-0.009-0.004-0.017-0.007-0.026-0.011-1.97-0.865-4.574 0.746-5.816 3.598s-0.653 5.864 1.317 6.728c0.009 0.004 0.017 0.007 0.026 0.011z"/>
    </symbol>
    <symbol id="ic_rouble" viewBox="0 0 23 32">
        <path d="M18.625 10.375q0-1.786-1.161-2.893t-3.054-1.107h-5.714v8h5.714q1.893 0 3.054-1.107t1.161-2.893zM22.857 10.375q0 3.446-2.259 5.625t-5.83 2.179h-6.071v2.107h9.018q0.25 0 0.411 0.161t0.161 0.411v2.286q0 0.25-0.161 0.411t-0.411 0.161h-9.018v3.429q0 0.25-0.17 0.411t-0.402 0.161h-2.982q-0.25 0-0.411-0.161t-0.161-0.411v-3.429h-4q-0.25 0-0.411-0.161t-0.161-0.411v-2.286q0-0.25 0.161-0.411t0.411-0.161h4v-2.107h-4q-0.25 0-0.411-0.161t-0.161-0.411v-2.661q0-0.232 0.161-0.402t0.411-0.17h4v-11.232q0-0.25 0.161-0.411t0.411-0.161h9.625q3.571 0 5.83 2.179t2.259 5.625z"/>
    </symbol>
    <symbol id="ic_home" viewBox="0 0 32 32">
        <path d="M32 18.451l-16-12.42-16 12.42v-5.064l16-12.42 16 12.42zM28 18v12h-8v-8h-8v8h-8v-12l12-9z"/>
    </symbol>
    <symbol id="ic_document-file-txt" viewBox="0 0 32 32">
        <path d="M21 26v2.003c0 1.107-0.894 1.997-1.997 1.997h-15.005c-1.107 0-1.997-0.899-1.997-2.007v-22.985c0-1.109 0.899-2.007 2.009-2.007h9.991v6.002c0 1.111 0.898 1.998 2.006 1.998h4.994v2h-8.993c-1.661 0-3.007 1.342-3.007 2.999v7.002c0 1.656 1.336 2.999 3.007 2.999h8.993zM15 3v5.997c0 0.554 0.451 1.003 0.991 1.003h5.009l-6-7zM11.995 14h17.011c1.092 0 1.995 0.892 1.995 1.992v7.016c0 1.092-0.893 1.992-1.995 1.992h-17.011c-1.092 0-1.995-0.892-1.995-1.992v-7.016c0-1.092 0.893-1.992 1.995-1.992zM14 17v6h1v-6h2v-1h-5v1h2zM20 19.5l-2 3.5h1l1.5-2.625 1.5 2.625h1l-2-3.5 2-3.5h-1l-1.5 2.625-1.5-2.625h-1l2 3.5zM26 17v6h1v-6h2v-1h-5v1h2z"/>
    </symbol>
    <symbol id="ic_file-pdf" viewBox="0 0 32 32">
        <path d="M26.313 18.421c-0.427-0.42-1.372-0.643-2.812-0.662-0.974-0.011-2.147 0.075-3.38 0.248-0.552-0.319-1.122-0.665-1.568-1.083-1.202-1.122-2.205-2.68-2.831-4.394 0.041-0.16 0.075-0.301 0.108-0.444 0 0 0.677-3.846 0.498-5.146-0.025-0.178-0.040-0.23-0.088-0.369l-0.059-0.151c-0.184-0.425-0.545-0.875-1.111-0.85l-0.341-0.011c-0.631 0-1.146 0.323-1.281 0.805-0.411 1.514 0.013 3.778 0.781 6.711l-0.197 0.478c-0.55 1.34-1.238 2.689-1.846 3.88l-0.079 0.155c-0.639 1.251-1.22 2.313-1.745 3.213l-0.543 0.287c-0.040 0.021-0.97 0.513-1.188 0.645-1.852 1.106-3.079 2.361-3.282 3.357-0.065 0.318-0.017 0.725 0.313 0.913l0.525 0.264c0.228 0.114 0.468 0.172 0.714 0.172 1.319 0 2.85-1.643 4.959-5.324 2.435-0.793 5.208-1.452 7.638-1.815 1.852 1.043 4.129 1.767 5.567 1.767 0.255 0 0.475-0.024 0.654-0.072 0.276-0.073 0.508-0.23 0.65-0.444 0.279-0.42 0.335-0.998 0.26-1.59-0.023-0.176-0.163-0.393-0.315-0.541zM6.614 25.439c0.241-0.658 1.192-1.958 2.6-3.111 0.088-0.072 0.306-0.276 0.506-0.466-1.472 2.348-2.458 3.283-3.106 3.577zM14.951 6.24c0.424 0 0.665 1.069 0.685 2.070s-0.214 1.705-0.505 2.225c-0.241-0.77-0.357-1.984-0.357-2.778 0 0-0.018-1.517 0.177-1.517v0zM12.464 19.922c0.295-0.529 0.603-1.086 0.917-1.677 0.765-1.447 1.249-2.58 1.609-3.511 0.716 1.303 1.608 2.41 2.656 3.297 0.131 0.111 0.269 0.222 0.415 0.333-2.132 0.422-3.974 0.935-5.596 1.558v0zM25.903 19.802c-0.13 0.081-0.502 0.128-0.741 0.128-0.772 0-1.727-0.353-3.066-0.927 0.515-0.038 0.986-0.057 1.409-0.057 0.774 0 1.004-0.003 1.761 0.19s0.767 0.585 0.637 0.667v0zM28.681 7.159c-0.694-0.947-1.662-2.053-2.724-3.116s-2.169-2.030-3.116-2.724c-1.612-1.182-2.393-1.319-2.841-1.319h-15.5c-1.378 0-2.5 1.121-2.5 2.5v27c0 1.378 1.121 2.5 2.5 2.5h23c1.378 0 2.5-1.122 2.5-2.5v-19.5c0-0.448-0.137-1.23-1.319-2.841v0zM24.543 5.457c0.959 0.959 1.712 1.825 2.268 2.543h-4.811v-4.811c0.718 0.556 1.584 1.309 2.543 2.268v0zM28 29.5c0 0.271-0.229 0.5-0.5 0.5h-23c-0.271 0-0.5-0.229-0.5-0.5v-27c0-0.271 0.229-0.5 0.5-0.5 0 0 15.499-0 15.5 0v7c0 0.552 0.448 1 1 1h7v19.5z"/>
    </symbol>
    <symbol id="ic_newspaper" viewBox="0 0 32 32">
        <path d="M28 8v-4h-28v22c0 1.105 0.895 2 2 2h27c1.657 0 3-1.343 3-3v-17h-4zM26 26h-24v-20h24v20zM4 10h20v2h-20zM16 14h8v2h-8zM16 18h8v2h-8zM16 22h6v2h-6zM4 14h10v10h-10z"/>
    </symbol>
    <symbol id="ic_magazine" viewBox="0 0 32 32">
        <path d="M21 12h4c0.552 0 1-0.448 1-1s-0.448-1-1-1h-4c-0.552 0-1 0.448-1 1s0.448 1 1 1zM21 8h4c0.552 0 1-0.448 1-1s-0.448-1-1-1h-4c-0.552 0-1 0.448-1 1s0.448 1 1 1zM21 16h4c0.552 0 1-0.448 1-1s-0.448-1-1-1h-4c-0.552 0-1 0.448-1 1s0.448 1 1 1zM7 24h18c0.552 0 1-0.448 1-1s-0.448-1-1-1h-18c-0.552 0-1 0.448-1 1s0.448 1 1 1zM7 20h18c0.552 0 1-0.448 1-1s-0.448-1-1-1h-18c-0.552 0-1 0.448-1 1s0.448 1 1 1zM29 0h-23c-1.277 0-2.276 0.354-2.969 1.051-0.691 0.695-1.038 1.689-1.031 2.949v27c0 0.552 0.448 1 1 1h22c0.552 0 1-0.448 1-1v-1h3c0.552 0 1-0.448 1-1v-28c0-0.552-0.448-1-1-1zM28 28h-24l0-24.005c-0.004-0.714 0.147-1.23 0.449-1.533 0.304-0.306 0.826-0.461 1.551-0.461h22v26zM17 4h-10c-0.55 0-1 0.45-1 1v10c0 0.55 0.45 1 1 1h10c0.55 0 1-0.45 1-1v-10c0-0.55-0.45-1-1-1zM16 14h-8v-2c0-1.105 0.895-2 2-2h2c-1.105 0-2-0.895-2-2s0.895-2 2-2 2 0.895 2 2-0.895 2-2 2h2c1.105 0 2 0.895 2 2v2z"/>
    </symbol>
    <symbol id="ic_gradient" viewBox="0 0 32 32">
        <path d="M30 0h-28c-1.1 0-2 0.9-2 2v28c0 1.1 0.9 2 2 2h28c1.1 0 2-0.9 2-2v-28c0-1.1-0.9-2-2-2zM10 2v1h-1v-1h1zM9 25v-1h1v1h-1zM10 26v1h-1v-1h1zM9 23v-1h1v1h-1zM9 21v-1h1v1h-1zM9 19v-1h1v1h-1zM9 17v-1h1v1h-1zM9 15v-1h1v1h-1zM9 13v-1h1v1h-1zM9 11v-1h1v1h-1zM9 9v-1h1v1h-1zM9 7v-1h1v1h-1zM9 5v-1h1v1h-1zM9 28h1v1h-1v-1zM8 2v1h-1v-1h1zM7 25v-1h1v1h-1zM8 26v1h-1v-1h1zM7 23v-1h1v1h-1zM7 21v-1h1v1h-1zM7 19v-1h1v1h-1zM7 17v-1h1v1h-1zM7 15v-1h1v1h-1zM7 13v-1h1v1h-1zM7 11v-1h1v1h-1zM7 9v-1h1v1h-1zM7 7v-1h1v1h-1zM7 5v-1h1v1h-1zM7 28h1v1h-1v-1zM6 2v1h-1v-1h1zM5 25v-1h1v1h-1zM6 26v1h-1v-1h1zM5 23v-1h1v1h-1zM5 21v-1h1v1h-1zM5 19v-1h1v1h-1zM5 17v-1h1v1h-1zM5 15v-1h1v1h-1zM5 13v-1h1v1h-1zM5 11v-1h1v1h-1zM5 9v-1h1v1h-1zM5 7v-1h1v1h-1zM5 5v-1h1v1h-1zM5 28h1v1h-1v-1zM30 30h-4v-1h-1v1h-1v-1h-1v1h-1v-1h-1v1h-1v-1h-1v1h-1v-1h-1v1h-1v-1h-1v1h-1v-1h-1v1h-1v-1h-1v-1h1v-1h-1v-1h1v-1h-1v-1h1v-1h-1v-1h1v-1h-1v-1h1v-1h-1v-1h1v-1h-1v-1h1v-1h-1v-1h1v-1h-1v-1h1v-1h-1v-1h1v-1h-1v-1h1v-1h-1v-1h1v-1h-1v-1h1v-1h-1v-1h1v1h1v-1h1v1h1v-1h1v1h1v-1h1v1h1v-1h11v28zM15 3h1v1h-1v-1zM17 3h1v1h-1v-1zM19 3h1v1h-1v-1zM21 3h1v1h-1v-1zM16 4h1v1h-1v-1zM15 5h1v1h-1v-1zM18 4h1v1h-1v-1zM17 5h1v1h-1v-1zM13 3h1v1h-1v-1zM12 4h1v1h-1v-1zM14 4h1v1h-1v-1zM13 5h1v1h-1v-1zM19 5h1v1h-1v-1zM21 5h1v1h-1v-1zM23 3h1v1h-1v-1zM25 3h1v1h-1v-1zM23 5h1v1h-1v-1zM25 5h1v1h-1v-1zM16 6h1v1h-1v-1zM15 7h1v1h-1v-1zM18 6h1v1h-1v-1zM17 7h1v1h-1v-1zM19 7h1v1h-1v-1zM21 7h1v1h-1v-1zM16 8h1v1h-1v-1zM15 9h1v1h-1v-1zM18 8h1v1h-1v-1zM17 9h1v1h-1v-1zM12 6h1v1h-1v-1zM14 6h1v1h-1v-1zM13 7h1v1h-1v-1zM12 8h1v1h-1v-1zM14 8h1v1h-1v-1zM13 9h1v1h-1v-1zM19 9h1v1h-1v-1zM21 9h1v1h-1v-1zM23 7h1v1h-1v-1zM25 7h1v1h-1v-1zM23 9h1v1h-1v-1zM25 9h1v1h-1v-1zM16 10h1v1h-1v-1zM15 11h1v1h-1v-1zM18 10h1v1h-1v-1zM17 11h1v1h-1v-1zM19 11h1v1h-1v-1zM21 11h1v1h-1v-1zM16 12h1v1h-1v-1zM15 13h1v1h-1v-1zM18 12h1v1h-1v-1zM17 13h1v1h-1v-1zM12 10h1v1h-1v-1zM14 10h1v1h-1v-1zM13 11h1v1h-1v-1zM12 12h1v1h-1v-1zM14 12h1v1h-1v-1zM13 13h1v1h-1v-1zM19 13h1v1h-1v-1zM21 13h1v1h-1v-1zM23 11h1v1h-1v-1zM25 11h1v1h-1v-1zM23 13h1v1h-1v-1zM25 13h1v1h-1v-1zM16 14h1v1h-1v-1zM15 15h1v1h-1v-1zM18 14h1v1h-1v-1zM17 15h1v1h-1v-1zM19 15h1v1h-1v-1zM21 15h1v1h-1v-1zM16 16h1v1h-1v-1zM15 17h1v1h-1v-1zM18 16h1v1h-1v-1zM17 17h1v1h-1v-1zM12 14h1v1h-1v-1zM14 14h1v1h-1v-1zM13 15h1v1h-1v-1zM12 16h1v1h-1v-1zM14 16h1v1h-1v-1zM13 17h1v1h-1v-1zM19 17h1v1h-1v-1zM21 17h1v1h-1v-1zM23 15h1v1h-1v-1zM25 15h1v1h-1v-1zM23 17h1v1h-1v-1zM25 17h1v1h-1v-1zM16 18h1v1h-1v-1zM15 19h1v1h-1v-1zM18 18h1v1h-1v-1zM17 19h1v1h-1v-1zM19 19h1v1h-1v-1zM21 19h1v1h-1v-1zM16 20h1v1h-1v-1zM15 21h1v1h-1v-1zM18 20h1v1h-1v-1zM17 21h1v1h-1v-1zM12 18h1v1h-1v-1zM14 18h1v1h-1v-1zM13 19h1v1h-1v-1zM12 20h1v1h-1v-1zM14 20h1v1h-1v-1zM13 21h1v1h-1v-1zM19 21h1v1h-1v-1zM21 21h1v1h-1v-1zM23 19h1v1h-1v-1zM25 19h1v1h-1v-1zM23 21h1v1h-1v-1zM25 21h1v1h-1v-1zM16 22h1v1h-1v-1zM15 23h1v1h-1v-1zM18 22h1v1h-1v-1zM17 23h1v1h-1v-1zM19 23h1v1h-1v-1zM21 23h1v1h-1v-1zM16 24h1v1h-1v-1zM15 25h1v1h-1v-1zM18 24h1v1h-1v-1zM17 25h1v1h-1v-1zM12 22h1v1h-1v-1zM14 22h1v1h-1v-1zM13 23h1v1h-1v-1zM12 24h1v1h-1v-1zM14 24h1v1h-1v-1zM13 25h1v1h-1v-1zM19 25h1v1h-1v-1zM21 25h1v1h-1v-1zM23 23h1v1h-1v-1zM25 23h1v1h-1v-1zM23 25h1v1h-1v-1zM25 25h1v1h-1v-1zM16 26h1v1h-1v-1zM15 27h1v1h-1v-1zM18 26h1v1h-1v-1zM17 27h1v1h-1v-1zM19 27h1v1h-1v-1zM21 27h1v1h-1v-1zM16 28h1v1h-1v-1zM18 28h1v1h-1v-1zM12 26h1v1h-1v-1zM14 26h1v1h-1v-1zM13 27h1v1h-1v-1zM12 28h1v1h-1v-1zM14 28h1v1h-1v-1zM23 27h1v1h-1v-1zM25 27h1v1h-1v-1z"/>
    </symbol>
    <symbol id="ic_headset" viewBox="0 0 32 32">
        <path d="M25.899 4.101c-2.644-2.644-6.16-4.101-9.899-4.101s-7.255 1.456-9.899 4.101-4.101 6.16-4.101 9.899v7c0 1.657 1.343 3 3 3s3-1.343 3-3v-4c0-1.657-1.343-3-3-3-0.335 0-0.657 0.056-0.958 0.157v-0.157c0.51-6.151 5.678-11 11.958-11s11.448 4.849 11.958 11v0.157c-0.301-0.101-0.623-0.157-0.958-0.157-1.657 0-3 1.343-3 3v4c0 1.657 1.343 3 3 3 0.351 0 0.687-0.061 1-0.171v3.171c0 0.551-0.449 1-1 1h-5.171c-0.412-1.165-1.522-2-2.829-2-1.657 0-3 1.343-3 3s1.343 3 3 3c1.306 0 2.417-0.835 2.829-2h5.171c1.654 0 3-1.346 3-3v-13c0-3.74-1.456-7.255-4.101-9.899z"/>
    </symbol>
    <symbol id="ic_dice" viewBox="0 0 32 32">
        <path d="M27 6h-16c-2.75 0-5 2.25-5 5v16c0 2.75 2.25 5 5 5h16c2.75 0 5-2.25 5-5v-16c0-2.75-2.25-5-5-5zM13 28c-1.657 0-3-1.343-3-3s1.343-3 3-3 3 1.343 3 3-1.343 3-3 3zM13 16c-1.657 0-3-1.343-3-3s1.343-3 3-3 3 1.343 3 3-1.343 3-3 3zM19 22c-1.657 0-3-1.343-3-3s1.343-3 3-3 3 1.343 3 3-1.343 3-3 3zM25 28c-1.657 0-3-1.343-3-3s1.343-3 3-3 3 1.343 3 3-1.343 3-3 3zM25 16c-1.657 0-3-1.343-3-3s1.343-3 3-3 3 1.343 3 3-1.343 3-3 3zM25.899 4c-0.467-2.275-2.491-4-4.899-4h-16c-2.75 0-5 2.25-5 5v16c0 2.408 1.725 4.432 4 4.899v-19.899c0-1.1 0.9-2 2-2h19.899z"/>
    </symbol>
    <symbol id="ic_bullhorn" viewBox="0 0 32 32">
        <path d="M32 13.414c0-6.279-1.837-11.373-4.109-11.413 0.009-0 0.018-0.001 0.027-0.001h-2.592c0 0-6.088 4.573-14.851 6.367-0.268 1.415-0.438 3.102-0.438 5.047s0.171 3.631 0.438 5.047c8.763 1.794 14.851 6.367 14.851 6.367h2.592c-0.009 0-0.018-0.001-0.027-0.001 2.272-0.040 4.109-5.134 4.109-11.413zM27.026 23.102c-0.293 0-0.61-0.304-0.773-0.486-0.395-0.439-0.775-1.124-1.1-1.979-0.727-1.913-1.127-4.478-1.127-7.223s0.4-5.309 1.127-7.223c0.325-0.855 0.705-1.54 1.1-1.979 0.163-0.182 0.48-0.486 0.773-0.486s0.61 0.304 0.773 0.486c0.395 0.439 0.775 1.124 1.1 1.979 0.727 1.913 1.127 4.479 1.127 7.223s-0.4 5.309-1.127 7.223c-0.325 0.855-0.705 1.54-1.1 1.979-0.163 0.181-0.48 0.486-0.773 0.486zM7.869 13.414c0-1.623 0.119-3.201 0.345-4.659-1.48 0.205-2.779 0.323-4.386 0.323-2.096 0-2.096 0-2.096 0l-1.733 2.959v2.755l1.733 2.959c0 0 0 0 2.096 0 1.606 0 2.905 0.118 4.386 0.323-0.226-1.458-0.345-3.036-0.345-4.659zM11.505 20.068l-4-0.766 2.558 10.048c0.132 0.52 0.648 0.782 1.146 0.583l3.705-1.483c0.498-0.199 0.698-0.749 0.444-1.221l-3.853-7.161zM27.026 17.148c-0.113 0-0.235-0.117-0.298-0.187-0.152-0.169-0.299-0.433-0.424-0.763-0.28-0.738-0.434-1.726-0.434-2.784s0.154-2.046 0.434-2.784c0.125-0.33 0.272-0.593 0.424-0.763 0.063-0.070 0.185-0.187 0.298-0.187s0.235 0.117 0.298 0.187c0.152 0.169 0.299 0.433 0.424 0.763 0.28 0.737 0.434 1.726 0.434 2.784s-0.154 2.046-0.434 2.784c-0.125 0.33-0.272 0.593-0.424 0.763-0.063 0.070-0.185 0.187-0.298 0.187z"/>
    </symbol>
    <symbol id="ic_file-text" viewBox="0 0 32 32">
        <path d="M27 0h-24c-1.65 0-3 1.35-3 3v26c0 1.65 1.35 3 3 3h24c1.65 0 3-1.35 3-3v-26c0-1.65-1.35-3-3-3zM26 28h-22v-24h22v24zM8 14h14v2h-14zM8 18h14v2h-14zM8 22h14v2h-14zM8 10h14v2h-14z"/>
    </symbol>
    <symbol id="ic_file-upload" viewBox="0 0 32 32">
        <path d="M26.681 7.159c-0.694-0.947-1.662-2.053-2.724-3.116s-2.169-2.030-3.116-2.724c-1.612-1.182-2.393-1.319-2.841-1.319h-13.5c-1.378 0-2.5 1.121-2.5 2.5v7.5l1 22 1-22v-7.5c0-0.271 0.229-0.5 0.5-0.5 0 0 13.499-0 13.5 0v7c0 0.552 0.448 1 1 1h7l1 22 1-22c0-0.448-0.137-1.23-1.319-2.841zM20 8v-4.811c0.718 0.556 1.584 1.309 2.543 2.268s1.712 1.825 2.268 2.543h-4.811zM12 32h6v-10h5l-8-8-8 8h5z"/>
    </symbol>
    <symbol id="ic_file-upload2" viewBox="0 0 32 32">
        <path d="M22 8h7.254c-0.157-0.252-0.345-0.531-0.572-0.841-0.694-0.947-1.662-2.053-2.724-3.116s-2.169-2.030-3.116-2.724c-0.31-0.227-0.589-0.416-0.841-0.572v7.254zM21 10c-0.552 0-1-0.448-1-1v-9h-15.5c-1.378 0-2.5 1.121-2.5 2.5v27c0 1.378 1.121 2.5 2.5 2.5h23c1.378 0 2.5-1.122 2.5-2.5v-19.5h-9zM16 13l7 7h-5v10h-4v-10h-5l7-7z"/>
    </symbol>
    <symbol id="ic_file-check" viewBox="0 0 32 32">
        <path d="M22 32l-6-7 2.547-2.547 3.453 3.477 8-7.93 2 2-10 12zM28.681 7.159c-0.694-0.947-1.662-2.053-2.724-3.116s-2.169-2.030-3.116-2.724c-1.612-1.182-2.393-1.319-2.841-1.319h-15.5c-1.378 0-2.5 1.121-2.5 2.5v27c0 1.378 1.122 2.5 2.5 2.5h12.5c0.552 0 1-0.448 1-1s-0.448-1-1-1h-12.5c-0.271 0-0.5-0.229-0.5-0.5v-27c0-0.271 0.229-0.5 0.5-0.5 0 0 15.499-0 15.5 0v7c0 0.552 0.448 1 1 1h7v5c0 0.552 0.448 1 1 1s1-0.448 1-1v-5c0-0.448-0.137-1.23-1.319-2.841zM22 8v-4.811c0.718 0.556 1.584 1.309 2.543 2.268s1.712 1.825 2.268 2.543h-4.811z"/>
    </symbol>
    <symbol id="ic_file-eye" viewBox="0 0 32 32">
        <path d="M22 8h7.254c-0.157-0.252-0.345-0.531-0.572-0.841-0.694-0.947-1.662-2.053-2.724-3.116s-2.169-2.030-3.116-2.724c-0.31-0.227-0.589-0.416-0.841-0.572v7.254zM11.51 31.762c-2.483-1.613-4.38-3.863-5.486-6.508-0.333-0.797-0.333-1.712 0-2.508 1.107-2.645 3.004-4.895 5.486-6.508 2.506-1.628 5.442-2.488 8.49-2.488s5.984 0.86 8.489 2.488c0.531 0.345 1.035 0.719 1.511 1.12v-7.358h-9c-0.552 0-1-0.448-1-1v-9h-15.5c-1.378 0-2.5 1.121-2.5 2.5v27c0 1.378 1.121 2.5 2.5 2.5h7.39c-0.127-0.078-0.254-0.157-0.38-0.238zM31.9 23.614c-0.931-2.226-2.534-4.124-4.636-5.489-2.14-1.39-4.652-2.125-7.264-2.125s-5.124 0.735-7.264 2.125c-2.102 1.365-3.705 3.263-4.636 5.489-0.103 0.247-0.103 0.525 0 0.772 0.931 2.226 2.534 4.124 4.636 5.489 2.14 1.39 4.652 2.125 7.264 2.125s5.124-0.735 7.264-2.125c2.102-1.365 3.705-3.263 4.636-5.489 0.103-0.247 0.103-0.525-0-0.772zM20 22c0 1.105-0.895 2-2 2s-2-0.895-2-2 0.895-2 2-2 2 0.895 2 2zM26.175 28.198c-1.815 1.179-3.95 1.802-6.175 1.802s-4.359-0.623-6.175-1.802c-1.64-1.065-2.915-2.51-3.709-4.198 0.794-1.688 2.069-3.133 3.709-4.198 0.203-0.132 0.411-0.257 0.622-0.375-0.398 0.81-0.622 1.72-0.622 2.683 0 3.362 2.725 6.087 6.087 6.087s6.087-2.725 6.087-6.087c0-1.016-0.249-1.973-0.689-2.815 0.295 0.155 0.583 0.324 0.864 0.506 1.64 1.065 2.915 2.51 3.709 4.198-0.794 1.687-2.069 3.133-3.709 4.198v0 0z"/>
    </symbol>
    <symbol id="ic_file-stats2" viewBox="0 0 32 32">
        <path d="M22 8h7.254c-0.157-0.252-0.345-0.531-0.572-0.841-0.694-0.947-1.662-2.053-2.724-3.116s-2.169-2.030-3.116-2.724c-0.31-0.227-0.589-0.416-0.841-0.572v7.254zM21 10c-0.552 0-1-0.448-1-1v-9h-15.5c-1.378 0-2.5 1.121-2.5 2.5v27c0 1.378 1.121 2.5 2.5 2.5h23c1.378 0 2.5-1.122 2.5-2.5v-19.5h-9zM12 28h-4v-18h4v18zM18 28h-4v-10h4v10zM24 28h-4v-6h4v6z"/>
    </symbol>
    <symbol id="ic_theater" viewBox="0 0 34 32">
        <path d="M33.955 0c-3.442 1.221-7.547 2.431-11.955 2.431s-8.513-1.21-11.955-2.431c-0.030 0.636-0.045 1.28-0.045 1.931 0 12.188 5.373 22.069 12 22.069s12-9.881 12-22.069c0-0.651-0.015-1.295-0.045-1.931zM14 8c0-1.105 1.343-2 3-2s3 0.895 3 2h-6zM22 20c-2.629 0-4.862-2.536-5.673-6.065 1.449 1.275 3.456 2.065 5.673 2.065s4.224-0.79 5.673-2.065c-0.811 3.529-3.045 6.065-5.673 6.065zM24 8c0-1.105 1.343-2 3-2s3 0.895 3 2h-6zM15.871 24.178c-1.689-1.314-3.183-3.154-4.443-5.47-1.125-2.068-2.017-4.439-2.654-7.005-3.195-0.192-6.165-0.792-8.732-1.703-0.028 0.583-0.042 1.174-0.042 1.77 0 11.173 4.925 20.23 11 20.23 3.094 0 5.889-2.35 7.888-6.132-1.041-0.373-2.049-0.937-3.017-1.69zM4 16h4c0 1.105-0.895 2-2 2s-2-0.895-2-2zM11 25.938c-1.343 0-2.617 0.262-3.762 0.731 0.916-1.674 2.262-2.731 3.762-2.731s2.846 1.057 3.762 2.731c-1.145-0.469-2.419-0.731-3.762-0.731z"/>
    </symbol>
    <symbol id="ic_envelop3" viewBox="0 0 32 32">
        <path d="M30 4h-28c-1.1 0-2 0.9-2 2v20c0 1.1 0.9 2 2 2h28c1.1 0 2-0.9 2-2v-20c0-1.1-0.9-2-2-2zM28 8v1.438l-12 7.071-12-7.071v-1.438h24zM4 24v-11.080l12 7.071 12-7.071v11.080h-24z"/>
    </symbol>
    <symbol id="ic_location6" viewBox="0 0 32 32">
        <path d="M16 0c-6.627 0-12 5.373-12 12 0 12 12 20 12 20s12-8 12-20c0-6.627-5.373-12-12-12zM20.187 24.773c-1.545 1.818-3.11 3.216-4.187 4.093-1.077-0.877-2.642-2.275-4.187-4.093-1.57-1.848-2.814-3.766-3.699-5.7-1.071-2.343-1.614-4.723-1.614-7.073 0-2.538 0.988-4.923 2.783-6.718s4.18-2.783 6.718-2.783c2.538 0 4.923 0.988 6.718 2.783s2.782 4.18 2.782 6.718c0 2.35-0.543 4.73-1.614 7.073-0.884 1.935-2.129 3.852-3.699 5.7zM16 6c-2.209 0-4 1.791-4 4s1.791 4 4 4c2.209 0 4-1.791 4-4s-1.791-4-4-4zM16 12c-1.105 0-2-0.895-2-2s0.895-2 2-2c1.105 0 2 0.895 2 2s-0.895 2-2 2z"/>
    </symbol>
    <symbol id="ic_history" viewBox="0 0 34 32">
        <path d="M20 2c7.732 0 14 6.268 14 14s-6.268 14-14 14v-3c2.938 0 5.701-1.144 7.778-3.222s3.222-4.84 3.222-7.778c0-2.938-1.144-5.701-3.222-7.778s-4.84-3.222-7.778-3.222c-2.938 0-5.701 1.144-7.778 3.222-1.598 1.598-2.643 3.601-3.041 5.778h5.819l-7 8-7-8h5.143c0.971-6.784 6.804-12 13.857-12zM26 14v4h-8v-10h4v6z"/>
    </symbol>
    <symbol id="ic_notify" viewBox="0 0 32 32">
        <path d="M32 26c-3.314 0-6-2.686-6-6v-8.909c0-4.398-3.436-8.066-8-8.909v-2.182h-4v2.182c-4.564 0.842-8 4.511-8 8.909v8.909c0 3.314-2.686 6-6 6v2h13.425c-0.163 0.357-0.253 0.754-0.253 1.172 0 1.562 1.266 2.828 2.829 2.828s2.828-1.266 2.828-2.828c0-0.418-0.091-0.815-0.253-1.172h13.425v-2zM30.966 12c-0.522 0-0.962-0.406-0.997-0.934-0.235-3.574-1.816-6.888-4.451-9.332-0.405-0.376-0.429-1.008-0.053-1.413s1.008-0.429 1.413-0.053c3.011 2.793 4.818 6.582 5.087 10.667 0.036 0.551-0.381 1.027-0.932 1.063-0.022 0.002-0.045 0.002-0.067 0.002zM1.034 12c-0.022 0-0.044-0.001-0.067-0.002-0.551-0.036-0.968-0.512-0.932-1.063 0.269-4.086 2.075-7.874 5.087-10.668 0.405-0.376 1.038-0.352 1.413 0.053s0.352 1.038-0.053 1.413c-2.635 2.444-4.216 5.758-4.451 9.332-0.035 0.529-0.475 0.934-0.997 0.934z"/>
    </symbol>
    <symbol id="ic_stopwatch" viewBox="0 0 32 32">
        <path d="M16 6.038v-2.038h4v-2c0-1.105-0.895-2-2-2h-6c-1.105 0-2 0.895-2 2v2h4v2.038c-6.712 0.511-12 6.119-12 12.962 0 7.18 5.82 13 13 13s13-5.82 13-13c0-6.843-5.288-12.451-12-12.962zM22.071 26.071c-1.889 1.889-4.4 2.929-7.071 2.929s-5.182-1.040-7.071-2.929c-1.889-1.889-2.929-4.4-2.929-7.071s1.040-5.182 2.929-7.071c1.814-1.814 4.201-2.844 6.754-2.923l-0.677 9.813c-0.058 0.822 0.389 1.181 0.995 1.181s1.053-0.36 0.995-1.181l-0.677-9.813c2.552 0.079 4.94 1.11 6.754 2.923 1.889 1.889 2.929 4.4 2.929 7.071s-1.040 5.182-2.929 7.071z"/>
    </symbol>
    <symbol id="ic_reply" viewBox="0 0 32 32">
        <path d="M14 24.238v7.762l-12-12 12-12v7.932c13.961 0.327 13.362-9.493 9.808-15.932 8.772 9.482 6.909 24.674-9.808 24.238z"/>
    </symbol>
    <symbol id="ic_bubbles9" viewBox="0 0 36 32">
        <path d="M25 0h-22c-1.65 0-3 1.35-3 3v10c0 1.65 1.35 3 3 3h1v8l9.6-8h11.4c1.65 0 3-1.35 3-3v-10c0-1.65-1.35-3-3-3zM24 12h-11.848l-6.152 5.46v-5.46h-2v-8h20v8zM33 6c1.65 0 3 1.35 3 3v12c0 1.65-1.35 3-3 3h-5v8l-9.6-8h-6.4v-4h7.848l6.152 5.46v-5.46h6v-10h-2v-4h3z"/>
    </symbol>
    <symbol id="ic_quote" viewBox="0 0 32 32">
        <path d="M29 0h-26c-1.65 0-3 1.35-3 3v18c0 1.65 1.35 3 3 3h5v8l9.6-8h11.4c1.65 0 3-1.35 3-3v-18c0-1.65-1.35-3-3-3zM14 16.5c0 0.825-0.675 1.5-1.5 1.5h-5c-0.825 0-1.5-0.675-1.5-1.5v-10.5l4-3v7h2.5c0.825 0 1.5 0.675 1.5 1.5v5zM26 16.5c0 0.825-0.675 1.5-1.5 1.5h-5c-0.825 0-1.5-0.675-1.5-1.5v-10.5l4-3v7h2.5c0.825 0 1.5 0.675 1.5 1.5v5z"/>
    </symbol>
    <symbol id="ic_users" viewBox="4 0 32 32">
        <path d="M24 24.082v-1.649c2.203-1.241 4-4.337 4-7.432 0-4.971 0-9-6-9s-6 4.029-6 9c0 3.096 1.797 6.191 4 7.432v1.649c-6.784 0.555-12 3.888-12 7.918h28c0-4.030-5.216-7.364-12-7.918zM10.225 24.854c1.728-1.13 3.877-1.989 6.243-2.513-0.47-0.556-0.897-1.176-1.265-1.844-0.95-1.726-1.453-3.627-1.453-5.497 0-2.689 0-5.228 0.956-7.305 0.928-2.016 2.598-3.265 4.976-3.734-0.529-2.39-1.936-3.961-5.682-3.961-6 0-6 4.029-6 9 0 3.096 1.797 6.191 4 7.432v1.649c-6.784 0.555-12 3.888-12 7.918h8.719c0.454-0.403 0.956-0.787 1.506-1.146z"/>
    </symbol>
    <symbol id="ic_users2" viewBox="4 0 32 32">
        <path d="M30.954 32h-21.909c-0.281 0-0.549-0.118-0.738-0.325s-0.283-0.485-0.258-0.764c0.22-2.441 1.17-4.726 2.746-6.609 1.393-1.664 3.181-2.904 5.204-3.618l0-0.95c-1.123-0.769-2.074-1.852-2.77-3.163-0.805-1.515-1.23-3.268-1.23-5.070 0-2.502 0.809-4.862 2.278-6.646 1.516-1.84 3.548-2.854 5.722-2.854s4.206 1.014 5.722 2.854c1.469 1.784 2.278 4.144 2.278 6.646 0 1.802-0.425 3.555-1.23 5.070-0.696 1.311-1.647 2.394-2.77 3.163l0 0.95c2.023 0.714 3.811 1.954 5.204 3.618 1.576 1.883 2.526 4.169 2.746 6.609 0.025 0.28-0.068 0.557-0.258 0.764s-0.457 0.325-0.738 0.325zM10.2 30h19.599c-0.328-1.621-1.053-3.13-2.129-4.415-1.299-1.552-3.008-2.661-4.943-3.208-0.431-0.122-0.728-0.515-0.728-0.962l-0-2.232c0-0.357 0.191-0.688 0.5-0.866 2.126-1.226 3.5-3.902 3.5-6.816 0-4.136-2.692-7.5-6-7.5s-6 3.364-6 7.5c0 2.914 1.374 5.589 3.5 6.816 0.31 0.179 0.5 0.509 0.5 0.866l-0 2.232c0 0.447-0.297 0.84-0.728 0.962-1.935 0.547-3.644 1.657-4.943 3.208-1.076 1.285-1.801 2.794-2.129 4.415z"/>
        <path d="M9.071 22.857c1.033-1.234 2.262-2.28 3.627-3.096-0.554-0.644-1.044-1.361-1.455-2.135-0.977-1.839-1.493-3.957-1.493-6.125 0-3.022 0.991-5.891 2.791-8.076 0.858-1.042 1.851-1.878 2.938-2.487-1.070-0.613-2.252-0.936-3.479-0.936-2.174 0-4.206 1.014-5.722 2.854-1.469 1.784-2.278 4.144-2.278 6.646 0 1.802 0.425 3.555 1.23 5.070 0.696 1.311 1.647 2.394 2.77 3.163l-0 0.95c-2.023 0.714-3.811 1.954-5.204 3.618-1.576 1.883-2.526 4.169-2.746 6.609-0.025 0.28 0.068 0.557 0.258 0.764s0.457 0.325 0.738 0.325h4.845c0.37-2.633 1.46-5.090 3.18-7.143z"/>
    </symbol>
    <symbol id="ic_user-minus2" viewBox="0 0 32 32">
        <path d="M15 32h-13.954c-0.281 0-0.549-0.118-0.738-0.325s-0.283-0.485-0.258-0.764c0.22-2.441 1.17-4.726 2.746-6.609 1.393-1.664 3.181-2.904 5.204-3.618l0-0.95c-1.123-0.769-2.074-1.852-2.77-3.163-0.805-1.515-1.23-3.268-1.23-5.070 0-2.502 0.809-4.862 2.278-6.646 1.516-1.84 3.548-2.854 5.722-2.854 4.239 0 7.747 3.932 7.987 8.952 0.026 0.552-0.399 1.020-0.951 1.047-0.553 0.026-1.020-0.4-1.047-0.951-0.189-3.952-2.819-7.048-5.989-7.048-3.308 0-6 3.364-6 7.5 0 2.914 1.374 5.589 3.5 6.816 0.31 0.179 0.5 0.509 0.5 0.866l-0 2.232c0 0.447-0.297 0.84-0.728 0.962-1.935 0.547-3.644 1.657-4.943 3.208-1.076 1.285-1.801 2.794-2.129 4.415h12.8c0.552 0 1 0.448 1 1s-0.448 1-1 1zM23 32c-4.963 0-9-4.037-9-9s4.037-9 9-9 9 4.037 9 9-4.037 9-9 9zM23 16c-3.86 0-7 3.14-7 7s3.14 7 7 7 7-3.14 7-7-3.14-7-7-7zM27 22h-8c-0.552 0-1 0.448-1 1s0.448 1 1 1h8c0.552 0 1-0.448 1-1s-0.448-1-1-1z"/>
    </symbol>
    <symbol id="ic_user-block2" viewBox="0 0 32 32">
        <path d="M15 32h-13.954c-0.281 0-0.549-0.118-0.738-0.325s-0.283-0.485-0.258-0.764c0.22-2.441 1.17-4.726 2.746-6.609 1.393-1.664 3.181-2.904 5.204-3.618l0-0.95c-1.123-0.769-2.074-1.852-2.77-3.163-0.805-1.515-1.23-3.268-1.23-5.070 0-2.502 0.809-4.862 2.278-6.646 1.516-1.84 3.548-2.854 5.722-2.854 4.239 0 7.747 3.932 7.987 8.952 0.026 0.552-0.399 1.020-0.951 1.047-0.553 0.026-1.020-0.4-1.047-0.951-0.189-3.952-2.819-7.048-5.989-7.048-3.308 0-6 3.364-6 7.5 0 2.914 1.374 5.589 3.5 6.816 0.31 0.179 0.5 0.509 0.5 0.866l-0 2.232c0 0.447-0.297 0.84-0.728 0.962-1.935 0.547-3.644 1.657-4.943 3.208-1.076 1.285-1.801 2.794-2.129 4.415h12.8c0.552 0 1 0.448 1 1s-0.448 1-1 1zM23 14c-4.963 0-9 4.037-9 9s4.037 9 9 9 9-4.037 9-9-4.037-9-9-9zM16 23c0-3.86 3.14-7 7-7 1.57 0 3.021 0.52 4.19 1.396l-9.794 9.794c-0.876-1.169-1.396-2.62-1.396-4.19zM23 30c-1.57 0-3.021-0.52-4.19-1.396l9.794-9.794c0.876 1.169 1.396 2.62 1.396 4.19 0 3.86-3.14 7-7 7z"/>
    </symbol>
    <symbol id="ic_vcard" viewBox="0 0 32 32">
        <path d="M28 6h-24c-2.2 0-4 1.8-4 4v14c0 2.2 1.8 4 4 4h24c2.2 0 4-1.8 4-4v-14c0-2.2-1.8-4-4-4zM4 24c0-4.418 2.239-8 5-8-1.657 0-3-1.343-3-3s1.343-3 3-3 3 1.343 3 3-1.343 3-3 3c2.761 0 5 3.582 5 8h-10zM28 24h-10v-2h10v2zM28 20h-10v-2h10v2zM28 16h-10v-2h10v2z"/>
    </symbol>
    <symbol id="ic_spinner" viewBox="0 0 32 32">
        <path d="M16 0c-8.711 0-15.796 6.961-15.995 15.624 0.185-7.558 5.932-13.624 12.995-13.624 7.18 0 13 6.268 13 14 0 1.657 1.343 3 3 3s3-1.343 3-3c0-8.837-7.163-16-16-16zM16 32c8.711 0 15.796-6.961 15.995-15.624-0.185 7.558-5.932 13.624-12.995 13.624-7.18 0-13-6.268-13-14 0-1.657-1.343-3-3-3s-3 1.343-3 3c0 8.837 7.163 16 16 16z"/>
    </symbol>
    <symbol id="ic_zoom" viewBox="0 0 32 32">
        <path d="M12 6h-2v4h-4v2h4v4h2v-4h4v-2h-4zM19.923 17.433c1.306-1.809 2.077-4.031 2.077-6.433 0-6.075-4.925-11-11-11s-11 4.925-11 11 4.925 11 11 11c2.402 0 4.624-0.77 6.433-2.077l10.567 12.077 4-4-12.077-10.567zM11 19c-4.418 0-8-3.582-8-8s3.582-8 8-8 8 3.582 8 8-3.582 8-8 8z"/>
    </symbol>
    <symbol id="ic_search" viewBox="0 0 32 32">
        <path d="M31.008 27.231l-7.58-6.447c-0.784-0.705-1.622-1.029-2.299-0.998 1.789-2.096 2.87-4.815 2.87-7.787 0-6.627-5.373-12-12-12s-12 5.373-12 12 5.373 12 12 12c2.972 0 5.691-1.081 7.787-2.87-0.031 0.677 0.293 1.515 0.998 2.299l6.447 7.58c1.104 1.226 2.907 1.33 4.007 0.23s0.997-2.903-0.23-4.007zM12 20c-4.418 0-8-3.582-8-8s3.582-8 8-8 8 3.582 8 8-3.582 8-8 8z"/>
    </symbol>
    <symbol id="ic_enlarge" viewBox="0 0 32 32">
        <path d="M32 0h-13l5 5-6 6 3 3 6-6 5 5zM32 32v-13l-5 5-6-6-3 3 6 6-5 5zM0 32h13l-5-5 6-6-3-3-6 6-5-5zM0 0v13l5-5 6 6 3-3-6-6 5-5z"/>
    </symbol>
    <symbol id="ic_shrink" viewBox="0 0 32 32">
        <path d="M18 14h13l-5-5 6-6-3-3-6 6-5-5zM18 18v13l5-5 6 6 3-3-6-6 5-5zM14 18h-13l5 5-6 6 3 3 6-6 5 5zM14 14v-13l-5 5-6-6-3 3 6 6-5 5z"/>
    </symbol>
    <symbol id="ic_locked" viewBox="0 0 32 32">
        <path d="M18.5 14h-0.5v-6c0-3.308-2.692-6-6-6h-4c-3.308 0-6 2.692-6 6v6h-0.5c-0.825 0-1.5 0.675-1.5 1.5v15c0 0.825 0.675 1.5 1.5 1.5h17c0.825 0 1.5-0.675 1.5-1.5v-15c0-0.825-0.675-1.5-1.5-1.5zM6 8c0-1.103 0.897-2 2-2h4c1.103 0 2 0.897 2 2v6h-8v-6z"/>
    </symbol>
    <symbol id="ic_unlocked" viewBox="0 0 32 32">
        <path d="M24 2c3.308 0 6 2.692 6 6v6h-4v-6c0-1.103-0.897-2-2-2h-4c-1.103 0-2 0.897-2 2v6h0.5c0.825 0 1.5 0.675 1.5 1.5v15c0 0.825-0.675 1.5-1.5 1.5h-17c-0.825 0-1.5-0.675-1.5-1.5v-15c0-0.825 0.675-1.5 1.5-1.5h12.5v-6c0-3.308 2.692-6 6-6h4z"/>
    </symbol>
    <symbol id="ic_cog3" viewBox="0 0 32 32">
        <path d="M19.786 32h-7.572l-0.763-4.576c-0.105-0.042-0.209-0.085-0.313-0.13l-3.775 2.696-5.354-5.354 2.691-3.768c-0.046-0.107-0.091-0.214-0.134-0.322l-4.566-0.761v-7.572l4.554-0.759c0.044-0.112 0.091-0.224 0.138-0.335l-2.683-3.757 5.354-5.354 3.749 2.678c0.114-0.049 0.228-0.097 0.344-0.143l0.757-4.545h7.572l0.757 4.545c0.115 0.046 0.23 0.093 0.344 0.143l3.749-2.678 5.354 5.354-2.683 3.757c0.048 0.111 0.094 0.223 0.138 0.335l4.554 0.759v7.572l-4.566 0.761c-0.043 0.108-0.088 0.215-0.134 0.322l2.691 3.768-5.354 5.354-3.775-2.696c-0.104 0.045-0.208 0.088-0.313 0.13l-0.763 4.576zM14.226 29.625h3.548l0.664-3.982 0.681-0.225c0.457-0.151 0.907-0.337 1.337-0.553l0.64-0.322 3.284 2.346 2.509-2.509-2.342-3.279 0.324-0.641c0.218-0.432 0.406-0.884 0.559-1.344l0.226-0.68 3.97-0.662v-3.548l-3.963-0.66-0.224-0.682c-0.152-0.464-0.341-0.92-0.56-1.356l-0.322-0.641 2.333-3.267-2.509-2.509-3.262 2.33-0.641-0.325c-0.437-0.221-0.896-0.412-1.363-0.566l-0.681-0.225-0.659-3.951h-3.548l-0.659 3.951-0.681 0.225c-0.467 0.154-0.925 0.344-1.362 0.566l-0.641 0.325-3.262-2.33-2.509 2.509 2.333 3.267-0.322 0.641c-0.219 0.436-0.408 0.892-0.56 1.356l-0.224 0.683-3.963 0.66v3.548l3.97 0.662 0.225 0.68c0.152 0.459 0.34 0.911 0.559 1.343l0.324 0.641-2.343 3.28 2.509 2.509 3.284-2.346 0.64 0.322c0.43 0.216 0.88 0.402 1.337 0.553l0.681 0.225 0.664 3.981zM17 12h-2c-1.65 0-3 1.35-3 3v2c0 1.65 1.35 3 3 3h2c1.65 0 3-1.35 3-3v-2c0-1.65-1.35-3-3-3zM18 17c0 0.55-0.45 1-1 1h-2c-0.55 0-1-0.45-1-1v-2c0-0.55 0.45-1 1-1h2c0.55 0 1 0.45 1 1v2z"/>
    </symbol>
    <symbol id="ic_stats" viewBox="0 0 32 32">
        <path d="M23 0l3.439 3.439-8.439 8.439-6-6-11 11 2.121 2.121 8.879-8.879 6 6 10.561-10.561 3.439 3.439v-9zM26 13.121v18.879h4v-22.879zM20 19.121v12.879h4v-16.879zM14 32h4v-10.879l-4-4zM8 32h4v-16.879l-4 4zM2 25.121v6.879h4v-10.879z"/>
    </symbol>
    <symbol id="ic_trophy" viewBox="0 0 32 32">
        <path d="M26 6v-4h-20v4h-6v4c0 3.314 2.686 6 6 6 0.627 0 1.232-0.096 1.801-0.275 1.443 2.063 3.644 3.556 6.199 4.075v6.2h-2c-2.209 0-4 1.791-4 4h16c0-2.209-1.791-4-4-4h-2v-6.2c2.555-0.519 4.756-2.012 6.199-4.075 0.568 0.179 1.173 0.275 1.801 0.275 3.314 0 6-2.686 6-6v-4h-6zM6 13.625c-1.999 0-3.625-1.626-3.625-3.625v-2h3.625v2c0 1.256 0.232 2.457 0.655 3.565-0.213 0.039-0.431 0.060-0.655 0.060zM29.625 10c0 1.999-1.626 3.625-3.625 3.625-0.224 0-0.442-0.021-0.655-0.060 0.423-1.107 0.655-2.309 0.655-3.565v-2h3.625v2z"/>
    </symbol>
    <symbol id="ic_diamond" viewBox="0 0 32 32">
        <path d="M22.343 8l4.162 4.162-10.505 11.818-10.505-11.818 4.162-4.162h12.686M24 4h-16l-8 8 16 18 16-18-8-8z"/>
    </symbol>
    <symbol id="ic_gift" viewBox="0 0 32 32">
        <path d="M24.11 10c0.566-0.402 1.11-0.851 1.608-1.348 1.044-1.044 1.742-2.328 1.966-3.616 0.246-1.412-0.115-2.723-0.988-3.597-0.697-0.697-1.641-1.065-2.73-1.065-1.551 0-3.185 0.744-4.483 2.043-2.077 2.077-3.288 4.945-3.94 6.991-0.482-2.056-1.444-4.833-3.313-6.702-1.003-1.003-2.285-1.518-3.495-1.518-0.989 0-1.931 0.344-2.633 1.046-1.562 1.562-1.351 4.306 0.471 6.128 0.65 0.65 1.409 1.189 2.21 1.638h-6.782v8h2v14h24v-14h2v-8h-5.89zM21.073 4.007c0.866-0.866 1.948-1.384 2.892-1.384 0.334 0 0.803 0.070 1.139 0.406 0.813 0.813 0.357 2.697-0.977 4.031-1.373 1.373-3.221 2.318-4.826 2.939h-1.584c0.58-1.798 1.627-4.264 3.356-5.993zM7.31 5.028c-0.022-0.285-0.002-0.82 0.381-1.203 0.32-0.32 0.743-0.387 1.042-0.387v0c0.664 0 1.358 0.313 1.904 0.859 1.059 1.058 1.93 2.743 2.521 4.871 0.016 0.057 0.031 0.115 0.047 0.171-0.057-0.015-0.114-0.031-0.171-0.047-2.128-0.591-3.813-1.462-4.871-2.521-0.495-0.495-0.805-1.13-0.853-1.743zM14 30h-8v-13h8v13zM14 16h-10v-4h10v4zM26 30h-8v-13h8v13zM28 16h-10v-4h10v4z"/>
    </symbol>
    <symbol id="ic_paw" viewBox="0 0 32 32">
        <path d="M16.698 17.25c-3.916 0-7.667 1.752-10.087 8.804s2.92 6.49 6.29 5.033c3.263-1.411 4.505-1.626 8.435 0.242 3.7 1.759 6.862-0.077 5.543-3.929s-5.764-10.15-10.181-10.15zM9.29 1.362c-2.233 0.534-3.413 3.567-2.636 6.776s3.216 5.378 5.449 4.844c0.010-0.002 0.021-0.005 0.031-0.008 2.233-0.534 3.413-3.567 2.636-6.776-0.334-1.381-0.977-2.57-1.778-3.433-1.060-1.142-2.399-1.715-3.671-1.411-0.010 0.002-0.021 0.005-0.031 0.008zM22.223 1.25c-2.247-0.47-4.611 1.77-5.28 5.003-0.384 1.858-0.125 3.64 0.591 4.909 0.53 0.939 1.311 1.596 2.266 1.796 0.008 0.002 0.016 0.003 0.024 0.005 2.247 0.47 4.611-1.77 5.28-5.003s-0.61-6.235-2.857-6.705c-0.008-0.002-0.016-0.003-0.024-0.005zM0.643 17.929c1.234 2.855 3.836 4.478 5.811 3.625 1.13-0.488 1.81-1.681 1.953-3.147 0.107-1.096-0.085-2.345-0.613-3.566-0.001-0.002-0.001-0.003-0.002-0.005-1.234-2.855-3.836-4.478-5.811-3.625s-2.575 3.859-1.34 6.714c0.001 0.002 0.001 0.003 0.002 0.005zM25.548 21.049c1.124 0.493 2.454 0.181 3.62-0.709 0.878-0.669 1.662-1.665 2.196-2.889 1.242-2.851 0.653-5.864-1.317-6.728-0.009-0.004-0.017-0.007-0.026-0.011-1.97-0.865-4.574 0.746-5.816 3.598s-0.653 5.864 1.317 6.728c0.009 0.004 0.017 0.007 0.026 0.011z"/>
    </symbol>
    <symbol id="ic_flower2" viewBox="0 0 32 32">
        <path d="M31.603 11.804c-1.669-5.137-6.736-5.655-10.647-1.752 2.504-4.925 0.444-9.584-4.957-9.584s-7.46 4.658-4.957 9.583c-3.91-3.903-8.977-3.383-10.646 1.753s2.125 8.535 7.582 7.676c-4.92 2.513-5.992 7.492-1.623 10.667s8.773 0.616 9.643-4.84c0.87 5.456 5.274 8.014 9.643 4.84s3.297-8.153-1.623-10.667c5.458 0.859 9.252-2.539 7.583-7.676zM16 21.434c-2.555 0-4.625-2.071-4.625-4.626s2.071-4.626 4.625-4.626c2.555 0 4.626 2.071 4.626 4.626s-2.071 4.626-4.626 4.626z"/>
    </symbol>
    <symbol id="ic_flower" viewBox="0 0 32 32">
        <path d="M21.447 31.499c-1.582 0-3.087-0.667-4.238-1.878-0.469-0.494-0.874-1.067-1.21-1.709-0.336 0.641-0.741 1.215-1.21 1.709-1.15 1.211-2.655 1.878-4.238 1.878-1.393 0-2.838-0.513-4.179-1.483-1.955-1.414-2.941-3.353-2.776-5.46 0.128-1.641 0.933-3.219 2.257-4.529-2.051-0.3-3.747-1.228-4.775-2.645-1.106-1.524-1.34-3.516-0.657-5.607 0.914-2.801 2.845-4.407 5.297-4.407 1.11 0 2.272 0.332 3.416 0.962-0.206-1.694 0.111-3.342 0.953-4.717 1.21-1.976 3.365-3.11 5.912-3.11s4.703 1.134 5.913 3.111c0.842 1.375 1.159 3.022 0.953 4.716 1.144-0.63 2.306-0.962 3.416-0.962 2.452 0 4.383 1.606 5.297 4.407 0.683 2.092 0.449 4.083-0.657 5.608-1.028 1.417-2.724 2.345-4.775 2.645 1.324 1.31 2.128 2.888 2.256 4.529 0.165 2.107-0.821 4.047-2.776 5.461-1.341 0.97-2.787 1.483-4.18 1.483zM16 23.688c0.491 0 0.91 0.357 0.987 0.842 0.483 3.019 2.234 4.969 4.46 4.969 0.983 0 1.995-0.371 3.007-1.104 1.388-1.004 2.064-2.279 1.954-3.685-0.143-1.834-1.623-3.68-3.862-4.819-0.438-0.223-0.649-0.731-0.498-1.199s0.621-0.756 1.106-0.68c0.507 0.079 1.011 0.12 1.499 0.12 0 0 0.001 0 0.001 0 2.066 0 3.76-0.702 4.648-1.926 0.73-1.007 0.86-2.325 0.374-3.813-0.451-1.381-1.406-3.028-3.396-3.028-1.41 0-3.078 0.854-4.576 2.344-0.349 0.346-0.897 0.388-1.294 0.098s-0.525-0.825-0.301-1.263c1.054-2.065 1.091-4.267 0.098-5.889-0.851-1.39-2.345-2.155-4.207-2.155s-3.356 0.765-4.206 2.154c-0.994 1.622-0.957 3.824 0.097 5.89 0.223 0.438 0.096 0.973-0.301 1.262s-0.946 0.248-1.294-0.099c-1.499-1.489-3.167-2.343-4.576-2.343-1.99 0-2.945 1.646-3.396 3.027-0.485 1.487-0.356 2.806 0.375 3.812 0.888 1.224 2.583 1.926 4.649 1.926 0.488 0 0.992-0.040 1.499-0.12 0.486-0.076 0.955 0.212 1.106 0.68s-0.060 0.976-0.498 1.199c-2.239 1.139-3.719 2.985-3.862 4.819-0.11 1.406 0.566 2.68 1.954 3.684 0.998 0.722 2.038 1.104 3.007 1.104 2.226 0 3.976-1.95 4.46-4.969 0.078-0.485 0.496-0.842 0.987-0.842zM16 21.434c-2.55 0-4.625-2.075-4.625-4.626s2.075-4.626 4.625-4.626c2.551 0 4.626 2.075 4.626 4.626s-2.075 4.626-4.626 4.626zM16 14.183c-1.448 0-2.625 1.178-2.625 2.626s1.178 2.626 2.625 2.626c1.448 0 2.626-1.178 2.626-2.626s-1.178-2.626-2.626-2.626z"/>
    </symbol>
    <symbol id="ic_lamp7" viewBox="0 0 32 32">
        <path d="M10 20c-0.008 3.314 2.686 4 6 4s5.992-0.686 6-4 3.992-4.477 4-10-4.477-10-10-10c-5.523 0-9.992 4.477-10 10s4.008 6.686 4 10zM16 26c-2.468 0-4.519-0.549-4.926-3.032-0.048 0.335-0.074 0.68-0.074 1.032 0 3.314 2.239 4 5 4s5-0.686 5-4c0-0.352-0.026-0.696-0.074-1.032-0.408 2.483-2.458 3.032-4.926 3.032zM16 30c-1.975 0-3.615-0.549-3.941-3.032-0.039 0.335-0.059 0.68-0.059 1.032 0 3.314 1.791 4 4 4s4-0.686 4-4c0-0.352-0.020-0.696-0.059-1.032-0.326 2.483-1.966 3.032-3.941 3.032z"/>
    </symbol>
    <symbol id="ic_lamp8" viewBox="0 0 32 32">
        <path d="M16 2c2.141 0 4.153 0.834 5.666 2.349 1.508 1.51 2.337 3.516 2.334 5.648-0.003 2.46-0.969 3.776-1.992 5.169-0.939 1.28-2.003 2.73-2.008 4.829-0.002 1.020-0.352 1.294-0.711 1.488-0.636 0.343-1.742 0.517-3.289 0.517-2.377 0-3.29-0.415-3.638-0.764-0.090-0.090-0.364-0.365-0.362-1.232 0.005-2.107-1.066-3.561-2.011-4.844-1.025-1.391-1.993-2.706-1.989-5.158 0.003-2.139 0.836-4.149 2.346-5.66s3.518-2.343 5.654-2.343zM16 0c-5.523 0-9.992 4.477-10 10s4.008 6.686 4 10 2.686 4 6 4c3.314 0 5.992-0.686 6-4s3.992-4.477 4-10-4.477-10-10-10v0zM16 26c-2.468 0-4.519-0.549-4.926-3.032-0.048 0.335-0.074 0.68-0.074 1.032 0 3.314 2.239 4 5 4s5-0.686 5-4c0-0.352-0.026-0.696-0.074-1.032-0.408 2.483-2.458 3.032-4.926 3.032zM16 30c-1.975 0-3.615-0.549-3.941-3.032-0.039 0.335-0.059 0.68-0.059 1.032 0 3.314 1.791 4 4 4s4-0.686 4-4c0-0.352-0.020-0.696-0.059-1.032-0.326 2.483-1.966 3.032-3.941 3.032z"/>
    </symbol>
    <symbol id="ic_target" viewBox="0 0 32 32">
        <path d="M16 0c-8.837 0-16 7.163-16 16s7.163 16 16 16 16-7.163 16-16-7.163-16-16-16zM24.485 24.485c-1.788 1.788-4.041 2.941-6.485 3.349v-5.834h-4v5.834c-2.445-0.408-4.697-1.561-6.485-3.349s-2.941-4.041-3.349-6.485h5.834v-4h-5.834c0.408-2.445 1.561-4.697 3.349-6.485s4.040-2.941 6.485-3.349v5.835h4v-5.835c2.445 0.408 4.697 1.561 6.485 3.349s2.941 4.040 3.349 6.485h-5.834v4h5.834c-0.408 2.445-1.561 4.697-3.349 6.485z"/>
    </symbol>
    <symbol id="ic_contents" viewBox="0 0 32 32">
        <path d="M12 26h20v4h-20zM12 14h20v4h-20zM12 2h20v4h-20zM6 0v8h-2v-6h-2v-2zM4 16.438v1.563h4v2h-6v-4.563l4-1.875v-1.563h-4v-2h6v4.563zM8 22v10h-6v-2h4v-2h-4v-2h4v-2h-4v-2z"/>
    </symbol>
    <symbol id="ic_menu7" viewBox="0 0 32 32">
        <path d="M2 6h28v4h-28v-4zM2 14h28v4h-28v-4zM2 22h28v4h-28v-4z"/>
    </symbol>
    <symbol id="ic_link" viewBox="0 0 32 32">
        <path d="M13.757 19.868c-0.416 0-0.832-0.159-1.149-0.476-2.973-2.973-2.973-7.81 0-10.783l6-6c1.44-1.44 3.355-2.233 5.392-2.233s3.951 0.793 5.392 2.233c2.973 2.973 2.973 7.81 0 10.783l-2.743 2.743c-0.635 0.635-1.663 0.635-2.298 0s-0.635-1.663 0-2.298l2.743-2.743c1.706-1.706 1.706-4.481 0-6.187-0.826-0.826-1.925-1.281-3.094-1.281s-2.267 0.455-3.094 1.281l-6 6c-1.706 1.706-1.706 4.481 0 6.187 0.635 0.635 0.635 1.663 0 2.298-0.317 0.317-0.733 0.476-1.149 0.476zM8 31.625c-2.037 0-3.952-0.793-5.392-2.233-2.973-2.973-2.973-7.81 0-10.783l2.743-2.743c0.635-0.635 1.664-0.635 2.298 0s0.635 1.663 0 2.298l-2.743 2.743c-1.706 1.706-1.706 4.481 0 6.187 0.826 0.826 1.925 1.281 3.094 1.281s2.267-0.455 3.094-1.281l6-6c1.706-1.706 1.706-4.481 0-6.187-0.635-0.635-0.635-1.663 0-2.298s1.663-0.635 2.298 0c2.973 2.973 2.973 7.81 0 10.783l-6 6c-1.44 1.44-3.355 2.233-5.392 2.233z"/>
    </symbol>
    <symbol id="ic_flag" viewBox="0 0 32 32">
        <path d="M0 0h4v32h-4v-32zM20 2c-1 0-1.5-0.5-2-1s-1-1-2-1h-10v20h10c1 0 1.5 0.5 2 1s1 1 2 1h10v-20h-10z"/>
    </symbol>
    <symbol id="ic_eye" viewBox="0 0 32 32">
        <path d="M16 6c-6.979 0-13.028 4.064-16 10 2.972 5.936 9.021 10 16 10s13.027-4.064 16-10c-2.972-5.936-9.021-10-16-10zM23.889 11.303c1.88 1.199 3.473 2.805 4.67 4.697-1.197 1.891-2.79 3.498-4.67 4.697-2.362 1.507-5.090 2.303-7.889 2.303s-5.527-0.796-7.889-2.303c-1.88-1.199-3.473-2.805-4.67-4.697 1.197-1.891 2.79-3.498 4.67-4.697 0.122-0.078 0.246-0.154 0.371-0.228-0.311 0.854-0.482 1.776-0.482 2.737 0 4.418 3.582 8 8 8s8-3.582 8-8c0-0.962-0.17-1.883-0.482-2.737 0.124 0.074 0.248 0.15 0.371 0.228v0zM16 13c0 1.657-1.343 3-3 3s-3-1.343-3-3 1.343-3 3-3 3 1.343 3 3z"/>
    </symbol>
    <symbol id="ic_star-empty" viewBox="0 0 32 32">
        <path d="M25.27 31.553c-0.206 0-0.411-0.063-0.586-0.19l-8.684-6.281-8.684 6.281c-0.351 0.254-0.825 0.253-1.175-0.002s-0.496-0.707-0.362-1.118l3.314-10.157-8.679-6.279c-0.351-0.254-0.499-0.706-0.365-1.118s0.518-0.692 0.951-0.692l10.733-0 3.316-10.16c0.134-0.411 0.518-0.69 0.951-0.69s0.816 0.278 0.951 0.69l3.316 10.16 10.733 0c0.434 0 0.818 0.279 0.951 0.692s-0.014 0.864-0.365 1.118l-8.679 6.279 3.314 10.157c0.134 0.412-0.012 0.863-0.361 1.118-0.176 0.128-0.382 0.192-0.589 0.192zM4.088 13.997l6.768 4.896c0.352 0.255 0.499 0.707 0.365 1.12l-2.587 7.929 6.78-4.904c0.35-0.253 0.822-0.253 1.172 0l6.78 4.904-2.587-7.929c-0.135-0.413 0.013-0.866 0.365-1.12l6.768-4.896-8.37-0c-0.433 0-0.816-0.278-0.951-0.69l-2.591-7.938-2.591 7.937c-0.134 0.411-0.518 0.69-0.951 0.69l-8.37 0z"/>
    </symbol>
    <symbol id="ic_heart8" viewBox="0 0 32 32">
        <path d="M16 30l-0.873-0.424c-0.618-0.3-15.127-7.466-15.127-18.358 0-5.083 4.234-9.218 9.438-9.218 2.489 0 4.829 0.952 6.563 2.591 1.734-1.639 4.073-2.591 6.563-2.591 5.204 0 9.438 4.135 9.438 9.218 0 10.893-14.509 18.059-15.127 18.358l-0.873 0.424zM9.438 6c-2.998 0-5.438 2.341-5.438 5.218 0 4.248 3.383 7.976 6.22 10.355 2.266 1.899 4.566 3.272 5.78 3.943 1.213-0.671 3.514-2.043 5.78-3.943 2.838-2.379 6.22-6.107 6.22-10.355 0-2.877-2.439-5.218-5.438-5.218-2.021 0-3.864 1.067-4.811 2.784l-1.752 3.179-1.752-3.179c-0.946-1.718-2.79-2.784-4.811-2.784z"/>
    </symbol>
    <symbol id="ic_thumbs-down" viewBox="0 0 32 32">
        <path d="M1 13c0 1.029 0.561 1.936 1.416 2.476-0.264 0.447-0.416 0.967-0.416 1.524 0 1.657 1.343 3 3 3h5.869c-0.702 2.528-1.056 5.143-1.056 7.813 0 2.309 1.879 4.188 4.188 4.188s4.188-1.878 4.188-4.188c0-3.249 1.21-5.748 3.597-7.428 0.656-0.462 1.398-0.859 2.216-1.19v2.805h8v-20h-8v1.969c-1.872-0.123-2.78-0.591-3.662-1.047-0.878-0.453-1.785-0.922-3.338-0.922h-10c-1.657 0-3 1.343-3 3 0 0.391 0.075 0.763 0.211 1.106-1.274 0.346-2.211 1.511-2.211 2.894 0 0.556 0.152 1.077 0.416 1.524-0.855 0.54-1.416 1.448-1.416 2.476zM11 18h-6c-0.551 0-1-0.449-1-1s0.449-1 1-1h6c0.551 0 1 0.449 1 1s-0.449 1-1 1zM14.591 11.543c0.846-0.53 1.409-1.471 1.409-2.543 0-1.063-0.553-1.995-1.386-2.528 0.245-0.435 0.386-0.937 0.386-1.472 0-0.351-0.061-0.687-0.171-1h2.171c1.067 0 1.634 0.293 2.42 0.699 0.992 0.512 2.2 1.135 4.58 1.273v10.694c-1.342 0.451-2.545 1.045-3.583 1.776-3.012 2.12-4.604 5.361-4.604 9.37 0 0.999-0.813 1.813-1.813 1.813s-1.813-0.813-1.813-1.813c0-2.677 0.388-5.294 1.155-7.813 0.208-0.773 0.404-1.538 0.527-2.125 0.079-0.261 0.124-0.536 0.129-0.822 0.001-0.019 0.001-0.037 0.001-0.053 0-0.556-0.152-1.077-0.416-1.524 0.855-0.541 1.416-1.448 1.416-2.477 0-0.529-0.149-1.025-0.409-1.457zM7 4h5c0.551 0 1 0.449 1 1s-0.449 1-1 1h-5c-0.551 0-1-0.449-1-1s0.449-1 1-1zM5 8h8c0.551 0 1 0.449 1 1s-0.449 1-1 1h-8c-0.551 0-1-0.449-1-1s0.449-1 1-1zM4.25 12h7.5c0.678 0 1.25 0.458 1.25 1s-0.572 1-1.25 1h-7.5c-0.678 0-1.25-0.458-1.25-1s0.572-1 1.25-1zM28 5c0-0.552 0.448-1 1-1s1 0.448 1 1-0.448 1-1 1-1-0.448-1-1z"/>
    </symbol>
    <symbol id="ic_stack-plus" viewBox="0 0 32 32">
        <path d="M10 2v2.309l-5.238 0.736 0.34 2.421-5.102 1.463 6.615 23.070 20.377-5.843 1.117-0.157h3.891v-24h-22zM7.858 29.758l-5.616-19.586 3.115-0.893 2.745 19.533 5.994-0.842-6.238 1.789zM9.645 26.765l-2.836-20.177 3.191-0.448v19.86h5.086l-5.441 0.765zM30 24h-18v-20h18v20zM26 16h-4v4h-2v-4h-4v-2h4v-4h2v4h4z"/>
    </symbol>
    <symbol id="ic_stack-star" viewBox="0 0 32 32">
        <path d="M10 2v2.309l-5.238 0.736 0.34 2.421-5.102 1.463 6.615 23.070 20.377-5.843 1.117-0.157h3.891v-24h-22zM7.858 29.758l-5.616-19.586 3.115-0.893 2.745 19.533 5.994-0.842-6.238 1.789zM9.645 26.765l-2.836-20.177 3.191-0.448v19.86h5.086l-5.441 0.765zM30 24h-18v-20h18v20zM21 7.628l1.431 4.403h4.63l-3.745 2.721 1.431 4.403-3.745-2.721-3.745 2.721 1.431-4.403-3.745-2.721h4.63z"/>
    </symbol>
    <symbol id="ic_stack-text" viewBox="0 0 32 32">
        <path d="M32 26v-24h-22v2.309l-5.238 0.736 0.34 2.421-5.102 1.463 6.615 23.070 20.377-5.843 1.117-0.157h3.891zM12 4h18v20h-18v-20zM10 6.14v19.86h5.086l-5.441 0.765-2.836-20.177 3.191-0.448zM7.858 29.758l-5.616-19.586 3.115-0.893 2.745 19.533 5.994-0.842-6.238 1.789zM14 6h14v2h-14zM14 10h14v2h-14zM14 14h14v2h-14zM14 18h10v2h-10z"/>
    </symbol>
    <symbol id="ic_move" viewBox="0 0 32 32">
        <path d="M32 16l-8-6v4h-6v-6h4l-6-8-6 8h4v6h-6v-4l-8 6 8 6v-4h6v6h-4l6 8 6-8h-4v-6h6v4z"/>
    </symbol>
    <symbol id="ic_help" viewBox="0 0 32 32">
        <path d="M16 0c-8.837 0-16 7.163-16 16s7.163 16 16 16 16-7.163 16-16-7.163-16-16-16zM16 26c-1.105 0-2-0.895-2-2s0.895-2 2-2 2 0.895 2 2-0.895 2-2 2zM19.298 15.755c-1.222 0.768-1.798 1.191-1.798 1.753v1c0 0.828-0.672 1.5-1.5 1.5s-1.5-0.672-1.5-1.5v-1c0-1.051 0.405-1.995 1.204-2.808 0.589-0.6 1.306-1.050 1.998-1.485 1.424-0.895 2.048-1.374 2.048-2.215 0-0.914-0.527-1.525-0.97-1.876-0.71-0.564-1.698-0.874-2.78-0.874-1.642 0-3.119 1.096-3.591 2.666-0.239 0.793-1.076 1.242-1.869 1.004s-1.242-1.076-1.004-1.869c0.41-1.36 1.262-2.582 2.401-3.441 1.178-0.889 2.583-1.359 4.063-1.359 1.756 0 3.406 0.541 4.645 1.524 1.358 1.077 2.105 2.578 2.105 4.226 0 2.586-1.995 3.84-3.452 4.755z"/>
    </symbol>
    <symbol id="ic_plus-circle" viewBox="0 0 32 32">
        <path d="M16 0c-8.837 0-16 7.163-16 16s7.163 16 16 16 16-7.163 16-16-7.163-16-16-16zM16 28c-6.627 0-12-5.373-12-12s5.373-12 12-12c6.627 0 12 5.373 12 12s-5.373 12-12 12zM24 18h-6v6h-4v-6h-6v-4h6v-6h4v6h6z"/>
    </symbol>
    <symbol id="ic_info" viewBox="0 0 32 32">
        <path d="M14 9.5c0-0.825 0.675-1.5 1.5-1.5h1c0.825 0 1.5 0.675 1.5 1.5v1c0 0.825-0.675 1.5-1.5 1.5h-1c-0.825 0-1.5-0.675-1.5-1.5v-1zM20 24h-8v-2h2v-6h-2v-2h6v8h2zM16 0c-8.837 0-16 7.163-16 16s7.163 16 16 16 16-7.163 16-16-7.163-16-16-16zM16 29c-7.18 0-13-5.82-13-13s5.82-13 13-13 13 5.82 13 13-5.82 13-13 13z"/>
    </symbol>
    <symbol id="ic_cancel-square2" viewBox="0 0 32 32">
        <path d="M28 0h-24c-2.2 0-4 1.8-4 4v24c0 2.2 1.8 4 4 4h24c2.2 0 4-1.8 4-4v-24c0-2.2-1.8-4-4-4zM24.914 22.086l-2.828 2.828-6.086-6.086-6.086 6.086-2.828-2.828 6.086-6.086-6.086-6.086 2.828-2.828 6.086 6.086 6.086-6.086 2.828 2.828-6.086 6.086 6.086 6.086z"/>
    </symbol>
    <symbol id="ic_spell-check" viewBox="0 0 32 32">
        <path d="M4 8h4v6h2v-12c0-1.1-0.9-2-2-2h-4c-1.1 0-2 0.9-2 2v12h2v-6zM4 2h4v4h-4v-4zM30 2v-2h-6c-1.1 0-2 0.9-2 2v10c0 1.1 0.9 2 2 2h6v-2h-6v-10h6zM20 5v-3c0-1.1-0.9-2-2-2h-6v14h6c1.1 0 2-0.9 2-2v-3c0-1.1-0.275-2-1.375-2 1.1 0 1.375-0.9 1.375-2zM18 12h-4v-4h4v4zM18 6h-4v-4h4v4zM26 18l-13 14-7-9 2.563-2.188 4.438 4.625 11-9.438z"/>
    </symbol>
    <symbol id="ic_spell-check2" viewBox="0 0 32 32">
        <path d="M4.063 20l1.8-6h8.274l1.8 6h3.551l-6-20h-6.976l-6 20h3.551zM8.863 4h2.274l1.8 6h-5.874l1.8-6zM28 15l-11 11-4-4-3 3 7 7 14-14z"/>
    </symbol>
    <symbol id="ic_exit3" viewBox="0 0 32 32">
        <path d="M24 20v-4h-10v-4h10v-4l6 6zM22 18v8h-10v6l-12-6v-26h22v10h-2v-8h-16l8 4v18h8v-6z"/>
    </symbol>
    <symbol id="ic_arrow-first" viewBox="0 0 32 32">
        <path d="M26 6l-6-6-16 16 16 16 6-6-10-10zM0 0v32h4v-32z"/>
    </symbol>
    <symbol id="ic_arrow-last" viewBox="0 0 32 32">
        <path d="M6 26l6 6 16-16-16-16-6 6 10 10zM32 32v-32h-4v32z"/>
    </symbol>
    <symbol id="ic_next" viewBox="0 0 32 32">
        <path d="M31 16l-15-15v9h-16v12h16v9z"/>
    </symbol>
    <symbol id="ic_square-right" viewBox="0 0 32 32">
        <path d="M32 0h-32v32h32l-0-32zM4 28v-24h24l0 24h-24zM16 7l9 9-9 9v-7h-10v-4h10z"/>
    </symbol>
    <symbol id="ic_send" viewBox="0 0 32 32">
        <path d="M26 2v14h-12v-9l-12 12 12 12v-9h18v-20z"/>
    </symbol>
    <symbol id="ic_checkbox-checked" viewBox="0 0 32 32">
        <path d="M0 0v32h32v-32h-32zM30 30h-28v-28h28v28zM5 16l3-3 5 5 11-11 3 3-14 14z"/>
    </symbol>
    <symbol id="ic_ok" viewBox="0 0 32 32">
        <path d="M16 0c-8.837 0-16 7.163-16 16s7.163 16 16 16 16-7.163 16-16-7.163-16-16-16zM13 24.063l-5.625-6.688 2.063-2.063 3.563 3.5 10.313-9 1.438 1.438-11.75 12.813z"/>
    </symbol>
    <symbol id="ic_ok2" viewBox="0 0 32 32">
        <path d="M12.3,27.6c-0.3,0.3-0.7,0.5-1.2,0.5c-0.4,0-0.8-0.2-1.2-0.5l-9.2-9.2c-1-1-1-2.5,0-3.5l1.2-1.2c1-1,2.5-1,3.5,0l5.8,5.8 L26.7,3.9c1-1,2.5-1,3.5,0L31.3,5c1,1,1,2.5,0,3.5L12.3,27.6z"/>
    </symbol>
    <symbol id="ic_width" viewBox="0 0 32 32">
        <path d="M8 28v4l-6-5 6-5v4h16v-4l6 5-6 5v-4zM26 6h-20v10h20v-10zM30 2v0 18h-28v-18h28z"/>
    </symbol>
    <symbol id="ic_text-color" viewBox="0 0 32 32">
        <path d="M10.063 26l1.8-6h8.274l1.8 6h3.551l-6-20h-6.976l-6 20h3.551zM14.863 10h2.274l1.8 6h-5.874l1.8-6z"/>
    </symbol>
    <symbol id="ic_align-left" viewBox="0 0 32 32">
        <path d="M0 2h32v4h-32zM0 10h20v4h-20zM0 26h20v4h-20zM0 18h32v4h-32z"/>
    </symbol>
    <symbol id="ic_mail4" viewBox="0 0 32 32">
        <path d="M16 0c-8.837 0-16 7.163-16 16s7.163 16 16 16 16-7.163 16-16-7.163-16-16-16zM8 8h16c0.286 0 0.563 0.061 0.817 0.177l-8.817 10.286-8.817-10.287c0.254-0.116 0.531-0.177 0.817-0.177zM6 22v-12c0-0.042 0.002-0.084 0.004-0.125l5.864 6.842-5.8 5.8c-0.045-0.167-0.069-0.34-0.069-0.517zM24 24h-16c-0.177 0-0.35-0.024-0.517-0.069l5.691-5.691 2.826 3.297 2.826-3.297 5.691 5.691c-0.167 0.045-0.34 0.069-0.517 0.069zM26 22c0 0.177-0.024 0.35-0.069 0.517l-5.8-5.8 5.865-6.842c0.003 0.041 0.004 0.083 0.004 0.125v12z"/>
    </symbol>
    <symbol id="ic_change-order" viewBox="0 0 32 32">
        <path d="m10.347186,22.172627l-6.371743,0c-0.929213,0 -1.703556,0.774344 -1.703556,1.703556l0,6.371743c0,0.929213 0.774344,1.703556 1.703556,1.703556l6.371743,0c0.929213,0 1.703556,-0.774344 1.703556,-1.703556l0,-6.371743c0,-0.929213 -0.774344,-1.703556 -1.703556,-1.703556z"/>
        <path d="m3.931195,20.889429l6.349619,0c0.951337,0 1.703556,-0.774344 1.703556,-1.703556l0,-6.371743c0,-0.929213 -0.774344,-1.703556 -1.703556,-1.703556l-6.349619,0c-0.929213,0 -1.703556,0.774344 -1.703556,1.703556l0,6.371743c0,0.929213 0.774344,1.703556 1.703556,1.703556zm0.066372,-8.008927l6.238998,0l0,6.238998l-6.238998,0l0,-6.238998z"/>
        <path d="m3.931195,9.827375l6.349619,0c0.951337,0 1.703556,-0.774344 1.703556,-1.703556l0,-6.371743c0,-0.929213 -0.774344,-1.703556 -1.703556,-1.703556l-6.349619,0c-0.929213,0 -1.703556,0.774344 -1.703556,1.703556l0,6.371743c0,0.929213 0.774344,1.703556 1.703556,1.703556zm0.066372,-8.008927l6.238998,0l0,6.238998l-6.238998,0l0,-6.238998z"/>
        <path d="m25.922558,4.119355l-8.119548,0l1.039833,-0.995585c0.353986,-0.353986 0.353986,-0.907088 0.022124,-1.261074c-0.353986,-0.353986 -0.907088,-0.353986 -1.261074,-0.022124l-2.632769,2.522148c-0.176993,0.154869 -0.265489,0.398234 -0.265489,0.641599s0.110621,0.48673 0.287613,0.641599l2.632769,2.411528c0.176993,0.154869 0.37611,0.221241 0.597351,0.221241c0.243365,0 0.48673,-0.110621 0.663723,-0.287613c0.331862,-0.353986 0.287613,-0.907088 -0.066372,-1.23895l-0.951337,-0.86284l8.053175,0c1.150454,0 2.079666,0.929213 2.079666,2.079666l0,16.770074c0,1.150454 -0.929213,2.079666 -2.079666,2.079666l-9.778856,0c-0.48673,0 -0.884964,0.398234 -0.884964,0.884964s0.398234,0.884964 0.884964,0.884964l9.80098,0c2.123914,0 3.849595,-1.747805 3.827471,-3.871719l0,-16.74795c0,-2.123914 -1.72568,-3.849595 -3.849595,-3.849595z"/>
    </symbol>
    <symbol id="ic_dark-theme" viewBox="0 0 32 32">
        <path d="M16 5.2a10.8 10.8 0 100 21.6 10.8 10.8 0 000-21.6zm0 19.2a8.4 8.4 0 110-16.8 8.4 8.4 0 010 16.8z"/><path d="M15 0h2v4h-2zM15 28h2v4h-2zM0 15h4v2H0z"/><path d="M3.8 5.4L5.2 4l2.9 2.8-1.4 1.4zM3.8 26.6l2.9-2.8L8 25.2 5.2 28z"/><path d="M23.6 7.6a8.4 8.4 0 100 16.8 8.4 8.4 0 000-16.8z"/>
    </symbol>
    <symbol id="ic_nav-dots" viewBox="0 0 32 32">
            <circle cx="16" cy="3.5" r="3.5"/>
            <circle cx="16" cy="16" r="3.5"/>
            <circle cx="16" cy="28.5" r="3.5"/>
    </symbol>
    <symbol id="ic_undo" viewBox="0 0 32 32">
        <path d="M24.3,32c3.5-6.4,4.1-16.2-9.8-15.9V24l-12-12l12-12v7.8C31.2,7.3,33.1,22.5,24.3,32L24.3,32z" />
    </symbol>
    <symbol id="ic_redo" viewBox="0 0 32 32">
        <path d="M7.7,32c-8.8-9.5-6.9-24.6,9.8-24.2V0l12,12l-12,12v-7.9C3.6,15.7,4.2,25.6,7.7,32L7.7,32z"/>
    </symbol>
    <symbol id="ic_align_left"  viewBox="0 0 32 32">
        <path d="M0,3.8c0,0.8,0.6,1.4,1.4,1.4h27.2c0.8,0,1.4-0.6,1.4-1.4s-0.6-1.4-1.4-1.4H1.4C0.6,2.3,0,3,0,3.8z M0,18.8  c0,0.8,0.6,1.4,1.4,1.4h27.2c0.8,0,1.4-0.6,1.4-1.4s-0.6-1.4-1.4-1.4H1.4C0.6,17.3,0,18,0,18.8z M0,26.2c0,0.8,0.6,1.4,1.4,1.4H20  c0.8,0,1.4-0.6,1.4-1.4s-0.6-1.4-1.4-1.4H1.4C0.6,24.8,0,25.5,0,26.2z M0,11.2c0,0.8,0.6,1.4,1.4,1.4H20c0.8,0,1.4-0.6,1.4-1.4  c0-0.8-0.6-1.4-1.4-1.4H1.4C0.6,9.8,0,10.5,0,11.2z" />
    </symbol>
    <symbol id="ic_align_right"  viewBox="0 0 32 32">
        <path d="m28.6 2.3h-27.2c-0.8 0-1.4 0.7-1.4 1.5s0.6 1.4 1.4 1.4h27.2c0.8 0 1.4-0.6 1.4-1.4s-0.6-1.5-1.4-1.5zm0 15h-27.2c-0.8 0-1.4 0.7-1.4 1.5s0.6 1.4 1.4 1.4h27.2c0.8 0 1.4-0.6 1.4-1.4s-0.6-1.5-1.4-1.5zm0 7.5h-18.6c-0.8 0-1.4 0.6-1.4 1.4s0.6 1.4 1.4 1.4h18.6c0.8 0 1.4-0.6 1.4-1.4 0-0.7-0.6-1.4-1.4-1.4zm0-15h-18.6c-0.8 0-1.4 0.6-1.4 1.4s0.6 1.4 1.4 1.4h18.6c0.8 0 1.4-0.6 1.4-1.4 0-0.7-0.6-1.4-1.4-1.4z"/>
    </symbol>
    <symbol id="ic_align_center"  viewBox="0 0 32 32">
        <path d="m0 4c0 0.8 0.7 1.5 1.5 1.5h29c0.8 0 1.5-0.7 1.5-1.5s-0.7-1.5-1.5-1.5h-29c-0.8 0-1.5 0.7-1.5 1.5zm0 16c0 0.8 0.7 1.5 1.5 1.5h29c0.8 0 1.5-0.7 1.5-1.5s-0.7-1.5-1.5-1.5h-29c-0.8 0-1.5 0.7-1.5 1.5zm4.6 8c0 0.8 0.7 1.5 1.5 1.5h19.9c0.8 0 1.5-0.7 1.5-1.5s-0.7-1.5-1.5-1.5h-19.9c-0.9 0-1.5 0.7-1.5 1.5zm0-16c0 0.8 0.7 1.5 1.5 1.5h19.9c0.8 0 1.5-0.7 1.5-1.5s-0.7-1.5-1.5-1.5h-19.9c-0.9 0-1.5 0.7-1.5 1.5z"/>
    </symbol>
    <symbol id="ic_smiley" viewBox="0 0 455 455">
        <path d="m227.5 0c-125.64 0-227.5 101.86-227.5 227.5s101.86 227.5 227.5 227.5 227.5-101.86 227.5-227.5-101.86-227.5-227.5-227.5zm76.014 146.49c19.33 0 35 15.67 35 35s-15.67 35-35 35-35-15.67-35-35 15.67-35 35-35zm-152.03 0c19.33 0 35 15.67 35 35s-15.67 35-35 35-35-15.67-35-35 15.67-35 35-35zm76.014 223.51c-59.42 0-113.17-37.504-133.75-93.325l28.148-10.378c16.254 44.084 58.693 73.703 105.6 73.703s89.35-29.619 105.6-73.703l28.148 10.378c-20.581 55.821-74.332 93.325-133.75 93.325z" />
    </symbol>
    <symbol id="ic_desktop" viewBox="0 0 25 25">
        <path clip-rule="evenodd" d="m1.25 6c0-1.51878 1.23122-2.75 2.75-2.75h16c1.5188 0 2.75 1.23122 2.75 2.75v10c0 1.5188-1.2312 2.75-2.75 2.75h-5.7865l.75 1.5h2.0365c.4142 0 .75.3358.75.75s-.3358.75-.75.75h-10c-.41421 0-.75-.3358-.75-.75s.33579-.75.75-.75h2.03647l.75-1.5h-5.78647c-1.51878 0-2.75-1.2312-2.75-2.75zm18.75 11.25h-16c-.69036 0-1.25-.5596-1.25-1.25v-10c0-.69036.55964-1.25 1.25-1.25h16c.6904 0 1.25.55964 1.25 1.25v10c0 .6904-.5596 1.25-1.25 1.25z" fill-rule="evenodd"/>
    </symbol>
    <symbol id="ic_mobile" viewBox="0 0 32 32">
        <path d="M23 0h-14c-1.65 0-3 1.35-3 3v26c0 1.65 1.35 3 3 3h14c1.65 0 3-1.35 3-3v-26c0-1.65-1.35-3-3-3zM12 1.5h8v1h-8v-1zM16 30c-1.105 0-2-0.895-2-2s0.895-2 2-2 2 0.895 2 2-0.895 2-2 2zM24 24h-16v-20h16v20z"/>
    </symbol>
    <symbol id="ic_bookmark_plus" viewBox="0 0 16 24">
        <path d="M0.064209 12.8685C0.064209 9.47254 0.064209 6.07658 0.064209 2.6734C0.064209 1.64017 0.628495 0.874272 1.55707 0.628607C1.76421 0.578029 1.97849 0.556353 2.19278 0.556353C6.09278 0.549127 9.99992 0.549127 13.8999 0.556353C15.1928 0.556353 16.0285 1.40173 16.0285 2.70231C16.0285 9.53034 16.0285 16.3656 16.0356 23.1936C16.0356 23.5838 15.9428 23.909 15.5856 24.104C15.2285 24.2991 14.9071 24.198 14.5856 23.9884C12.4928 22.6228 10.3928 21.2644 8.29992 19.8988C8.12849 19.7905 8.01421 19.7977 7.84992 19.8988C5.73564 21.2717 3.62135 22.6301 1.50707 24.0029C1.25707 24.1618 0.999923 24.263 0.699923 24.1763C0.364209 24.0824 0.114209 23.7933 0.0856376 23.4393C0.0784947 23.3237 0.0784948 23.2081 0.0784948 23.0853C0.064209 19.6821 0.064209 16.2717 0.064209 12.8685ZM7.19278 9.78323C7.19278 10.4624 7.19278 11.1127 7.19278 11.7558C7.19278 12.2832 7.55707 12.659 8.04992 12.659C8.54278 12.659 8.89992 12.2832 8.89992 11.7486C8.90707 11.1777 8.89992 10.6142 8.89992 10.0433C8.89992 9.95664 8.89992 9.86994 8.89992 9.77601C9.59278 9.77601 10.2428 9.78323 10.8928 9.77601C11.3785 9.76878 11.7428 9.40028 11.7428 8.92341C11.7499 8.43208 11.3856 8.06358 10.8856 8.04913C10.7285 8.0419 10.5642 8.04913 10.4071 8.04913C9.91421 8.04913 9.41421 8.04913 8.90707 8.04913C8.90707 7.36994 8.90707 6.71965 8.90707 6.07658C8.89992 5.54913 8.54278 5.17341 8.04992 5.17341C7.55707 5.17341 7.20707 5.54913 7.19992 6.08381C7.19278 6.65462 7.19992 7.2182 7.19992 7.78901C7.19992 7.87572 7.19992 7.96242 7.19992 8.05635C6.53564 8.05635 5.91421 8.05635 5.28564 8.05635C4.73564 8.05635 4.35707 8.40317 4.34992 8.90895C4.34278 9.42919 4.72135 9.78323 5.29278 9.78323C5.90707 9.79046 6.52849 9.78323 7.19278 9.78323Z" />
    </symbol>
    <symbol id="ic_bookmark_remove" viewBox="0 0 223.49 327.39">
        <path d="M223.43,29.73c0-18-11.72-29.7-29.78-29.71Q111.71,0,29.76.05a35.35,35.35,0,0,0-8.88,1C7.88,4.45,0,15.13,0,29.4Q0,99.93,0,170.46,0,241.19,0,311.9c0,1.62,0,3.25.11,4.86A11.73,11.73,0,0,0,8.72,327c4.22,1.17,7.79-.2,11.29-2.44q44.41-28.38,88.84-56.76c2.31-1.49,3.9-1.59,6.27-.05,29.31,18.94,58.71,37.73,88,56.65,4.52,2.91,9.07,4.26,14,1.59s6.31-7.19,6.31-12.6Q223.4,171.54,223.43,29.73ZM163.22,148.1l-19.54,19.55L111.1,135.07,78.52,167.65,59,148.1l32.58-32.58L59,82.94,78.52,63.4,111.1,96,143.68,63.4l19.54,19.54-32.57,32.58Z"/>
    </symbol>
    <symbol id="ic_bookmark_check" viewBox="0 0 223.49 327.39">
        <path d="M223.43,29.73c0-18-11.72-29.7-29.78-29.71Q111.71,0,29.76.05a35.35,35.35,0,0,0-8.88,1C7.88,4.45,0,15.13,0,29.4Q0,99.93,0,170.46,0,241.19,0,311.9c0,1.62,0,3.25.11,4.86A11.73,11.73,0,0,0,8.72,327c4.22,1.17,7.79-.2,11.29-2.44q44.41-28.38,88.84-56.76c2.31-1.49,3.9-1.59,6.27-.05,29.31,18.94,58.71,37.73,88,56.65,4.52,2.91,9.07,4.26,14,1.59s6.31-7.19,6.31-12.6Q223.4,171.54,223.43,29.73Zm-136.92,146h0L40.13,120.62l17-17L86.5,132.46l85-74.18,11.85,11.85Z"/>
    </symbol>
    <symbol id="ic_telegram" viewBox="0 0 32 32">
        <path d="M1.46,14.28q13.2-5.62,17.61-7.43c8.39-3.41,10.13-4,11.26-4a2.09,2.09,0,0,1,1.18.35,1.24,1.24,0,0,1,.42.8A4.5,4.5,0,0,1,32,5.13c-.46,4.68-2.43,16-3.43,21.27-.42,2.21-1.26,2.69-2.07,2.76-1.75.16-3.08-.87-4.77-2-2.66-1.7-3.64-2.16-6.22-3.83-3-1.92-1.35-2.93.34-4.66.45-.45,8.23-7.5,8.38-8.12a2.65,2.65,0,0,0-.41-1,.7.7,0,0,0-.63-.06q-.39.09-12.74,8.24A5.8,5.8,0,0,1,7.17,19a22.59,22.59,0,0,1-4.7-1.09C.58,17.26-.12,17,0,16,.08,15.42.56,14.86,1.46,14.28Z"/>
    </symbol>
    <symbol id="ic_key" viewBox="0 0 32 32">
        <path d="m31.6 8.8c-0.4-3-1.9-5.4-4.4-7.1-3.6-2.4-8.2-2.2-11.7 0.4-3.9 2.9-5.1 8.3-2.9 12.6 0.1 0.3 0.1 0.4-0.1 0.6-3.9 3.8-7.8 7.7-11.7 11.6-0.6 0.6-0.6 1.1 0 1.7l2.3 2.3c0.6 0.6 1.1 0.6 1.7 0l1.5-1.5 2.1 2.1c0.7 0.7 1.2 0.7 1.9 0l2.2-2.2c0.6-0.6 0.6-1.1 0-1.7l-2.2-2.2 6.1-6.1c0.2-0.2 0.3-0.2 0.6-0.1 2.8 1.4 5.6 1.5 8.5 0.3 4.2-1.9 6.7-6.2 6.1-10.7zm-10 6.3c-2.8 0-5-2.2-5-5s2.2-5 5-5c2.7 0 5 2.2 5 5s-2.2 5-5 5z"/>
    </symbol>
    <symbol id="ic_category" viewBox="0 0 34 32">
        <path d="M8 2h-6c-1.1 0-2 0.9-2 2v24c0 1.1 0.9 2 2 2h6c1.1 0 2-0.9 2-2v-24c0-1.1-0.9-2-2-2zM6 25.25c0 0.413-0.338 0.75-0.75 0.75h-0.5c-0.412 0-0.75-0.337-0.75-0.75v-0.5c0-0.413 0.338-0.75 0.75-0.75h0.5c0.412 0 0.75 0.337 0.75 0.75v0.5zM8 20h-6v-10h6v10zM8 8h-6v-2h6v2zM20 2h-6c-1.1 0-2 0.9-2 2v24c0 1.1 0.9 2 2 2h6c1.1 0 2-0.9 2-2v-24c0-1.1-0.9-2-2-2zM18 25.25c0 0.413-0.337 0.75-0.75 0.75h-0.5c-0.413 0-0.75-0.337-0.75-0.75v-0.5c0-0.413 0.337-0.75 0.75-0.75h0.5c0.413 0 0.75 0.337 0.75 0.75v0.5zM20 20h-6v-10h6v10zM20 8h-6v-2h6v2zM32 2h-6c-1.1 0-2 0.9-2 2v24c0 1.1 0.9 2 2 2h6c1.1 0 2-0.9 2-2v-24c0-1.1-0.9-2-2-2zM30 25.25c0 0.413-0.337 0.75-0.75 0.75h-0.5c-0.413 0-0.75-0.337-0.75-0.75v-0.5c0-0.413 0.337-0.75 0.75-0.75h0.5c0.413 0 0.75 0.337 0.75 0.75v0.5zM32 20h-6v-10h6v10zM32 8h-6v-2h6v2z"/>
    </symbol>
    <symbol id="ic_clock" viewBox="0 0 32 32">
        <path d="M16.073.08A15.94 15.94 0 0 0 .136 16.016a15.94 15.94 0 0 0 15.937 15.937A15.94 15.94 0 0 0 32.01 16.016 15.94 15.94 0 0 0 16.073.079zm6.733 17.775h-6.745c-1.01 0-1.838-.827-1.838-1.838V9.27c0-1.01.827-1.838 1.838-1.838S17.9 8.26 17.9 9.27v4.906h4.906c1.01 0 1.838.827 1.838 1.838s-.816 1.838-1.838 1.838z"/>
    </symbol>
    <symbol id="ic_frozen" viewBox="0 0 32 32">
        <path d="M16 .036C7.183.036.036 7.183.036 16S7.183 31.964 16 31.964 31.964 24.817 31.964 16 24.817.036 16 .036zm9.83 19.636c.83.483 1.105 1.53.622 2.36s-1.542 1.105-2.36.633l-6.377-3.683v7.366c0 .955-.77 1.726-1.726 1.726s-1.726-.77-1.726-1.726V18.98l-6.377 3.683a1.73 1.73 0 0 1-2.36-.633c-.472-.83-.196-1.888.633-2.36l6.377-3.683-6.377-3.683a1.73 1.73 0 0 1-.633-2.36 1.73 1.73 0 0 1 2.36-.633l6.388 3.683V5.63c0-.955.77-1.726 1.726-1.726s1.726.77 1.726 1.726v7.366l6.377-3.683c.83-.472 1.888-.196 2.36.633s.196 1.888-.633 2.36l-6.377 3.683 6.377 3.683z"/>
    </symbol>
    <symbol id="ic_thank-you-money" viewBox="0 0 34 32">
        <path d="M32,18.2v-2.6h-5.2V13h-2.6v2.6H19v7.9h5.2v2.6H19v2.6h5.2v2.6h2.6v-2.6H32v-7.9h-5.2v-2.6H32z M24.1,20.8h-2.6v-2.6h2.6 V20.8z M26.8,23.4h2.6V26h-2.6V23.4z"/>
        <path d="M16,26.7l-0.5-0.3c-1.3-0.7-3.8-2.2-6.3-4.3c-3.2-2.7-7-6.9-7-11.9c0-3.7,3.1-6.6,6.9-6.6c2.5,0,4.9,1.3,6.1,3.5L16,8.8 l0.9-1.7c1.2-2.2,3.5-3.5,6.1-3.5c3.8,0,6.9,3,6.9,6.6c0,0.2,0,0.4,0,0.7H32c0-0.2,0-0.4,0-0.7c0-4.8-4-8.8-9-8.8 c-2.4,0-4.6,0.9-6.3,2.5L16,4.6l-0.7-0.7C13.6,2.3,11.4,1.4,9,1.4c-5,0-9,3.9-9,8.8c0,11,14.9,18.3,15.5,18.6L16,29V26.7z"/>
    </symbol>
    <symbol xmlns="http://www.w3.org/2000/svg" id="ic_blog" viewBox="0 0 32 32">
        <path d="m13 0.1c-2.4 0-4.6 1.1-6.3 3.1-1.6 1.9-2.5 4.5-2.5 7.2 0 1.9 0.5 3.8 1.3 5.5 0.7 1.3 1.7 2.5 2.8 3.3v0.4c-2 0.8-3.8 2.1-5.2 3.8-1.7 2-2.7 4.5-2.9 7.1 0 0.4 0.1 0.9 0.4 1.2s0.7 0.5 1.1 0.5h7.4c0.8 0 1.5-0.7 1.5-1.5s-0.7-1.5-1.5-1.5h-5.5c0.4-1.4 1-2.6 1.9-3.7 1.3-1.5 2.9-2.6 4.8-3.1 0.7-0.2 1.1-0.8 1.1-1.5v-2.3c0-0.5-0.3-1.1-0.8-1.3-2-1.2-3.4-3.8-3.4-6.6 0-4 2.5-7.2 5.7-7.2 3 0 5.5 3 5.7 6.8 0 0.8 0.8 1.5 1.6 1.5s1.5-0.8 1.5-1.6c-0.2-5.9-4-10.1-8.7-10.1z"/>
        <path d="m28.8 13.3h-12c-1.7 0-3.2 1.4-3.2 3.2v13.1l2.8-3.4h12.3c1.7 0 3.2-1.4 3.2-3.2v-6.6c0.1-1.7-1.3-3.1-3.1-3.1zm-10.8 8.7c-1.1 0-2-0.9-2-2s0.9-2 2-2 2 0.9 2 2-0.9 2-2 2zm5.1 0.1c-1.1 0-2-0.9-2-2s0.9-2 2-2 2 0.9 2 2-0.9 2-2 2zm5 0.1c-1.1 0-2-0.9-2-2s0.9-2 2-2 2 0.9 2 2-0.9 2-2 2z"/>
    </symbol>
</svg>
